# MagicaVoxel @ Ephtracy

# group
g map-6

# material
mtllib map-6.mtl
usemtl palette

# normals
vn -1 0 0
vn 1 0 0
vn 0 0 1
vn 0 0 -1
vn 0 -1 0
vn 0 1 0

# texcoords
vt 0.201172 0.5
vt 0.205078 0.5
vt 0.912109 0.5
vt 0.962891 0.5

# verts
v -63 0 63
v -63 0 -63
v -63 13 63
v -63 13 -63
v 63 0 63
v 63 0 -63
v 63 12 48
v 63 12 46
v 63 12 13
v 63 12 11
v 63 13 63
v 63 13 48
v 63 13 46
v 63 13 13
v 63 13 11
v 63 13 -63
v -63 0 63
v -63 13 63
v 12 12 63
v 12 13 63
v 14 12 63
v 14 13 63
v 27 0 63
v 27 12 63
v 42 12 63
v 42 13 63
v 46 12 63
v 46 13 63
v 52 0 63
v 52 12 63
v 63 0 63
v 63 13 63
v -63 0 -63
v -63 13 -63
v 63 0 -63
v 63 13 -63
v -63 0 63
v 27 0 63
v 52 0 63
v 63 0 63
v 52 0 61
v 54 0 61
v 54 0 60
v 55 0 60
v 55 0 59
v 57 0 59
v 57 0 58
v 58 0 58
v 58 0 56
v 59 0 56
v 59 0 55
v 61 0 55
v 61 0 54
v 62 0 54
v 27 0 47
v 28 0 47
v 28 0 45
v 30 0 45
v 30 0 44
v 31 0 44
v 31 0 43
v 32 0 43
v 32 0 41
v 34 0 41
v 34 0 40
v 35 0 40
v 35 0 39
v 37 0 39
v 37 0 38
v 38 0 38
v 38 0 36
v 39 0 36
v 39 0 35
v 41 0 35
v 41 0 34
v 62 0 34
v -63 0 -63
v 63 0 -63
v -63 13 63
v 12 13 63
v 14 13 63
v 42 13 63
v 46 13 63
v 63 13 63
v 14 13 62
v 15 13 62
v 42 13 62
v 45 13 62
v 46 13 62
v 48 13 62
v 12 13 61
v 14 13 61
v 15 13 61
v 16 13 61
v 45 13 61
v 46 13 61
v 16 13 60
v 17 13 60
v 46 13 60
v 47 13 60
v 48 13 60
v 49 13 60
v 14 13 59
v 15 13 59
v 17 13 59
v 18 13 59
v 47 13 59
v 48 13 59
v 49 13 59
v 51 13 59
v 18 13 58
v 19 13 58
v 48 13 58
v 50 13 58
v 51 13 58
v 52 13 58
v 15 13 57
v 16 13 57
v 19 13 57
v 20 13 57
v 50 13 57
v 51 13 57
v 52 13 57
v 53 13 57
v 16 13 56
v 18 13 56
v 20 13 56
v 21 13 56
v 51 13 56
v 52 13 56
v 53 13 56
v 54 13 56
v 21 13 55
v 22 13 55
v 52 13 55
v 53 13 55
v 54 13 55
v 55 13 55
v 18 13 54
v 21 13 54
v 22 13 54
v 23 13 54
v 55 13 54
v 56 13 54
v 21 13 53
v 22 13 53
v 23 13 53
v 24 13 53
v 53 13 53
v 55 13 53
v 56 13 53
v 58 13 53
v 22 13 52
v 23 13 52
v 24 13 52
v 25 13 52
v 55 13 52
v 56 13 52
v 58 13 52
v 59 13 52
v 23 13 51
v 24 13 51
v 25 13 51
v 26 13 51
v 56 13 51
v 57 13 51
v 24 13 50
v 25 13 50
v 26 13 50
v 27 13 50
v 57 13 50
v 58 13 50
v 59 13 50
v 61 13 50
v 25 13 49
v 26 13 49
v 27 13 49
v 28 13 49
v 58 13 49
v 59 13 49
v 61 13 49
v 62 13 49
v 26 13 48
v 27 13 48
v 28 13 48
v 29 13 48
v 59 13 48
v 61 13 48
v 62 13 48
v 63 13 48
v 27 13 47
v 28 13 47
v 29 13 47
v 30 13 47
v 61 13 47
v 62 13 47
v 28 13 46
v 29 13 46
v 30 13 46
v 31 13 46
v 62 13 46
v 63 13 46
v 29 13 45
v 30 13 45
v 31 13 45
v 32 13 45
v 30 13 43
v 31 13 43
v 32 13 43
v 33 13 43
v 31 13 42
v 32 13 42
v 33 13 42
v 34 13 42
v 32 13 41
v 33 13 41
v 34 13 41
v 35 13 41
v 33 13 40
v 34 13 40
v 35 13 40
v 36 13 40
v 34 13 39
v 35 13 39
v 36 13 39
v 37 13 39
v 35 13 38
v 36 13 38
v 37 13 38
v 38 13 38
v 38 13 37
v 40 13 37
v 36 13 36
v 37 13 36
v 37 13 35
v 38 13 35
v 40 13 35
v 42 13 35
v 38 13 34
v 39 13 34
v 42 13 34
v 43 13 34
v 39 13 33
v 40 13 33
v 41 13 33
v 42 13 33
v 40 13 32
v 41 13 32
v 43 13 32
v 45 13 32
v 42 13 31
v 44 13 31
v 45 13 31
v 46 13 31
v 46 13 30
v 47 13 30
v 44 13 29
v 45 13 29
v 45 13 28
v 46 13 28
v 47 13 28
v 48 13 28
v 46 13 27
v 47 13 27
v 48 13 27
v 49 13 27
v 47 13 26
v 48 13 26
v 49 13 26
v 50 13 26
v 48 13 25
v 49 13 25
v 50 13 25
v 51 13 25
v 49 13 24
v 50 13 24
v 51 13 24
v 52 13 24
v 50 13 23
v 51 13 23
v 51 13 22
v 52 13 22
v 54 13 22
v 52 13 21
v 53 13 21
v 54 13 21
v 55 13 21
v 53 13 20
v 54 13 20
v 54 13 19
v 55 13 19
v 56 13 19
v 56 13 18
v 57 13 18
v 55 13 17
v 56 13 17
v 57 13 17
v 59 13 17
v 56 13 16
v 57 13 16
v 57 13 15
v 58 13 15
v 59 13 15
v 61 13 15
v 58 13 14
v 59 13 14
v 61 13 14
v 62 13 14
v 59 13 13
v 61 13 13
v 62 13 13
v 63 13 13
v 61 13 12
v 62 13 12
v 62 13 11
v 63 13 11
v -63 13 -63
v 63 13 -63

# faces
f 3/3/1 2/3/1 1/3/1
f 4/3/1 2/3/1 3/3/1
f 5/3/2 6/3/2 7/3/2
f 7/3/2 6/3/2 8/3/2
f 8/3/2 6/3/2 9/3/2
f 9/3/2 6/3/2 10/3/2
f 5/3/2 7/3/2 11/3/2
f 7/1/2 8/1/2 12/1/2
f 11/3/2 7/3/2 12/3/2
f 8/2/2 9/2/2 13/2/2
f 12/1/2 8/1/2 13/1/2
f 9/1/2 10/1/2 14/1/2
f 13/2/2 9/2/2 14/2/2
f 10/3/2 6/3/2 15/3/2
f 14/1/2 10/1/2 15/1/2
f 15/3/2 6/3/2 16/3/2
f 19/3/3 18/3/3 17/3/3
f 20/3/3 18/3/3 19/3/3
f 21/3/3 19/3/3 17/3/3
f 21/1/3 20/1/3 19/1/3
f 22/1/3 20/1/3 21/1/3
f 23/3/3 21/3/3 17/3/3
f 24/2/3 22/2/3 21/2/3
f 24/3/3 21/3/3 23/3/3
f 25/4/3 24/4/3 23/4/3
f 25/2/3 22/2/3 24/2/3
f 26/2/3 22/2/3 25/2/3
f 27/4/3 25/4/3 23/4/3
f 27/1/3 26/1/3 25/1/3
f 28/1/3 26/1/3 27/1/3
f 29/4/3 27/4/3 23/4/3
f 30/3/3 28/3/3 27/3/3
f 30/4/3 27/4/3 29/4/3
f 31/3/3 30/3/3 29/3/3
f 32/3/3 28/3/3 30/3/3
f 32/3/3 30/3/3 31/3/3
f 33/3/4 34/3/4 35/3/4
f 35/3/4 34/3/4 36/3/4
f 41/4/5 39/4/5 38/4/5
f 41/3/5 40/3/5 39/3/5
f 42/3/5 40/3/5 41/3/5
f 43/4/5 42/4/5 41/4/5
f 43/3/5 40/3/5 42/3/5
f 44/3/5 40/3/5 43/3/5
f 45/4/5 44/4/5 43/4/5
f 45/3/5 40/3/5 44/3/5
f 46/3/5 40/3/5 45/3/5
f 47/4/5 46/4/5 45/4/5
f 47/3/5 40/3/5 46/3/5
f 48/3/5 40/3/5 47/3/5
f 49/4/5 48/4/5 47/4/5
f 49/3/5 40/3/5 48/3/5
f 50/3/5 40/3/5 49/3/5
f 51/4/5 50/4/5 49/4/5
f 51/3/5 40/3/5 50/3/5
f 52/3/5 40/3/5 51/3/5
f 53/4/5 52/4/5 51/4/5
f 53/3/5 40/3/5 52/3/5
f 54/3/5 40/3/5 53/3/5
f 55/3/5 38/3/5 37/3/5
f 55/4/5 41/4/5 38/4/5
f 55/4/5 54/4/5 53/4/5
f 55/4/5 53/4/5 51/4/5
f 55/4/5 51/4/5 49/4/5
f 55/4/5 49/4/5 47/4/5
f 55/4/5 47/4/5 45/4/5
f 55/4/5 45/4/5 43/4/5
f 55/4/5 43/4/5 41/4/5
f 56/4/5 54/4/5 55/4/5
f 57/3/5 56/3/5 55/3/5
f 57/4/5 54/4/5 56/4/5
f 58/4/5 54/4/5 57/4/5
f 59/3/5 58/3/5 57/3/5
f 59/4/5 54/4/5 58/4/5
f 60/4/5 54/4/5 59/4/5
f 61/3/5 60/3/5 59/3/5
f 61/4/5 54/4/5 60/4/5
f 62/4/5 54/4/5 61/4/5
f 63/3/5 62/3/5 61/3/5
f 63/4/5 54/4/5 62/4/5
f 64/4/5 54/4/5 63/4/5
f 65/3/5 64/3/5 63/3/5
f 65/4/5 54/4/5 64/4/5
f 66/4/5 54/4/5 65/4/5
f 67/3/5 66/3/5 65/3/5
f 67/4/5 54/4/5 66/4/5
f 68/4/5 54/4/5 67/4/5
f 69/3/5 68/3/5 67/3/5
f 69/4/5 54/4/5 68/4/5
f 70/4/5 54/4/5 69/4/5
f 71/3/5 70/3/5 69/3/5
f 71/4/5 54/4/5 70/4/5
f 72/4/5 54/4/5 71/4/5
f 73/3/5 72/3/5 71/3/5
f 73/4/5 54/4/5 72/4/5
f 74/4/5 54/4/5 73/4/5
f 75/3/5 74/3/5 73/3/5
f 75/4/5 54/4/5 74/4/5
f 76/3/5 40/3/5 54/3/5
f 76/4/5 54/4/5 75/4/5
f 77/3/5 75/3/5 73/3/5
f 77/3/5 55/3/5 37/3/5
f 77/3/5 76/3/5 75/3/5
f 77/3/5 73/3/5 71/3/5
f 77/3/5 71/3/5 69/3/5
f 77/3/5 69/3/5 67/3/5
f 77/3/5 67/3/5 65/3/5
f 77/3/5 65/3/5 63/3/5
f 77/3/5 63/3/5 61/3/5
f 77/3/5 61/3/5 59/3/5
f 77/3/5 59/3/5 57/3/5
f 77/3/5 57/3/5 55/3/5
f 78/3/5 40/3/5 76/3/5
f 78/3/5 76/3/5 77/3/5
f 80/1/6 81/1/6 85/1/6
f 81/2/6 82/2/6 85/2/6
f 85/2/6 82/2/6 86/2/6
f 82/1/6 83/1/6 87/1/6
f 86/2/6 82/2/6 87/2/6
f 87/1/6 83/1/6 88/1/6
f 83/3/6 84/3/6 89/3/6
f 88/1/6 83/1/6 89/1/6
f 89/3/6 84/3/6 90/3/6
f 79/3/6 80/3/6 91/3/6
f 85/1/6 86/1/6 91/1/6
f 80/1/6 85/1/6 91/1/6
f 91/1/6 86/1/6 92/1/6
f 87/2/6 88/2/6 93/2/6
f 92/1/6 86/1/6 93/1/6
f 86/2/6 87/2/6 93/2/6
f 93/2/6 88/2/6 94/2/6
f 89/1/6 90/1/6 95/1/6
f 94/2/6 88/2/6 95/2/6
f 88/1/6 89/1/6 95/1/6
f 95/1/6 90/1/6 96/1/6
f 93/1/6 94/1/6 97/1/6
f 92/1/6 93/1/6 97/1/6
f 95/2/6 96/2/6 97/2/6
f 94/2/6 95/2/6 97/2/6
f 97/2/6 96/2/6 98/2/6
f 96/1/6 90/1/6 99/1/6
f 98/2/6 96/2/6 99/2/6
f 99/1/6 90/1/6 100/1/6
f 90/3/6 84/3/6 101/3/6
f 100/1/6 90/1/6 101/1/6
f 101/3/6 84/3/6 102/3/6
f 91/3/6 92/3/6 103/3/6
f 97/1/6 98/1/6 103/1/6
f 92/1/6 97/1/6 103/1/6
f 103/1/6 98/1/6 104/1/6
f 99/2/6 100/2/6 105/2/6
f 104/1/6 98/1/6 105/1/6
f 98/2/6 99/2/6 105/2/6
f 105/2/6 100/2/6 106/2/6
f 101/1/6 102/1/6 107/1/6
f 106/2/6 100/2/6 107/2/6
f 100/1/6 101/1/6 107/1/6
f 107/1/6 102/1/6 108/1/6
f 102/3/6 84/3/6 109/3/6
f 108/1/6 102/1/6 109/1/6
f 109/3/6 84/3/6 110/3/6
f 107/2/6 108/2/6 111/2/6
f 105/1/6 106/1/6 111/1/6
f 104/1/6 105/1/6 111/1/6
f 106/2/6 107/2/6 111/2/6
f 111/2/6 108/2/6 112/2/6
f 109/1/6 110/1/6 113/1/6
f 112/2/6 108/2/6 113/2/6
f 108/1/6 109/1/6 113/1/6
f 113/1/6 110/1/6 114/1/6
f 110/3/6 84/3/6 115/3/6
f 114/1/6 110/1/6 115/1/6
f 115/3/6 84/3/6 116/3/6
f 103/3/6 104/3/6 117/3/6
f 111/1/6 112/1/6 117/1/6
f 104/1/6 111/1/6 117/1/6
f 117/1/6 112/1/6 118/1/6
f 113/2/6 114/2/6 119/2/6
f 118/1/6 112/1/6 119/1/6
f 112/2/6 113/2/6 119/2/6
f 119/2/6 114/2/6 120/2/6
f 115/1/6 116/1/6 121/1/6
f 120/2/6 114/2/6 121/2/6
f 114/1/6 115/1/6 121/1/6
f 121/1/6 116/1/6 122/1/6
f 116/3/6 84/3/6 123/3/6
f 122/1/6 116/1/6 123/1/6
f 123/3/6 84/3/6 124/3/6
f 117/3/6 118/3/6 125/3/6
f 119/1/6 120/1/6 125/1/6
f 118/1/6 119/1/6 125/1/6
f 125/1/6 120/1/6 126/1/6
f 121/2/6 122/2/6 127/2/6
f 126/1/6 120/1/6 127/1/6
f 120/2/6 121/2/6 127/2/6
f 127/2/6 122/2/6 128/2/6
f 123/1/6 124/1/6 129/1/6
f 128/2/6 122/2/6 129/2/6
f 122/1/6 123/1/6 129/1/6
f 129/1/6 124/1/6 130/1/6
f 124/3/6 84/3/6 131/3/6
f 130/1/6 124/1/6 131/1/6
f 131/3/6 84/3/6 132/3/6
f 129/2/6 130/2/6 133/2/6
f 127/1/6 128/1/6 133/1/6
f 126/1/6 127/1/6 133/1/6
f 128/2/6 129/2/6 133/2/6
f 133/2/6 130/2/6 134/2/6
f 131/1/6 132/1/6 135/1/6
f 134/2/6 130/2/6 135/2/6
f 130/1/6 131/1/6 135/1/6
f 135/1/6 132/1/6 136/1/6
f 132/3/6 84/3/6 137/3/6
f 136/1/6 132/1/6 137/1/6
f 137/3/6 84/3/6 138/3/6
f 125/3/6 126/3/6 139/3/6
f 133/1/6 134/1/6 139/1/6
f 126/1/6 133/1/6 139/1/6
f 139/1/6 134/1/6 140/1/6
f 135/2/6 136/2/6 141/2/6
f 140/1/6 134/1/6 141/1/6
f 134/2/6 135/2/6 141/2/6
f 141/2/6 136/2/6 142/2/6
f 138/3/6 84/3/6 143/3/6
f 137/1/6 138/1/6 143/1/6
f 136/1/6 137/1/6 143/1/6
f 143/3/6 84/3/6 144/3/6
f 139/3/6 140/3/6 145/3/6
f 141/1/6 142/1/6 145/1/6
f 140/1/6 141/1/6 145/1/6
f 145/1/6 142/1/6 146/1/6
f 142/2/6 136/2/6 147/2/6
f 146/1/6 142/1/6 147/1/6
f 147/2/6 136/2/6 148/2/6
f 143/1/6 144/1/6 149/1/6
f 148/2/6 136/2/6 149/2/6
f 136/1/6 143/1/6 149/1/6
f 149/1/6 144/1/6 150/1/6
f 144/3/6 84/3/6 151/3/6
f 150/1/6 144/1/6 151/1/6
f 151/3/6 84/3/6 152/3/6
f 145/3/6 146/3/6 153/3/6
f 147/1/6 148/1/6 153/1/6
f 146/1/6 147/1/6 153/1/6
f 153/1/6 148/1/6 154/1/6
f 149/2/6 150/2/6 155/2/6
f 154/1/6 148/1/6 155/1/6
f 148/2/6 149/2/6 155/2/6
f 155/2/6 150/2/6 156/2/6
f 151/1/6 152/1/6 157/1/6
f 156/2/6 150/2/6 157/2/6
f 150/1/6 151/1/6 157/1/6
f 157/1/6 152/1/6 158/1/6
f 152/3/6 84/3/6 159/3/6
f 158/1/6 152/1/6 159/1/6
f 159/3/6 84/3/6 160/3/6
f 153/3/6 154/3/6 161/3/6
f 155/1/6 156/1/6 161/1/6
f 154/1/6 155/1/6 161/1/6
f 161/1/6 156/1/6 162/1/6
f 157/2/6 158/2/6 163/2/6
f 162/1/6 156/1/6 163/1/6
f 156/2/6 157/2/6 163/2/6
f 163/2/6 158/2/6 164/2/6
f 159/1/6 160/1/6 165/1/6
f 164/2/6 158/2/6 165/2/6
f 158/1/6 159/1/6 165/1/6
f 165/1/6 160/1/6 166/1/6
f 161/3/6 162/3/6 167/3/6
f 163/1/6 164/1/6 167/1/6
f 162/1/6 163/1/6 167/1/6
f 167/1/6 164/1/6 168/1/6
f 165/2/6 166/2/6 169/2/6
f 168/1/6 164/1/6 169/1/6
f 164/2/6 165/2/6 169/2/6
f 169/2/6 166/2/6 170/2/6
f 166/1/6 160/1/6 171/1/6
f 170/2/6 166/2/6 171/2/6
f 171/1/6 160/1/6 172/1/6
f 160/3/6 84/3/6 173/3/6
f 172/1/6 160/1/6 173/1/6
f 173/3/6 84/3/6 174/3/6
f 169/1/6 170/1/6 175/1/6
f 167/3/6 168/3/6 175/3/6
f 168/1/6 169/1/6 175/1/6
f 175/1/6 170/1/6 176/1/6
f 171/2/6 172/2/6 177/2/6
f 176/1/6 170/1/6 177/1/6
f 170/2/6 171/2/6 177/2/6
f 177/2/6 172/2/6 178/2/6
f 173/1/6 174/1/6 179/1/6
f 178/2/6 172/2/6 179/2/6
f 172/1/6 173/1/6 179/1/6
f 179/1/6 174/1/6 180/1/6
f 174/3/6 84/3/6 181/3/6
f 180/1/6 174/1/6 181/1/6
f 181/3/6 84/3/6 182/3/6
f 175/3/6 176/3/6 183/3/6
f 177/1/6 178/1/6 183/1/6
f 176/1/6 177/1/6 183/1/6
f 183/1/6 178/1/6 184/1/6
f 179/2/6 180/2/6 185/2/6
f 184/1/6 178/1/6 185/1/6
f 178/2/6 179/2/6 185/2/6
f 185/2/6 180/2/6 186/2/6
f 181/1/6 182/1/6 187/1/6
f 186/2/6 180/2/6 187/2/6
f 180/1/6 181/1/6 187/1/6
f 187/1/6 182/1/6 188/1/6
f 182/3/6 84/3/6 189/3/6
f 188/1/6 182/1/6 189/1/6
f 189/3/6 84/3/6 190/3/6
f 183/3/6 184/3/6 191/3/6
f 185/1/6 186/1/6 191/1/6
f 184/1/6 185/1/6 191/1/6
f 191/1/6 186/1/6 192/1/6
f 187/2/6 188/2/6 193/2/6
f 192/1/6 186/1/6 193/1/6
f 186/2/6 187/2/6 193/2/6
f 193/2/6 188/2/6 194/2/6
f 189/1/6 190/1/6 195/1/6
f 194/2/6 188/2/6 195/2/6
f 188/1/6 189/1/6 195/1/6
f 195/1/6 190/1/6 196/1/6
f 191/3/6 192/3/6 197/3/6
f 193/1/6 194/1/6 197/1/6
f 192/1/6 193/1/6 197/1/6
f 197/1/6 194/1/6 198/1/6
f 195/2/6 196/2/6 199/2/6
f 198/1/6 194/1/6 199/1/6
f 194/2/6 195/2/6 199/2/6
f 199/2/6 196/2/6 200/2/6
f 196/1/6 190/1/6 201/1/6
f 200/2/6 196/2/6 201/2/6
f 201/1/6 190/1/6 202/1/6
f 199/1/6 200/1/6 203/1/6
f 197/3/6 198/3/6 203/3/6
f 198/1/6 199/1/6 203/1/6
f 203/1/6 200/1/6 204/1/6
f 201/2/6 202/2/6 205/2/6
f 204/1/6 200/1/6 205/1/6
f 200/2/6 201/2/6 205/2/6
f 205/2/6 202/2/6 206/2/6
f 203/3/6 204/3/6 207/3/6
f 204/1/6 205/1/6 207/1/6
f 205/1/6 206/1/6 207/1/6
f 207/1/6 206/1/6 208/1/6
f 206/2/6 202/2/6 209/2/6
f 208/1/6 206/1/6 209/1/6
f 209/2/6 202/2/6 210/2/6
f 207/3/6 208/3/6 211/3/6
f 208/1/6 209/1/6 211/1/6
f 209/1/6 210/1/6 211/1/6
f 211/1/6 210/1/6 212/1/6
f 210/2/6 202/2/6 213/2/6
f 212/1/6 210/1/6 213/1/6
f 213/2/6 202/2/6 214/2/6
f 211/3/6 212/3/6 215/3/6
f 212/1/6 213/1/6 215/1/6
f 213/1/6 214/1/6 215/1/6
f 215/1/6 214/1/6 216/1/6
f 214/2/6 202/2/6 217/2/6
f 216/1/6 214/1/6 217/1/6
f 217/2/6 202/2/6 218/2/6
f 215/3/6 216/3/6 219/3/6
f 216/1/6 217/1/6 219/1/6
f 217/1/6 218/1/6 219/1/6
f 219/1/6 218/1/6 220/1/6
f 218/2/6 202/2/6 221/2/6
f 220/1/6 218/1/6 221/1/6
f 221/2/6 202/2/6 222/2/6
f 219/3/6 220/3/6 223/3/6
f 220/1/6 221/1/6 223/1/6
f 221/1/6 222/1/6 223/1/6
f 223/1/6 222/1/6 224/1/6
f 222/2/6 202/2/6 225/2/6
f 224/1/6 222/1/6 225/1/6
f 225/2/6 202/2/6 226/2/6
f 223/3/6 224/3/6 227/3/6
f 224/1/6 225/1/6 227/1/6
f 225/1/6 226/1/6 227/1/6
f 227/1/6 226/1/6 228/1/6
f 226/2/6 202/2/6 229/2/6
f 228/1/6 226/1/6 229/1/6
f 229/2/6 202/2/6 230/2/6
f 228/1/6 229/1/6 231/1/6
f 230/2/6 202/2/6 231/2/6
f 229/1/6 230/1/6 231/1/6
f 231/2/6 202/2/6 232/2/6
f 227/3/6 228/3/6 233/3/6
f 228/1/6 231/1/6 233/1/6
f 231/1/6 232/1/6 233/1/6
f 233/1/6 232/1/6 234/1/6
f 233/3/6 234/3/6 235/3/6
f 234/1/6 232/1/6 235/1/6
f 235/1/6 232/1/6 236/1/6
f 232/2/6 202/2/6 237/2/6
f 236/1/6 232/1/6 237/1/6
f 237/2/6 202/2/6 238/2/6
f 235/3/6 236/3/6 239/3/6
f 236/1/6 237/1/6 239/1/6
f 237/1/6 238/1/6 239/1/6
f 239/1/6 238/1/6 240/1/6
f 238/2/6 202/2/6 241/2/6
f 240/1/6 238/1/6 241/1/6
f 241/2/6 202/2/6 242/2/6
f 239/3/6 240/3/6 243/3/6
f 240/1/6 241/1/6 243/1/6
f 241/1/6 242/1/6 243/1/6
f 243/1/6 242/1/6 244/1/6
f 244/1/6 242/1/6 245/1/6
f 245/1/6 242/1/6 246/1/6
f 243/3/6 244/3/6 247/3/6
f 244/1/6 245/1/6 247/1/6
f 245/3/6 246/3/6 248/3/6
f 247/1/6 245/1/6 248/1/6
f 242/2/6 202/2/6 249/2/6
f 246/1/6 242/1/6 249/1/6
f 249/2/6 202/2/6 250/2/6
f 248/3/6 246/3/6 251/3/6
f 247/3/6 248/3/6 251/3/6
f 249/1/6 250/1/6 251/1/6
f 246/1/6 249/1/6 251/1/6
f 251/1/6 250/1/6 252/1/6
f 250/2/6 202/2/6 253/2/6
f 252/1/6 250/1/6 253/1/6
f 253/2/6 202/2/6 254/2/6
f 252/1/6 253/1/6 255/1/6
f 254/2/6 202/2/6 255/2/6
f 253/1/6 254/1/6 255/1/6
f 255/2/6 202/2/6 256/2/6
f 251/3/6 252/3/6 257/3/6
f 252/1/6 255/1/6 257/1/6
f 255/1/6 256/1/6 257/1/6
f 257/1/6 256/1/6 258/1/6
f 257/3/6 258/3/6 259/3/6
f 258/1/6 256/1/6 259/1/6
f 259/1/6 256/1/6 260/1/6
f 256/2/6 202/2/6 261/2/6
f 260/1/6 256/1/6 261/1/6
f 261/2/6 202/2/6 262/2/6
f 259/3/6 260/3/6 263/3/6
f 260/1/6 261/1/6 263/1/6
f 261/1/6 262/1/6 263/1/6
f 263/1/6 262/1/6 264/1/6
f 262/2/6 202/2/6 265/2/6
f 264/1/6 262/1/6 265/1/6
f 265/2/6 202/2/6 266/2/6
f 263/3/6 264/3/6 267/3/6
f 264/1/6 265/1/6 267/1/6
f 265/1/6 266/1/6 267/1/6
f 267/1/6 266/1/6 268/1/6
f 266/2/6 202/2/6 269/2/6
f 268/1/6 266/1/6 269/1/6
f 269/2/6 202/2/6 270/2/6
f 267/3/6 268/3/6 271/3/6
f 268/1/6 269/1/6 271/1/6
f 269/1/6 270/1/6 271/1/6
f 271/1/6 270/1/6 272/1/6
f 270/2/6 202/2/6 273/2/6
f 272/1/6 270/1/6 273/1/6
f 273/2/6 202/2/6 274/2/6
f 271/3/6 272/3/6 275/3/6
f 272/1/6 273/1/6 275/1/6
f 273/1/6 274/1/6 275/1/6
f 275/1/6 274/1/6 276/1/6
f 274/2/6 202/2/6 277/2/6
f 276/1/6 274/1/6 277/1/6
f 277/2/6 202/2/6 278/2/6
f 275/3/6 276/3/6 279/3/6
f 276/1/6 277/1/6 279/1/6
f 277/1/6 278/1/6 279/1/6
f 279/1/6 278/1/6 280/1/6
f 279/3/6 280/3/6 281/3/6
f 280/1/6 278/1/6 281/1/6
f 278/2/6 202/2/6 282/2/6
f 281/1/6 278/1/6 282/1/6
f 282/2/6 202/2/6 283/2/6
f 281/3/6 282/3/6 284/3/6
f 282/1/6 283/1/6 284/1/6
f 284/1/6 283/1/6 285/1/6
f 283/2/6 202/2/6 286/2/6
f 285/1/6 283/1/6 286/1/6
f 286/2/6 202/2/6 287/2/6
f 284/3/6 285/3/6 288/3/6
f 285/1/6 286/1/6 288/1/6
f 286/1/6 287/1/6 288/1/6
f 288/1/6 287/1/6 289/1/6
f 288/3/6 289/3/6 290/3/6
f 289/1/6 287/1/6 290/1/6
f 287/2/6 202/2/6 291/2/6
f 290/1/6 287/1/6 291/1/6
f 291/2/6 202/2/6 292/2/6
f 291/1/6 292/1/6 293/1/6
f 292/2/6 202/2/6 293/2/6
f 293/2/6 202/2/6 294/2/6
f 290/3/6 291/3/6 295/3/6
f 291/1/6 293/1/6 295/1/6
f 293/1/6 294/1/6 295/1/6
f 295/1/6 294/1/6 296/1/6
f 294/2/6 202/2/6 297/2/6
f 296/1/6 294/1/6 297/1/6
f 297/2/6 202/2/6 298/2/6
f 295/3/6 296/3/6 299/3/6
f 296/1/6 297/1/6 299/1/6
f 297/1/6 298/1/6 299/1/6
f 299/1/6 298/1/6 300/1/6
f 299/3/6 300/3/6 301/3/6
f 300/1/6 298/1/6 301/1/6
f 301/1/6 298/1/6 302/1/6
f 298/2/6 202/2/6 303/2/6
f 302/1/6 298/1/6 303/1/6
f 303/2/6 202/2/6 304/2/6
f 301/3/6 302/3/6 305/3/6
f 302/1/6 303/1/6 305/1/6
f 303/1/6 304/1/6 305/1/6
f 305/1/6 304/1/6 306/1/6
f 304/2/6 202/2/6 307/2/6
f 306/1/6 304/1/6 307/1/6
f 307/2/6 202/2/6 308/2/6
f 305/3/6 306/3/6 309/3/6
f 306/1/6 307/1/6 309/1/6
f 307/1/6 308/1/6 309/1/6
f 309/1/6 308/1/6 310/1/6
f 308/2/6 202/2/6 311/2/6
f 310/1/6 308/1/6 311/1/6
f 311/2/6 202/2/6 312/2/6
f 309/3/6 310/3/6 313/3/6
f 310/1/6 311/1/6 313/1/6
f 311/1/6 312/1/6 313/1/6
f 313/1/6 312/1/6 314/1/6
f 313/3/6 314/3/6 315/3/6
f 314/1/6 312/1/6 315/1/6
f 315/1/6 312/1/6 316/1/6
f 279/3/6 281/3/6 317/3/6
f 79/3/6 91/3/6 317/3/6
f 315/3/6 316/3/6 317/3/6
f 313/3/6 315/3/6 317/3/6
f 309/3/6 313/3/6 317/3/6
f 305/3/6 309/3/6 317/3/6
f 301/3/6 305/3/6 317/3/6
f 299/3/6 301/3/6 317/3/6
f 295/3/6 299/3/6 317/3/6
f 290/3/6 295/3/6 317/3/6
f 161/3/6 167/3/6 317/3/6
f 284/3/6 288/3/6 317/3/6
f 281/3/6 284/3/6 317/3/6
f 288/3/6 290/3/6 317/3/6
f 275/3/6 279/3/6 317/3/6
f 271/3/6 275/3/6 317/3/6
f 267/3/6 271/3/6 317/3/6
f 263/3/6 267/3/6 317/3/6
f 259/3/6 263/3/6 317/3/6
f 257/3/6 259/3/6 317/3/6
f 251/3/6 257/3/6 317/3/6
f 247/3/6 251/3/6 317/3/6
f 243/3/6 247/3/6 317/3/6
f 239/3/6 243/3/6 317/3/6
f 235/3/6 239/3/6 317/3/6
f 233/3/6 235/3/6 317/3/6
f 227/3/6 233/3/6 317/3/6
f 223/3/6 227/3/6 317/3/6
f 219/3/6 223/3/6 317/3/6
f 215/3/6 219/3/6 317/3/6
f 211/3/6 215/3/6 317/3/6
f 207/3/6 211/3/6 317/3/6
f 203/3/6 207/3/6 317/3/6
f 197/3/6 203/3/6 317/3/6
f 183/3/6 191/3/6 317/3/6
f 175/3/6 183/3/6 317/3/6
f 167/3/6 175/3/6 317/3/6
f 191/3/6 197/3/6 317/3/6
f 153/3/6 161/3/6 317/3/6
f 145/3/6 153/3/6 317/3/6
f 139/3/6 145/3/6 317/3/6
f 125/3/6 139/3/6 317/3/6
f 117/3/6 125/3/6 317/3/6
f 103/3/6 117/3/6 317/3/6
f 91/3/6 103/3/6 317/3/6
f 317/3/6 316/3/6 318/3/6
