# MagicaVoxel @ Ephtracy

# group
g map-73

# material
mtllib map-73.mtl
usemtl palette

# normals
vn -1 0 0
vn 1 0 0
vn 0 0 1
vn 0 0 -1
vn 0 -1 0
vn 0 1 0

# texcoords
vt 0.798828 0.5
vt 0.912109 0.5

# verts
v -63 0 63
v -63 0 -63
v -63 5 -25
v -63 5 -63
v -63 13 63
v -63 13 -25
v -63 13 -63
v 63 0 63
v 63 0 -63
v 63 5 -26
v 63 5 -63
v 63 13 63
v 63 13 -26
v 63 13 -63
v -63 0 63
v -63 13 63
v 63 0 63
v 63 13 63
v -63 0 -63
v -63 5 -63
v -63 13 -63
v 63 0 -63
v 63 5 -63
v 63 13 -63
v -63 0 63
v 63 0 63
v -63 0 -63
v 63 0 -63
v -63 13 63
v 63 13 63
v 20 13 -2
v 38 13 -2
v 15 13 -3
v 20 13 -3
v 38 13 -3
v 41 13 -3
v 13 13 -4
v 15 13 -4
v 41 13 -4
v 43 13 -4
v 12 13 -5
v 13 13 -5
v 11 13 -6
v 12 13 -6
v 43 13 -6
v 45 13 -6
v 9 13 -7
v 11 13 -7
v 8 13 -8
v 9 13 -8
v 45 13 -8
v 46 13 -8
v 6 13 -9
v 8 13 -9
v 1 13 -10
v 6 13 -10
v 46 13 -10
v 47 13 -10
v -2 13 -11
v 1 13 -11
v 47 13 -11
v 48 13 -11
v -31 13 -12
v -2 13 -12
v -37 13 -13
v -31 13 -13
v 48 13 -13
v 49 13 -13
v -43 13 -14
v -37 13 -14
v -47 13 -15
v -43 13 -15
v -49 13 -16
v -47 13 -16
v 49 13 -16
v 51 13 -16
v -52 13 -17
v -49 13 -17
v -55 13 -18
v -52 13 -18
v 51 13 -18
v 52 13 -18
v -56 13 -19
v -55 13 -19
v -58 13 -20
v -56 13 -20
v 52 13 -20
v 53 13 -20
v -59 13 -21
v -58 13 -21
v 53 13 -21
v 54 13 -21
v -60 13 -22
v -59 13 -22
v 54 13 -22
v 55 13 -22
v -61 13 -23
v -60 13 -23
v 55 13 -23
v 57 13 -23
v -62 13 -24
v -61 13 -24
v 57 13 -24
v 58 13 -24
v -63 13 -25
v -62 13 -25
v 58 13 -25
v 61 13 -25
v 61 13 -26
v 63 13 -26
v -63 13 -63
v 63 13 -63

# faces
f 3/2/1 2/2/1 1/2/1
f 4/2/1 2/2/1 3/2/1
f 5/2/1 3/2/1 1/2/1
f 6/1/1 4/1/1 3/1/1
f 6/2/1 3/2/1 5/2/1
f 7/1/1 4/1/1 6/1/1
f 8/2/2 9/2/2 10/2/2
f 10/2/2 9/2/2 11/2/2
f 8/2/2 10/2/2 12/2/2
f 10/1/2 11/1/2 13/1/2
f 12/2/2 10/2/2 13/2/2
f 13/1/2 11/1/2 14/1/2
f 17/2/3 16/2/3 15/2/3
f 18/2/3 16/2/3 17/2/3
f 19/2/4 20/2/4 22/2/4
f 20/1/4 21/1/4 23/1/4
f 22/2/4 20/2/4 23/2/4
f 23/1/4 21/1/4 24/1/4
f 27/2/5 26/2/5 25/2/5
f 28/2/5 26/2/5 27/2/5
f 29/2/6 30/2/6 31/2/6
f 31/2/6 30/2/6 32/2/6
f 29/2/6 31/2/6 33/2/6
f 31/1/6 32/1/6 34/1/6
f 33/2/6 31/2/6 34/2/6
f 32/2/6 30/2/6 35/2/6
f 34/1/6 32/1/6 35/1/6
f 35/2/6 30/2/6 36/2/6
f 29/2/6 33/2/6 37/2/6
f 33/1/6 34/1/6 38/1/6
f 37/2/6 33/2/6 38/2/6
f 34/1/6 35/1/6 38/1/6
f 35/1/6 36/1/6 38/1/6
f 36/2/6 30/2/6 39/2/6
f 38/1/6 36/1/6 39/1/6
f 39/2/6 30/2/6 40/2/6
f 29/2/6 37/2/6 41/2/6
f 37/1/6 38/1/6 42/1/6
f 41/2/6 37/2/6 42/2/6
f 38/1/6 39/1/6 42/1/6
f 39/1/6 40/1/6 42/1/6
f 29/2/6 41/2/6 43/2/6
f 41/1/6 42/1/6 44/1/6
f 43/2/6 41/2/6 44/2/6
f 40/2/6 30/2/6 45/2/6
f 44/1/6 42/1/6 45/1/6
f 42/1/6 40/1/6 45/1/6
f 45/2/6 30/2/6 46/2/6
f 29/2/6 43/2/6 47/2/6
f 43/1/6 44/1/6 48/1/6
f 47/2/6 43/2/6 48/2/6
f 44/1/6 45/1/6 48/1/6
f 45/1/6 46/1/6 48/1/6
f 29/2/6 47/2/6 49/2/6
f 47/1/6 48/1/6 50/1/6
f 49/2/6 47/2/6 50/2/6
f 48/1/6 46/1/6 51/1/6
f 50/1/6 48/1/6 51/1/6
f 46/2/6 30/2/6 51/2/6
f 51/2/6 30/2/6 52/2/6
f 29/2/6 49/2/6 53/2/6
f 49/1/6 50/1/6 54/1/6
f 53/2/6 49/2/6 54/2/6
f 50/1/6 51/1/6 54/1/6
f 51/1/6 52/1/6 54/1/6
f 29/2/6 53/2/6 55/2/6
f 53/1/6 54/1/6 56/1/6
f 55/2/6 53/2/6 56/2/6
f 54/1/6 52/1/6 57/1/6
f 56/1/6 54/1/6 57/1/6
f 52/2/6 30/2/6 57/2/6
f 57/2/6 30/2/6 58/2/6
f 29/2/6 55/2/6 59/2/6
f 55/1/6 56/1/6 60/1/6
f 59/2/6 55/2/6 60/2/6
f 56/1/6 57/1/6 60/1/6
f 57/1/6 58/1/6 60/1/6
f 58/2/6 30/2/6 61/2/6
f 60/1/6 58/1/6 61/1/6
f 61/2/6 30/2/6 62/2/6
f 29/2/6 59/2/6 63/2/6
f 59/1/6 60/1/6 64/1/6
f 63/2/6 59/2/6 64/2/6
f 60/1/6 61/1/6 64/1/6
f 61/1/6 62/1/6 64/1/6
f 29/2/6 63/2/6 65/2/6
f 63/1/6 64/1/6 66/1/6
f 65/2/6 63/2/6 66/2/6
f 62/2/6 30/2/6 67/2/6
f 66/1/6 64/1/6 67/1/6
f 64/1/6 62/1/6 67/1/6
f 67/2/6 30/2/6 68/2/6
f 29/2/6 65/2/6 69/2/6
f 65/1/6 66/1/6 70/1/6
f 69/2/6 65/2/6 70/2/6
f 66/1/6 67/1/6 70/1/6
f 67/1/6 68/1/6 70/1/6
f 29/2/6 69/2/6 71/2/6
f 69/1/6 70/1/6 72/1/6
f 71/2/6 69/2/6 72/2/6
f 29/2/6 71/2/6 73/2/6
f 71/1/6 72/1/6 74/1/6
f 73/2/6 71/2/6 74/2/6
f 70/1/6 68/1/6 75/1/6
f 74/1/6 72/1/6 75/1/6
f 68/2/6 30/2/6 75/2/6
f 72/1/6 70/1/6 75/1/6
f 75/2/6 30/2/6 76/2/6
f 29/2/6 73/2/6 77/2/6
f 73/1/6 74/1/6 78/1/6
f 77/2/6 73/2/6 78/2/6
f 74/1/6 75/1/6 78/1/6
f 75/1/6 76/1/6 78/1/6
f 29/2/6 77/2/6 79/2/6
f 77/1/6 78/1/6 80/1/6
f 79/2/6 77/2/6 80/2/6
f 78/1/6 76/1/6 81/1/6
f 80/1/6 78/1/6 81/1/6
f 76/2/6 30/2/6 81/2/6
f 81/2/6 30/2/6 82/2/6
f 29/2/6 79/2/6 83/2/6
f 79/1/6 80/1/6 84/1/6
f 83/2/6 79/2/6 84/2/6
f 80/1/6 81/1/6 84/1/6
f 81/1/6 82/1/6 84/1/6
f 29/2/6 83/2/6 85/2/6
f 83/1/6 84/1/6 86/1/6
f 85/2/6 83/2/6 86/2/6
f 84/1/6 82/1/6 87/1/6
f 86/1/6 84/1/6 87/1/6
f 82/2/6 30/2/6 87/2/6
f 87/2/6 30/2/6 88/2/6
f 29/2/6 85/2/6 89/2/6
f 85/1/6 86/1/6 90/1/6
f 89/2/6 85/2/6 90/2/6
f 86/1/6 87/1/6 90/1/6
f 87/1/6 88/1/6 90/1/6
f 88/2/6 30/2/6 91/2/6
f 90/1/6 88/1/6 91/1/6
f 91/2/6 30/2/6 92/2/6
f 29/2/6 89/2/6 93/2/6
f 89/1/6 90/1/6 94/1/6
f 93/2/6 89/2/6 94/2/6
f 90/1/6 91/1/6 94/1/6
f 91/1/6 92/1/6 94/1/6
f 92/2/6 30/2/6 95/2/6
f 94/1/6 92/1/6 95/1/6
f 95/2/6 30/2/6 96/2/6
f 29/2/6 93/2/6 97/2/6
f 93/1/6 94/1/6 98/1/6
f 97/2/6 93/2/6 98/2/6
f 94/1/6 95/1/6 98/1/6
f 95/1/6 96/1/6 98/1/6
f 96/2/6 30/2/6 99/2/6
f 98/1/6 96/1/6 99/1/6
f 99/2/6 30/2/6 100/2/6
f 29/2/6 97/2/6 101/2/6
f 97/1/6 98/1/6 102/1/6
f 101/2/6 97/2/6 102/2/6
f 98/1/6 99/1/6 102/1/6
f 99/1/6 100/1/6 102/1/6
f 100/2/6 30/2/6 103/2/6
f 102/1/6 100/1/6 103/1/6
f 103/2/6 30/2/6 104/2/6
f 29/2/6 101/2/6 105/2/6
f 101/1/6 102/1/6 106/1/6
f 105/2/6 101/2/6 106/2/6
f 102/1/6 103/1/6 106/1/6
f 103/1/6 104/1/6 106/1/6
f 104/2/6 30/2/6 107/2/6
f 106/1/6 104/1/6 107/1/6
f 107/2/6 30/2/6 108/2/6
f 105/1/6 106/1/6 109/1/6
f 108/2/6 30/2/6 109/2/6
f 107/1/6 108/1/6 109/1/6
f 106/1/6 107/1/6 109/1/6
f 109/2/6 30/2/6 110/2/6
f 105/1/6 109/1/6 111/1/6
f 109/1/6 110/1/6 111/1/6
f 111/1/6 110/1/6 112/1/6
