# MagicaVoxel @ Ephtracy

# group
g map-74

# material
mtllib map-74.mtl
usemtl palette

# normals
vn -1 0 0
vn 1 0 0
vn 0 0 1
vn 0 0 -1
vn 0 -1 0
vn 0 1 0

# texcoords
vt 0.798828 0.5
vt 0.912109 0.5

# verts
v -63 0 63
v -63 0 -63
v -63 5 -27
v -63 5 -63
v -63 13 63
v -63 13 -27
v -63 13 -63
v 63 0 63
v 63 0 -63
v 63 13 63
v 63 13 -63
v -63 0 63
v -63 13 63
v 63 0 63
v 63 13 63
v -63 0 -63
v -63 5 -63
v -63 13 -63
v -3 5 -63
v -3 13 -63
v 63 0 -63
v 63 13 -63
v -63 0 63
v 63 0 63
v -63 0 -63
v 63 0 -63
v -63 13 63
v 63 13 63
v -31 13 -18
v -9 13 -18
v -32 13 -19
v -31 13 -19
v -9 13 -19
v -6 13 -19
v -35 13 -20
v -32 13 -20
v -6 13 -20
v -5 13 -20
v -38 13 -21
v -35 13 -21
v -5 13 -21
v -4 13 -21
v -39 13 -22
v -38 13 -22
v -4 13 -22
v -3 13 -22
v -41 13 -23
v -39 13 -23
v -43 13 -24
v -41 13 -24
v -3 13 -24
v -1 13 -24
v -44 13 -25
v -43 13 -25
v -47 13 -26
v -44 13 -26
v -1 13 -26
v 0 13 -26
v -63 13 -27
v -47 13 -27
v 0 13 -29
v 1 13 -29
v 1 13 -31
v 2 13 -31
v 1 13 -47
v 2 13 -47
v 0 13 -53
v 1 13 -53
v -1 13 -57
v 0 13 -57
v -2 13 -60
v -1 13 -60
v -3 13 -62
v -2 13 -62
v -63 13 -63
v -3 13 -63
v 63 13 -63

# faces
f 3/2/1 2/2/1 1/2/1
f 4/2/1 2/2/1 3/2/1
f 5/2/1 3/2/1 1/2/1
f 6/1/1 4/1/1 3/1/1
f 6/2/1 3/2/1 5/2/1
f 7/1/1 4/1/1 6/1/1
f 8/2/2 9/2/2 10/2/2
f 10/2/2 9/2/2 11/2/2
f 14/2/3 13/2/3 12/2/3
f 15/2/3 13/2/3 14/2/3
f 16/2/4 17/2/4 19/2/4
f 17/1/4 18/1/4 19/1/4
f 19/1/4 18/1/4 20/1/4
f 16/2/4 19/2/4 21/2/4
f 19/2/4 20/2/4 21/2/4
f 21/2/4 20/2/4 22/2/4
f 25/2/5 24/2/5 23/2/5
f 26/2/5 24/2/5 25/2/5
f 27/2/6 28/2/6 29/2/6
f 29/2/6 28/2/6 30/2/6
f 27/2/6 29/2/6 31/2/6
f 29/1/6 30/1/6 32/1/6
f 31/2/6 29/2/6 32/2/6
f 30/2/6 28/2/6 33/2/6
f 32/1/6 30/1/6 33/1/6
f 33/2/6 28/2/6 34/2/6
f 27/2/6 31/2/6 35/2/6
f 31/1/6 32/1/6 36/1/6
f 35/2/6 31/2/6 36/2/6
f 32/1/6 33/1/6 36/1/6
f 33/1/6 34/1/6 36/1/6
f 34/2/6 28/2/6 37/2/6
f 36/1/6 34/1/6 37/1/6
f 37/2/6 28/2/6 38/2/6
f 27/2/6 35/2/6 39/2/6
f 35/1/6 36/1/6 40/1/6
f 39/2/6 35/2/6 40/2/6
f 36/1/6 37/1/6 40/1/6
f 37/1/6 38/1/6 40/1/6
f 38/2/6 28/2/6 41/2/6
f 40/1/6 38/1/6 41/1/6
f 41/2/6 28/2/6 42/2/6
f 27/2/6 39/2/6 43/2/6
f 39/1/6 40/1/6 44/1/6
f 43/2/6 39/2/6 44/2/6
f 40/1/6 41/1/6 44/1/6
f 41/1/6 42/1/6 44/1/6
f 42/2/6 28/2/6 45/2/6
f 44/1/6 42/1/6 45/1/6
f 45/2/6 28/2/6 46/2/6
f 27/2/6 43/2/6 47/2/6
f 43/1/6 44/1/6 48/1/6
f 47/2/6 43/2/6 48/2/6
f 44/1/6 45/1/6 48/1/6
f 45/1/6 46/1/6 48/1/6
f 27/2/6 47/2/6 49/2/6
f 47/1/6 48/1/6 50/1/6
f 49/2/6 47/2/6 50/2/6
f 46/2/6 28/2/6 51/2/6
f 50/1/6 48/1/6 51/1/6
f 48/1/6 46/1/6 51/1/6
f 51/2/6 28/2/6 52/2/6
f 27/2/6 49/2/6 53/2/6
f 49/1/6 50/1/6 54/1/6
f 53/2/6 49/2/6 54/2/6
f 50/1/6 51/1/6 54/1/6
f 51/1/6 52/1/6 54/1/6
f 27/2/6 53/2/6 55/2/6
f 53/1/6 54/1/6 56/1/6
f 55/2/6 53/2/6 56/2/6
f 54/1/6 52/1/6 57/1/6
f 56/1/6 54/1/6 57/1/6
f 52/2/6 28/2/6 57/2/6
f 57/2/6 28/2/6 58/2/6
f 27/2/6 55/2/6 59/2/6
f 55/1/6 56/1/6 60/1/6
f 59/2/6 55/2/6 60/2/6
f 56/1/6 57/1/6 60/1/6
f 57/1/6 58/1/6 60/1/6
f 58/2/6 28/2/6 61/2/6
f 60/1/6 58/1/6 61/1/6
f 59/1/6 60/1/6 61/1/6
f 61/2/6 28/2/6 62/2/6
f 61/1/6 62/1/6 63/1/6
f 62/2/6 28/2/6 63/2/6
f 63/2/6 28/2/6 64/2/6
f 61/1/6 63/1/6 65/1/6
f 63/1/6 64/1/6 65/1/6
f 64/2/6 28/2/6 66/2/6
f 65/1/6 64/1/6 66/1/6
f 59/1/6 61/1/6 67/1/6
f 61/1/6 65/1/6 67/1/6
f 65/2/6 66/2/6 68/2/6
f 67/1/6 65/1/6 68/1/6
f 59/1/6 67/1/6 69/1/6
f 67/2/6 68/2/6 70/2/6
f 69/1/6 67/1/6 70/1/6
f 59/1/6 69/1/6 71/1/6
f 69/2/6 70/2/6 72/2/6
f 71/1/6 69/1/6 72/1/6
f 59/1/6 71/1/6 73/1/6
f 71/2/6 72/2/6 74/2/6
f 73/1/6 71/1/6 74/1/6
f 59/1/6 73/1/6 75/1/6
f 73/2/6 74/2/6 76/2/6
f 75/1/6 73/1/6 76/1/6
f 66/2/6 28/2/6 77/2/6
f 76/2/6 74/2/6 77/2/6
f 68/2/6 66/2/6 77/2/6
f 70/2/6 68/2/6 77/2/6
f 74/2/6 72/2/6 77/2/6
f 72/2/6 70/2/6 77/2/6
