# MagicaVoxel @ Ephtracy

# group
g map-72

# material
mtllib map-72.mtl
usemtl palette

# normals
vn -1 0 0
vn 1 0 0
vn 0 0 1
vn 0 0 -1
vn 0 -1 0
vn 0 1 0

# texcoords
vt 0.798828 0.5
vt 0.912109 0.5

# verts
v -63 0 63
v -63 0 -63
v -63 5 63
v -63 5 -7
v -63 13 63
v -63 13 -7
v -63 13 -63
v 63 0 63
v 63 0 -63
v 63 13 63
v 63 13 -63
v -63 0 63
v -63 5 63
v -63 13 63
v -4 5 63
v -4 13 63
v 63 0 63
v 63 13 63
v -63 0 -63
v -63 13 -63
v 63 0 -63
v 63 13 -63
v -63 0 63
v 63 0 63
v -63 0 -63
v 63 0 -63
v -63 13 63
v -4 13 63
v 63 13 63
v -5 13 58
v -4 13 58
v -7 13 57
v -5 13 57
v -9 13 56
v -7 13 56
v -10 13 54
v -9 13 54
v -12 13 53
v -10 13 53
v -13 13 52
v -12 13 52
v -14 13 51
v -13 13 51
v -15 13 50
v -14 13 50
v -16 13 49
v -15 13 49
v -17 13 48
v -16 13 48
v -18 13 46
v -17 13 46
v -19 13 43
v -18 13 43
v -19 13 40
v -18 13 40
v -18 13 38
v -17 13 38
v -17 13 36
v -15 13 36
v -15 13 34
v -14 13 34
v -14 13 33
v -11 13 33
v -11 13 32
v -9 13 32
v -9 13 31
v -6 13 31
v -6 13 30
v -4 13 30
v -4 13 29
v -3 13 29
v -3 13 28
v -1 13 28
v -1 13 27
v 2 13 27
v 2 13 26
v 3 13 26
v 3 13 25
v 4 13 25
v 4 13 24
v 6 13 24
v 6 13 23
v 7 13 23
v 7 13 22
v 8 13 22
v 8 13 20
v 9 13 20
v 9 13 19
v 10 13 19
v 10 13 16
v 11 13 16
v 11 13 13
v 12 13 13
v 12 13 3
v 13 13 3
v -63 13 -7
v -58 13 -7
v -58 13 -8
v -57 13 -8
v -57 13 -9
v -53 13 -9
v -53 13 -10
v -50 13 -10
v -50 13 -11
v -48 13 -11
v 12 13 -11
v 13 13 -11
v -48 13 -12
v -45 13 -12
v 11 13 -12
v 12 13 -12
v -45 13 -13
v -42 13 -13
v -42 13 -14
v -41 13 -14
v -41 13 -15
v -39 13 -15
v 10 13 -15
v 11 13 -15
v -39 13 -16
v -37 13 -16
v -37 13 -17
v -36 13 -17
v -36 13 -18
v -34 13 -18
v 9 13 -18
v 10 13 -18
v -34 13 -19
v -33 13 -19
v 7 13 -19
v 9 13 -19
v -33 13 -20
v -32 13 -20
v 5 13 -20
v 7 13 -20
v -32 13 -21
v -30 13 -21
v 4 13 -21
v 5 13 -21
v -30 13 -22
v -28 13 -22
v 1 13 -22
v 4 13 -22
v -28 13 -23
v -25 13 -23
v 0 13 -23
v 1 13 -23
v -25 13 -24
v 0 13 -24
v -63 13 -63
v 63 13 -63

# faces
f 3/2/1 2/2/1 1/2/1
f 4/2/1 2/2/1 3/2/1
f 5/1/1 4/1/1 3/1/1
f 6/2/1 2/2/1 4/2/1
f 6/1/1 4/1/1 5/1/1
f 7/2/1 2/2/1 6/2/1
f 8/2/2 9/2/2 10/2/2
f 10/2/2 9/2/2 11/2/2
f 15/2/3 13/2/3 12/2/3
f 15/1/3 14/1/3 13/1/3
f 16/1/3 14/1/3 15/1/3
f 17/2/3 15/2/3 12/2/3
f 17/2/3 16/2/3 15/2/3
f 18/2/3 16/2/3 17/2/3
f 19/2/4 20/2/4 21/2/4
f 21/2/4 20/2/4 22/2/4
f 25/2/5 24/2/5 23/2/5
f 26/2/5 24/2/5 25/2/5
f 27/1/6 28/1/6 30/1/6
f 28/2/6 29/2/6 31/2/6
f 30/1/6 28/1/6 31/1/6
f 27/1/6 30/1/6 32/1/6
f 30/2/6 31/2/6 33/2/6
f 32/1/6 30/1/6 33/1/6
f 27/1/6 32/1/6 34/1/6
f 32/2/6 33/2/6 35/2/6
f 34/1/6 32/1/6 35/1/6
f 27/1/6 34/1/6 36/1/6
f 34/2/6 35/2/6 37/2/6
f 36/1/6 34/1/6 37/1/6
f 27/1/6 36/1/6 38/1/6
f 36/2/6 37/2/6 39/2/6
f 38/1/6 36/1/6 39/1/6
f 27/1/6 38/1/6 40/1/6
f 38/2/6 39/2/6 41/2/6
f 40/1/6 38/1/6 41/1/6
f 27/1/6 40/1/6 42/1/6
f 40/2/6 41/2/6 43/2/6
f 42/1/6 40/1/6 43/1/6
f 27/1/6 42/1/6 44/1/6
f 42/2/6 43/2/6 45/2/6
f 44/1/6 42/1/6 45/1/6
f 27/1/6 44/1/6 46/1/6
f 44/2/6 45/2/6 47/2/6
f 46/1/6 44/1/6 47/1/6
f 27/1/6 46/1/6 48/1/6
f 46/2/6 47/2/6 49/2/6
f 48/1/6 46/1/6 49/1/6
f 27/1/6 48/1/6 50/1/6
f 48/2/6 49/2/6 51/2/6
f 50/1/6 48/1/6 51/1/6
f 27/1/6 50/1/6 52/1/6
f 50/2/6 51/2/6 53/2/6
f 52/1/6 50/1/6 53/1/6
f 27/1/6 52/1/6 54/1/6
f 52/2/6 53/2/6 54/2/6
f 53/2/6 51/2/6 55/2/6
f 54/2/6 53/2/6 55/2/6
f 54/1/6 55/1/6 56/1/6
f 55/2/6 51/2/6 56/2/6
f 51/2/6 49/2/6 57/2/6
f 56/2/6 51/2/6 57/2/6
f 56/1/6 57/1/6 58/1/6
f 57/2/6 49/2/6 58/2/6
f 47/2/6 45/2/6 59/2/6
f 58/2/6 49/2/6 59/2/6
f 49/2/6 47/2/6 59/2/6
f 58/1/6 59/1/6 60/1/6
f 59/2/6 45/2/6 60/2/6
f 45/2/6 43/2/6 61/2/6
f 60/2/6 45/2/6 61/2/6
f 60/1/6 61/1/6 62/1/6
f 61/2/6 43/2/6 62/2/6
f 41/2/6 39/2/6 63/2/6
f 62/2/6 43/2/6 63/2/6
f 43/2/6 41/2/6 63/2/6
f 62/1/6 63/1/6 64/1/6
f 63/2/6 39/2/6 64/2/6
f 37/2/6 35/2/6 65/2/6
f 64/2/6 39/2/6 65/2/6
f 39/2/6 37/2/6 65/2/6
f 64/1/6 65/1/6 66/1/6
f 65/2/6 35/2/6 66/2/6
f 35/2/6 33/2/6 67/2/6
f 66/2/6 35/2/6 67/2/6
f 66/1/6 67/1/6 68/1/6
f 67/2/6 33/2/6 68/2/6
f 31/2/6 29/2/6 69/2/6
f 68/2/6 33/2/6 69/2/6
f 33/2/6 31/2/6 69/2/6
f 68/1/6 69/1/6 70/1/6
f 69/2/6 29/2/6 70/2/6
f 70/2/6 29/2/6 71/2/6
f 70/1/6 71/1/6 72/1/6
f 71/2/6 29/2/6 72/2/6
f 72/2/6 29/2/6 73/2/6
f 72/1/6 73/1/6 74/1/6
f 73/2/6 29/2/6 74/2/6
f 74/2/6 29/2/6 75/2/6
f 74/1/6 75/1/6 76/1/6
f 75/2/6 29/2/6 76/2/6
f 76/2/6 29/2/6 77/2/6
f 76/1/6 77/1/6 78/1/6
f 77/2/6 29/2/6 78/2/6
f 78/2/6 29/2/6 79/2/6
f 78/1/6 79/1/6 80/1/6
f 79/2/6 29/2/6 80/2/6
f 80/2/6 29/2/6 81/2/6
f 80/1/6 81/1/6 82/1/6
f 81/2/6 29/2/6 82/2/6
f 82/2/6 29/2/6 83/2/6
f 82/1/6 83/1/6 84/1/6
f 83/2/6 29/2/6 84/2/6
f 84/2/6 29/2/6 85/2/6
f 84/1/6 85/1/6 86/1/6
f 85/2/6 29/2/6 86/2/6
f 86/2/6 29/2/6 87/2/6
f 86/1/6 87/1/6 88/1/6
f 87/2/6 29/2/6 88/2/6
f 88/2/6 29/2/6 89/2/6
f 88/1/6 89/1/6 90/1/6
f 89/2/6 29/2/6 90/2/6
f 90/2/6 29/2/6 91/2/6
f 90/1/6 91/1/6 92/1/6
f 91/2/6 29/2/6 92/2/6
f 92/2/6 29/2/6 93/2/6
f 92/1/6 93/1/6 94/1/6
f 93/2/6 29/2/6 94/2/6
f 94/2/6 29/2/6 95/2/6
f 66/1/6 68/1/6 96/1/6
f 56/1/6 58/1/6 96/1/6
f 94/1/6 95/1/6 96/1/6
f 92/1/6 94/1/6 96/1/6
f 90/1/6 92/1/6 96/1/6
f 88/1/6 90/1/6 96/1/6
f 86/1/6 88/1/6 96/1/6
f 84/1/6 86/1/6 96/1/6
f 82/1/6 84/1/6 96/1/6
f 80/1/6 82/1/6 96/1/6
f 78/1/6 80/1/6 96/1/6
f 76/1/6 78/1/6 96/1/6
f 74/1/6 76/1/6 96/1/6
f 72/1/6 74/1/6 96/1/6
f 70/1/6 72/1/6 96/1/6
f 68/1/6 70/1/6 96/1/6
f 58/1/6 60/1/6 96/1/6
f 54/1/6 56/1/6 96/1/6
f 60/1/6 62/1/6 96/1/6
f 27/1/6 54/1/6 96/1/6
f 62/1/6 64/1/6 96/1/6
f 64/1/6 66/1/6 96/1/6
f 96/1/6 95/1/6 97/1/6
f 96/2/6 97/2/6 98/2/6
f 97/1/6 95/1/6 98/1/6
f 98/1/6 95/1/6 99/1/6
f 98/2/6 99/2/6 100/2/6
f 99/1/6 95/1/6 100/1/6
f 100/1/6 95/1/6 101/1/6
f 100/2/6 101/2/6 102/2/6
f 101/1/6 95/1/6 102/1/6
f 102/1/6 95/1/6 103/1/6
f 102/2/6 103/2/6 104/2/6
f 103/1/6 95/1/6 104/1/6
f 104/1/6 95/1/6 105/1/6
f 105/1/6 95/1/6 106/1/6
f 95/2/6 29/2/6 107/2/6
f 106/1/6 95/1/6 107/1/6
f 105/1/6 106/1/6 108/1/6
f 104/2/6 105/2/6 108/2/6
f 108/1/6 106/1/6 109/1/6
f 109/1/6 106/1/6 110/1/6
f 106/2/6 107/2/6 111/2/6
f 110/1/6 106/1/6 111/1/6
f 109/1/6 110/1/6 112/1/6
f 108/2/6 109/2/6 112/2/6
f 112/1/6 110/1/6 113/1/6
f 112/2/6 113/2/6 114/2/6
f 113/1/6 110/1/6 114/1/6
f 114/1/6 110/1/6 115/1/6
f 114/2/6 115/2/6 116/2/6
f 115/1/6 110/1/6 116/1/6
f 116/1/6 110/1/6 117/1/6
f 117/1/6 110/1/6 118/1/6
f 110/2/6 111/2/6 119/2/6
f 118/1/6 110/1/6 119/1/6
f 117/1/6 118/1/6 120/1/6
f 116/2/6 117/2/6 120/2/6
f 120/1/6 118/1/6 121/1/6
f 120/2/6 121/2/6 122/2/6
f 121/1/6 118/1/6 122/1/6
f 122/1/6 118/1/6 123/1/6
f 122/2/6 123/2/6 124/2/6
f 123/1/6 118/1/6 124/1/6
f 124/1/6 118/1/6 125/1/6
f 125/1/6 118/1/6 126/1/6
f 118/2/6 119/2/6 127/2/6
f 126/1/6 118/1/6 127/1/6
f 125/1/6 126/1/6 128/1/6
f 124/2/6 125/2/6 128/2/6
f 128/1/6 126/1/6 129/1/6
f 129/1/6 126/1/6 130/1/6
f 126/2/6 127/2/6 131/2/6
f 130/1/6 126/1/6 131/1/6
f 129/1/6 130/1/6 132/1/6
f 128/2/6 129/2/6 132/2/6
f 132/1/6 130/1/6 133/1/6
f 133/1/6 130/1/6 134/1/6
f 130/2/6 131/2/6 135/2/6
f 134/1/6 130/1/6 135/1/6
f 133/1/6 134/1/6 136/1/6
f 132/2/6 133/2/6 136/2/6
f 136/1/6 134/1/6 137/1/6
f 137/1/6 134/1/6 138/1/6
f 134/2/6 135/2/6 139/2/6
f 138/1/6 134/1/6 139/1/6
f 137/1/6 138/1/6 140/1/6
f 136/2/6 137/2/6 140/2/6
f 140/1/6 138/1/6 141/1/6
f 141/1/6 138/1/6 142/1/6
f 138/2/6 139/2/6 143/2/6
f 142/1/6 138/1/6 143/1/6
f 141/1/6 142/1/6 144/1/6
f 140/2/6 141/2/6 144/2/6
f 144/1/6 142/1/6 145/1/6
f 145/1/6 142/1/6 146/1/6
f 142/2/6 143/2/6 147/2/6
f 146/1/6 142/1/6 147/1/6
f 145/1/6 146/1/6 148/1/6
f 144/2/6 145/2/6 148/2/6
f 146/2/6 147/2/6 149/2/6
f 148/1/6 146/1/6 149/1/6
f 96/2/6 98/2/6 150/2/6
f 98/2/6 100/2/6 150/2/6
f 148/2/6 149/2/6 150/2/6
f 144/2/6 148/2/6 150/2/6
f 140/2/6 144/2/6 150/2/6
f 100/2/6 102/2/6 150/2/6
f 136/2/6 140/2/6 150/2/6
f 102/2/6 104/2/6 150/2/6
f 132/2/6 136/2/6 150/2/6
f 104/2/6 108/2/6 150/2/6
f 128/2/6 132/2/6 150/2/6
f 108/2/6 112/2/6 150/2/6
f 124/2/6 128/2/6 150/2/6
f 112/2/6 114/2/6 150/2/6
f 122/2/6 124/2/6 150/2/6
f 120/2/6 122/2/6 150/2/6
f 116/2/6 120/2/6 150/2/6
f 114/2/6 116/2/6 150/2/6
f 107/2/6 29/2/6 151/2/6
f 150/2/6 149/2/6 151/2/6
f 149/2/6 147/2/6 151/2/6
f 127/2/6 119/2/6 151/2/6
f 131/2/6 127/2/6 151/2/6
f 119/2/6 111/2/6 151/2/6
f 135/2/6 131/2/6 151/2/6
f 111/2/6 107/2/6 151/2/6
f 139/2/6 135/2/6 151/2/6
f 143/2/6 139/2/6 151/2/6
f 147/2/6 143/2/6 151/2/6
