# MagicaVoxel @ Ephtracy

# group
g map-38

# material
mtllib map-38.mtl
usemtl palette

# normals
vn -1 0 0
vn 1 0 0
vn 0 0 1
vn 0 0 -1
vn 0 -1 0
vn 0 1 0

# texcoords
vt 0.201172 0.5
vt 0.205078 0.5
vt 0.912109 0.5
vt 0.962891 0.5

# verts
v -63 0 63
v -63 0 -63
v -63 13 63
v -63 13 -63
v 63 0 63
v 63 0 55
v 63 0 17
v 63 0 -47
v 63 0 -63
v 63 11 -14
v 63 11 -15
v 63 12 60
v 63 12 55
v 63 12 17
v 63 12 4
v 63 12 -14
v 63 12 -15
v 63 12 -30
v 63 12 -47
v 63 12 -63
v 63 13 63
v 63 13 60
v 63 13 55
v 63 13 4
v 63 13 -30
v 63 13 -63
v -63 0 63
v -63 13 63
v 23 12 63
v 23 13 63
v 25 12 63
v 25 13 63
v 30 0 63
v 30 12 63
v 57 0 63
v 57 12 63
v 57 13 63
v 60 12 63
v 60 13 63
v 63 0 63
v 63 13 63
v -63 0 -63
v -63 13 -63
v 41 12 -63
v 41 13 -63
v 42 0 -63
v 42 12 -63
v 42 13 -63
v 63 0 -63
v 63 12 -63
v 63 13 -63
v -63 0 63
v 30 0 63
v 57 0 63
v 63 0 63
v 57 0 62
v 59 0 62
v 59 0 59
v 60 0 59
v 60 0 57
v 61 0 57
v 61 0 55
v 63 0 55
v 30 0 52
v 31 0 52
v 31 0 51
v 33 0 51
v 33 0 48
v 34 0 48
v 34 0 47
v 35 0 47
v 35 0 46
v 36 0 46
v 36 0 44
v 37 0 44
v 37 0 42
v 39 0 42
v 39 0 39
v 40 0 39
v 40 0 38
v 41 0 38
v 41 0 35
v 43 0 35
v 43 0 32
v 44 0 32
v 44 0 28
v 46 0 28
v 46 0 25
v 47 0 25
v 47 0 24
v 49 0 24
v 49 0 21
v 50 0 21
v 50 0 17
v 63 0 17
v 42 0 -47
v 63 0 -47
v -63 0 -63
v 42 0 -63
v 63 0 -63
v -63 13 63
v 23 13 63
v 25 13 63
v 57 13 63
v 60 13 63
v 63 13 63
v 23 13 62
v 24 13 62
v 25 13 62
v 26 13 62
v 57 13 62
v 58 13 62
v 60 13 62
v 61 13 62
v 24 13 61
v 25 13 61
v 26 13 61
v 27 13 61
v 58 13 61
v 59 13 61
v 61 13 61
v 62 13 61
v 27 13 60
v 28 13 60
v 62 13 60
v 63 13 60
v 25 13 59
v 26 13 59
v 59 13 59
v 60 13 59
v 28 13 58
v 29 13 58
v 26 13 57
v 28 13 57
v 60 13 57
v 61 13 57
v 29 13 56
v 30 13 56
v 28 13 55
v 29 13 55
v 30 13 55
v 31 13 55
v 61 13 55
v 63 13 55
v 29 13 53
v 30 13 53
v 31 13 53
v 32 13 53
v 32 13 51
v 33 13 51
v 30 13 50
v 31 13 50
v 33 13 50
v 34 13 50
v 31 13 48
v 32 13 48
v 34 13 48
v 35 13 48
v 32 13 47
v 33 13 47
v 33 13 46
v 34 13 46
v 35 13 46
v 36 13 46
v 36 13 45
v 37 13 45
v 34 13 44
v 35 13 44
v 35 13 43
v 36 13 43
v 37 13 43
v 38 13 43
v 36 13 42
v 37 13 42
v 38 13 42
v 39 13 42
v 39 13 40
v 40 13 40
v 37 13 39
v 38 13 39
v 40 13 39
v 41 13 39
v 41 13 38
v 42 13 38
v 38 13 37
v 39 13 37
v 42 13 36
v 43 13 36
v 39 13 35
v 42 13 35
v 43 13 34
v 44 13 34
v 42 13 33
v 43 13 33
v 44 13 33
v 45 13 33
v 43 13 31
v 44 13 31
v 45 13 31
v 46 13 31
v 44 13 30
v 45 13 30
v 46 13 30
v 47 13 30
v 47 13 28
v 48 13 28
v 45 13 27
v 46 13 27
v 46 13 26
v 47 13 26
v 48 13 26
v 49 13 26
v 46 13 25
v 47 13 25
v 49 13 25
v 50 13 25
v 46 13 24
v 47 13 24
v 47 13 23
v 48 13 23
v 50 13 23
v 51 13 23
v 48 13 22
v 49 13 22
v 51 13 22
v 52 13 22
v 49 13 21
v 50 13 21
v 52 13 20
v 53 13 20
v 53 13 19
v 54 13 19
v 50 13 18
v 51 13 18
v 51 13 17
v 52 13 17
v 52 13 16
v 53 13 16
v 54 13 16
v 55 13 16
v 55 13 15
v 56 13 15
v 53 13 14
v 54 13 14
v 57 13 14
v 58 13 14
v 54 13 13
v 55 13 13
v 56 13 13
v 57 13 13
v 55 13 12
v 56 13 12
v 58 13 12
v 59 13 12
v 56 13 10
v 57 13 10
v 59 13 10
v 60 13 10
v 57 13 9
v 58 13 9
v 60 13 9
v 61 13 9
v 58 13 7
v 59 13 7
v 59 13 6
v 60 13 6
v 61 13 6
v 62 13 6
v 62 13 4
v 63 13 4
v 60 13 3
v 61 13 3
v 61 13 -17
v 62 13 -17
v 61 13 -19
v 62 13 -19
v 60 13 -29
v 61 13 -29
v 62 13 -30
v 63 13 -30
v 59 13 -33
v 60 13 -33
v 61 13 -33
v 62 13 -33
v 60 13 -36
v 61 13 -36
v 58 13 -37
v 59 13 -37
v 57 13 -39
v 58 13 -39
v 59 13 -39
v 60 13 -39
v 56 13 -41
v 57 13 -41
v 58 13 -41
v 59 13 -41
v 55 13 -42
v 56 13 -42
v 57 13 -43
v 58 13 -43
v 54 13 -44
v 55 13 -44
v 56 13 -44
v 57 13 -44
v 55 13 -45
v 56 13 -45
v 53 13 -46
v 54 13 -46
v 54 13 -47
v 55 13 -47
v 52 13 -48
v 53 13 -48
v 51 13 -49
v 52 13 -49
v 50 13 -50
v 51 13 -50
v 52 13 -50
v 54 13 -50
v 49 13 -52
v 50 13 -52
v 48 13 -53
v 49 13 -53
v 51 13 -53
v 52 13 -53
v 47 13 -54
v 48 13 -54
v 50 13 -54
v 51 13 -54
v 49 13 -55
v 50 13 -55
v 46 13 -56
v 47 13 -56
v 48 13 -56
v 49 13 -56
v 45 13 -57
v 46 13 -57
v 47 13 -57
v 48 13 -57
v 44 13 -58
v 45 13 -58
v 46 13 -58
v 47 13 -58
v 43 13 -59
v 44 13 -59
v 45 13 -60
v 46 13 -60
v 42 13 -61
v 43 13 -61
v 44 13 -61
v 45 13 -61
v 41 13 -62
v 42 13 -62
v 44 13 -62
v -63 13 -63
v 41 13 -63
v 42 13 -63
v 63 13 -63

# faces
f 3/3/1 2/3/1 1/3/1
f 4/3/1 2/3/1 3/3/1
f 7/3/2 8/3/2 10/3/2
f 10/3/2 8/3/2 11/3/2
f 5/3/2 6/3/2 12/3/2
f 6/4/2 7/4/2 13/4/2
f 12/3/2 6/3/2 13/3/2
f 7/3/2 10/3/2 14/3/2
f 13/4/2 7/4/2 14/4/2
f 14/3/2 10/3/2 15/3/2
f 10/1/2 11/1/2 16/1/2
f 15/3/2 10/3/2 16/3/2
f 11/3/2 8/3/2 17/3/2
f 16/1/2 11/1/2 17/1/2
f 17/3/2 8/3/2 18/3/2
f 8/4/2 9/4/2 19/4/2
f 18/3/2 8/3/2 19/3/2
f 19/4/2 9/4/2 20/4/2
f 5/3/2 12/3/2 21/3/2
f 12/1/2 13/1/2 22/1/2
f 21/3/2 12/3/2 22/3/2
f 14/2/2 15/2/2 23/2/2
f 22/1/2 13/1/2 23/1/2
f 13/2/2 14/2/2 23/2/2
f 15/1/2 16/1/2 24/1/2
f 23/2/2 15/2/2 24/2/2
f 17/1/2 18/1/2 24/1/2
f 16/1/2 17/1/2 24/1/2
f 18/2/2 19/2/2 25/2/2
f 24/1/2 18/1/2 25/1/2
f 19/2/2 20/2/2 25/2/2
f 25/2/2 20/2/2 26/2/2
f 29/3/3 28/3/3 27/3/3
f 30/3/3 28/3/3 29/3/3
f 31/3/3 29/3/3 27/3/3
f 31/1/3 30/1/3 29/1/3
f 32/1/3 30/1/3 31/1/3
f 33/3/3 31/3/3 27/3/3
f 34/2/3 32/2/3 31/2/3
f 34/3/3 31/3/3 33/3/3
f 35/4/3 34/4/3 33/4/3
f 36/2/3 32/2/3 34/2/3
f 36/4/3 34/4/3 35/4/3
f 37/2/3 32/2/3 36/2/3
f 38/3/3 36/3/3 35/3/3
f 38/1/3 37/1/3 36/1/3
f 39/1/3 37/1/3 38/1/3
f 40/3/3 38/3/3 35/3/3
f 40/3/3 39/3/3 38/3/3
f 41/3/3 39/3/3 40/3/3
f 42/3/4 43/3/4 44/3/4
f 44/3/4 43/3/4 45/3/4
f 42/3/4 44/3/4 46/3/4
f 44/1/4 45/1/4 47/1/4
f 46/3/4 44/3/4 47/3/4
f 47/1/4 45/1/4 48/1/4
f 46/4/4 47/4/4 49/4/4
f 47/2/4 48/2/4 50/2/4
f 49/4/4 47/4/4 50/4/4
f 50/2/4 48/2/4 51/2/4
f 56/4/5 54/4/5 53/4/5
f 56/3/5 55/3/5 54/3/5
f 57/3/5 55/3/5 56/3/5
f 58/4/5 57/4/5 56/4/5
f 58/3/5 55/3/5 57/3/5
f 59/3/5 55/3/5 58/3/5
f 60/4/5 59/4/5 58/4/5
f 60/3/5 55/3/5 59/3/5
f 61/3/5 55/3/5 60/3/5
f 62/4/5 61/4/5 60/4/5
f 62/3/5 55/3/5 61/3/5
f 63/3/5 55/3/5 62/3/5
f 64/3/5 53/3/5 52/3/5
f 64/4/5 56/4/5 53/4/5
f 64/4/5 63/4/5 62/4/5
f 64/4/5 62/4/5 60/4/5
f 64/4/5 60/4/5 58/4/5
f 64/4/5 58/4/5 56/4/5
f 65/4/5 63/4/5 64/4/5
f 66/3/5 65/3/5 64/3/5
f 66/4/5 63/4/5 65/4/5
f 67/4/5 63/4/5 66/4/5
f 68/3/5 67/3/5 66/3/5
f 68/4/5 63/4/5 67/4/5
f 69/4/5 63/4/5 68/4/5
f 70/3/5 69/3/5 68/3/5
f 70/4/5 63/4/5 69/4/5
f 71/4/5 63/4/5 70/4/5
f 72/3/5 71/3/5 70/3/5
f 72/4/5 63/4/5 71/4/5
f 73/4/5 63/4/5 72/4/5
f 74/3/5 73/3/5 72/3/5
f 74/4/5 63/4/5 73/4/5
f 75/4/5 63/4/5 74/4/5
f 76/3/5 75/3/5 74/3/5
f 76/4/5 63/4/5 75/4/5
f 77/4/5 63/4/5 76/4/5
f 78/3/5 77/3/5 76/3/5
f 78/4/5 63/4/5 77/4/5
f 79/4/5 63/4/5 78/4/5
f 80/3/5 79/3/5 78/3/5
f 80/4/5 63/4/5 79/4/5
f 81/4/5 63/4/5 80/4/5
f 82/3/5 81/3/5 80/3/5
f 82/4/5 63/4/5 81/4/5
f 83/4/5 63/4/5 82/4/5
f 84/3/5 83/3/5 82/3/5
f 84/4/5 63/4/5 83/4/5
f 85/4/5 63/4/5 84/4/5
f 86/3/5 85/3/5 84/3/5
f 86/4/5 63/4/5 85/4/5
f 87/4/5 63/4/5 86/4/5
f 88/3/5 87/3/5 86/3/5
f 88/4/5 63/4/5 87/4/5
f 89/4/5 63/4/5 88/4/5
f 90/3/5 89/3/5 88/3/5
f 90/4/5 63/4/5 89/4/5
f 91/4/5 63/4/5 90/4/5
f 92/3/5 91/3/5 90/3/5
f 92/4/5 63/4/5 91/4/5
f 93/4/5 63/4/5 92/4/5
f 94/3/5 93/3/5 92/3/5
f 94/4/5 63/4/5 93/4/5
f 95/4/5 63/4/5 94/4/5
f 96/3/5 84/3/5 82/3/5
f 96/3/5 86/3/5 84/3/5
f 96/3/5 95/3/5 94/3/5
f 96/3/5 94/3/5 92/3/5
f 96/3/5 92/3/5 90/3/5
f 96/3/5 90/3/5 88/3/5
f 96/3/5 88/3/5 86/3/5
f 97/3/5 95/3/5 96/3/5
f 98/3/5 64/3/5 52/3/5
f 98/3/5 66/3/5 64/3/5
f 98/3/5 68/3/5 66/3/5
f 98/3/5 96/3/5 82/3/5
f 98/3/5 70/3/5 68/3/5
f 98/3/5 82/3/5 80/3/5
f 98/3/5 80/3/5 78/3/5
f 98/3/5 78/3/5 76/3/5
f 98/3/5 76/3/5 74/3/5
f 98/3/5 74/3/5 72/3/5
f 98/3/5 72/3/5 70/3/5
f 99/4/5 97/4/5 96/4/5
f 99/3/5 96/3/5 98/3/5
f 100/4/5 97/4/5 99/4/5
f 101/3/6 102/3/6 107/3/6
f 102/1/6 103/1/6 107/1/6
f 107/1/6 103/1/6 108/1/6
f 103/2/6 104/2/6 109/2/6
f 108/1/6 103/1/6 109/1/6
f 109/2/6 104/2/6 110/2/6
f 104/1/6 105/1/6 111/1/6
f 110/2/6 104/2/6 111/2/6
f 111/1/6 105/1/6 112/1/6
f 105/3/6 106/3/6 113/3/6
f 112/1/6 105/1/6 113/1/6
f 113/3/6 106/3/6 114/3/6
f 109/1/6 110/1/6 115/1/6
f 107/3/6 108/3/6 115/3/6
f 108/1/6 109/1/6 115/1/6
f 115/1/6 110/1/6 116/1/6
f 111/2/6 112/2/6 117/2/6
f 116/1/6 110/1/6 117/1/6
f 110/2/6 111/2/6 117/2/6
f 117/2/6 112/2/6 118/2/6
f 113/1/6 114/1/6 119/1/6
f 118/2/6 112/2/6 119/2/6
f 112/1/6 113/1/6 119/1/6
f 119/1/6 114/1/6 120/1/6
f 114/3/6 106/3/6 121/3/6
f 120/1/6 114/1/6 121/1/6
f 121/3/6 106/3/6 122/3/6
f 119/2/6 120/2/6 123/2/6
f 117/1/6 118/1/6 123/1/6
f 116/1/6 117/1/6 123/1/6
f 118/2/6 119/2/6 123/2/6
f 123/2/6 120/2/6 124/2/6
f 122/3/6 106/3/6 125/3/6
f 121/1/6 122/1/6 125/1/6
f 120/1/6 121/1/6 125/1/6
f 125/3/6 106/3/6 126/3/6
f 115/3/6 116/3/6 127/3/6
f 123/1/6 124/1/6 127/1/6
f 116/1/6 123/1/6 127/1/6
f 127/1/6 124/1/6 128/1/6
f 124/2/6 120/2/6 129/2/6
f 125/1/6 126/1/6 129/1/6
f 120/1/6 125/1/6 129/1/6
f 129/1/6 126/1/6 130/1/6
f 128/1/6 124/1/6 131/1/6
f 124/2/6 129/2/6 131/2/6
f 129/2/6 130/2/6 131/2/6
f 131/2/6 130/2/6 132/2/6
f 127/3/6 128/3/6 133/3/6
f 128/1/6 131/1/6 133/1/6
f 131/1/6 132/1/6 133/1/6
f 133/1/6 132/1/6 134/1/6
f 130/1/6 126/1/6 135/1/6
f 132/2/6 130/2/6 135/2/6
f 135/1/6 126/1/6 136/1/6
f 134/1/6 132/1/6 137/1/6
f 132/2/6 135/2/6 137/2/6
f 135/2/6 136/2/6 137/2/6
f 137/2/6 136/2/6 138/2/6
f 133/3/6 134/3/6 139/3/6
f 134/1/6 137/1/6 139/1/6
f 137/1/6 138/1/6 139/1/6
f 139/1/6 138/1/6 140/1/6
f 138/2/6 136/2/6 141/2/6
f 140/1/6 138/1/6 141/1/6
f 141/2/6 136/2/6 142/2/6
f 136/1/6 126/1/6 143/1/6
f 142/2/6 136/2/6 143/2/6
f 143/1/6 126/1/6 144/1/6
f 141/1/6 142/1/6 145/1/6
f 139/3/6 140/3/6 145/3/6
f 140/1/6 141/1/6 145/1/6
f 145/1/6 142/1/6 146/1/6
f 143/2/6 144/2/6 147/2/6
f 146/1/6 142/1/6 147/1/6
f 142/2/6 143/2/6 147/2/6
f 147/2/6 144/2/6 148/2/6
f 146/1/6 147/1/6 149/1/6
f 148/2/6 144/2/6 149/2/6
f 147/1/6 148/1/6 149/1/6
f 149/2/6 144/2/6 150/2/6
f 145/3/6 146/3/6 151/3/6
f 146/1/6 149/1/6 151/1/6
f 149/1/6 150/1/6 151/1/6
f 151/1/6 150/1/6 152/1/6
f 150/2/6 144/2/6 153/2/6
f 152/1/6 150/1/6 153/1/6
f 153/2/6 144/2/6 154/2/6
f 151/3/6 152/3/6 155/3/6
f 152/1/6 153/1/6 155/1/6
f 153/1/6 154/1/6 155/1/6
f 155/1/6 154/1/6 156/1/6
f 154/2/6 144/2/6 157/2/6
f 156/1/6 154/1/6 157/1/6
f 157/2/6 144/2/6 158/2/6
f 155/3/6 156/3/6 159/3/6
f 156/1/6 157/1/6 159/1/6
f 157/1/6 158/1/6 159/1/6
f 159/1/6 158/1/6 160/1/6
f 159/3/6 160/3/6 161/3/6
f 160/1/6 158/1/6 161/1/6
f 161/1/6 158/1/6 162/1/6
f 158/2/6 144/2/6 163/2/6
f 162/1/6 158/1/6 163/1/6
f 163/2/6 144/2/6 164/2/6
f 162/1/6 163/1/6 165/1/6
f 164/2/6 144/2/6 165/2/6
f 163/1/6 164/1/6 165/1/6
f 165/2/6 144/2/6 166/2/6
f 161/3/6 162/3/6 167/3/6
f 162/1/6 165/1/6 167/1/6
f 165/1/6 166/1/6 167/1/6
f 167/1/6 166/1/6 168/1/6
f 167/3/6 168/3/6 169/3/6
f 168/1/6 166/1/6 169/1/6
f 169/1/6 166/1/6 170/1/6
f 166/2/6 144/2/6 171/2/6
f 170/1/6 166/1/6 171/1/6
f 171/2/6 144/2/6 172/2/6
f 169/3/6 170/3/6 173/3/6
f 170/1/6 171/1/6 173/1/6
f 171/1/6 172/1/6 173/1/6
f 173/1/6 172/1/6 174/1/6
f 172/2/6 144/2/6 175/2/6
f 174/1/6 172/1/6 175/1/6
f 175/2/6 144/2/6 176/2/6
f 174/1/6 175/1/6 177/1/6
f 176/2/6 144/2/6 177/2/6
f 175/1/6 176/1/6 177/1/6
f 177/2/6 144/2/6 178/2/6
f 173/3/6 174/3/6 179/3/6
f 174/1/6 177/1/6 179/1/6
f 177/1/6 178/1/6 179/1/6
f 179/1/6 178/1/6 180/1/6
f 178/2/6 144/2/6 181/2/6
f 180/1/6 178/1/6 181/1/6
f 181/2/6 144/2/6 182/2/6
f 180/1/6 181/1/6 183/1/6
f 182/2/6 144/2/6 183/2/6
f 181/1/6 182/1/6 183/1/6
f 183/2/6 144/2/6 184/2/6
f 179/3/6 180/3/6 185/3/6
f 180/1/6 183/1/6 185/1/6
f 183/1/6 184/1/6 185/1/6
f 185/1/6 184/1/6 186/1/6
f 184/2/6 144/2/6 187/2/6
f 186/1/6 184/1/6 187/1/6
f 187/2/6 144/2/6 188/2/6
f 185/3/6 186/3/6 189/3/6
f 186/1/6 187/1/6 189/1/6
f 187/1/6 188/1/6 189/1/6
f 189/1/6 188/1/6 190/1/6
f 188/2/6 144/2/6 191/2/6
f 190/1/6 188/1/6 191/1/6
f 191/2/6 144/2/6 192/2/6
f 189/3/6 190/3/6 193/3/6
f 190/1/6 191/1/6 193/1/6
f 191/1/6 192/1/6 193/1/6
f 193/1/6 192/1/6 194/1/6
f 192/2/6 144/2/6 195/2/6
f 194/1/6 192/1/6 195/1/6
f 195/2/6 144/2/6 196/2/6
f 193/3/6 194/3/6 197/3/6
f 194/1/6 195/1/6 197/1/6
f 195/1/6 196/1/6 197/1/6
f 197/1/6 196/1/6 198/1/6
f 196/2/6 144/2/6 199/2/6
f 198/1/6 196/1/6 199/1/6
f 199/2/6 144/2/6 200/2/6
f 197/3/6 198/3/6 201/3/6
f 198/1/6 199/1/6 201/1/6
f 199/1/6 200/1/6 201/1/6
f 201/1/6 200/1/6 202/1/6
f 200/2/6 144/2/6 203/2/6
f 202/1/6 200/1/6 203/1/6
f 203/2/6 144/2/6 204/2/6
f 202/1/6 203/1/6 205/1/6
f 204/2/6 144/2/6 205/2/6
f 203/1/6 204/1/6 205/1/6
f 205/2/6 144/2/6 206/2/6
f 201/3/6 202/3/6 207/3/6
f 202/1/6 205/1/6 207/1/6
f 205/1/6 206/1/6 207/1/6
f 207/1/6 206/1/6 208/1/6
f 207/3/6 208/3/6 209/3/6
f 208/1/6 206/1/6 209/1/6
f 209/1/6 206/1/6 210/1/6
f 206/2/6 144/2/6 211/2/6
f 210/1/6 206/1/6 211/1/6
f 211/2/6 144/2/6 212/2/6
f 209/3/6 210/3/6 213/3/6
f 207/3/6 209/3/6 213/3/6
f 211/1/6 212/1/6 214/1/6
f 213/3/6 210/3/6 214/3/6
f 210/1/6 211/1/6 214/1/6
f 212/2/6 144/2/6 215/2/6
f 214/1/6 212/1/6 215/1/6
f 215/2/6 144/2/6 216/2/6
f 213/1/6 214/1/6 217/1/6
f 207/3/6 213/3/6 217/3/6
f 215/1/6 216/1/6 217/1/6
f 214/1/6 215/1/6 217/1/6
f 217/1/6 216/1/6 218/1/6
f 217/3/6 218/3/6 219/3/6
f 218/1/6 216/1/6 219/1/6
f 219/1/6 216/1/6 220/1/6
f 216/2/6 144/2/6 221/2/6
f 220/1/6 216/1/6 221/1/6
f 221/2/6 144/2/6 222/2/6
f 219/3/6 220/3/6 223/3/6
f 220/1/6 221/1/6 223/1/6
f 221/1/6 222/1/6 223/1/6
f 223/1/6 222/1/6 224/1/6
f 222/2/6 144/2/6 225/2/6
f 224/1/6 222/1/6 225/1/6
f 225/2/6 144/2/6 226/2/6
f 223/3/6 224/3/6 227/3/6
f 224/1/6 225/1/6 227/1/6
f 225/1/6 226/1/6 227/1/6
f 227/1/6 226/1/6 228/1/6
f 226/2/6 144/2/6 229/2/6
f 228/1/6 226/1/6 229/1/6
f 229/2/6 144/2/6 230/2/6
f 229/1/6 230/1/6 231/1/6
f 230/2/6 144/2/6 231/2/6
f 231/2/6 144/2/6 232/2/6
f 227/3/6 228/3/6 233/3/6
f 228/1/6 229/1/6 233/1/6
f 231/1/6 232/1/6 233/1/6
f 229/1/6 231/1/6 233/1/6
f 233/1/6 232/1/6 234/1/6
f 233/3/6 234/3/6 235/3/6
f 234/1/6 232/1/6 235/1/6
f 235/1/6 232/1/6 236/1/6
f 235/3/6 236/3/6 237/3/6
f 236/1/6 232/1/6 237/1/6
f 237/1/6 232/1/6 238/1/6
f 232/2/6 144/2/6 239/2/6
f 238/1/6 232/1/6 239/1/6
f 239/2/6 144/2/6 240/2/6
f 238/1/6 239/1/6 241/1/6
f 240/2/6 144/2/6 241/2/6
f 239/1/6 240/1/6 241/1/6
f 241/2/6 144/2/6 242/2/6
f 237/3/6 238/3/6 243/3/6
f 238/1/6 241/1/6 243/1/6
f 241/1/6 242/1/6 243/1/6
f 243/1/6 242/1/6 244/1/6
f 242/2/6 144/2/6 245/2/6
f 245/2/6 144/2/6 246/2/6
f 244/1/6 242/1/6 247/1/6
f 243/3/6 244/3/6 247/3/6
f 247/1/6 242/1/6 248/1/6
f 242/2/6 245/2/6 249/2/6
f 248/1/6 242/1/6 249/1/6
f 245/1/6 246/1/6 250/1/6
f 249/2/6 245/2/6 250/2/6
f 248/1/6 249/1/6 251/1/6
f 247/3/6 248/3/6 251/3/6
f 249/1/6 250/1/6 251/1/6
f 251/1/6 250/1/6 252/1/6
f 246/2/6 144/2/6 253/2/6
f 252/1/6 250/1/6 253/1/6
f 250/1/6 246/1/6 253/1/6
f 253/2/6 144/2/6 254/2/6
f 251/3/6 252/3/6 255/3/6
f 252/1/6 253/1/6 255/1/6
f 253/1/6 254/1/6 255/1/6
f 255/1/6 254/1/6 256/1/6
f 254/2/6 144/2/6 257/2/6
f 256/1/6 254/1/6 257/1/6
f 257/2/6 144/2/6 258/2/6
f 255/3/6 256/3/6 259/3/6
f 256/1/6 257/1/6 259/1/6
f 257/1/6 258/1/6 259/1/6
f 259/1/6 258/1/6 260/1/6
f 258/2/6 144/2/6 261/2/6
f 260/1/6 258/1/6 261/1/6
f 261/2/6 144/2/6 262/2/6
f 259/3/6 260/3/6 263/3/6
f 260/1/6 261/1/6 263/1/6
f 261/1/6 262/1/6 263/1/6
f 263/1/6 262/1/6 264/1/6
f 263/3/6 264/3/6 265/3/6
f 264/1/6 262/1/6 265/1/6
f 265/1/6 262/1/6 266/1/6
f 262/2/6 144/2/6 267/2/6
f 266/1/6 262/1/6 267/1/6
f 267/2/6 144/2/6 268/2/6
f 266/1/6 267/1/6 269/1/6
f 268/2/6 144/2/6 269/2/6
f 267/1/6 268/1/6 269/1/6
f 269/2/6 144/2/6 270/2/6
f 265/3/6 266/3/6 271/3/6
f 266/1/6 269/1/6 271/1/6
f 269/1/6 270/1/6 271/1/6
f 271/1/6 270/1/6 272/1/6
f 271/3/6 272/3/6 273/3/6
f 272/1/6 270/1/6 273/1/6
f 273/1/6 270/1/6 274/1/6
f 271/3/6 273/3/6 275/3/6
f 273/3/6 274/3/6 275/3/6
f 274/1/6 270/1/6 276/1/6
f 275/3/6 274/3/6 276/3/6
f 265/3/6 271/3/6 277/3/6
f 271/3/6 275/3/6 277/3/6
f 275/1/6 276/1/6 278/1/6
f 277/3/6 275/3/6 278/3/6
f 276/1/6 270/1/6 279/1/6
f 278/1/6 276/1/6 279/1/6
f 277/1/6 278/1/6 279/1/6
f 279/1/6 270/1/6 280/1/6
f 263/3/6 265/3/6 281/3/6
f 265/3/6 277/3/6 281/3/6
f 277/1/6 279/1/6 282/1/6
f 281/3/6 277/3/6 282/3/6
f 282/1/6 279/1/6 283/1/6
f 279/2/6 280/2/6 284/2/6
f 283/1/6 279/1/6 284/1/6
f 282/1/6 283/1/6 285/1/6
f 281/1/6 282/1/6 285/1/6
f 283/2/6 284/2/6 286/2/6
f 285/1/6 283/1/6 286/1/6
f 259/3/6 263/3/6 287/3/6
f 263/3/6 281/3/6 287/3/6
f 281/1/6 285/1/6 288/1/6
f 287/3/6 281/3/6 288/3/6
f 255/3/6 259/3/6 289/3/6
f 259/3/6 287/3/6 289/3/6
f 287/1/6 288/1/6 290/1/6
f 289/3/6 287/3/6 290/3/6
f 288/1/6 285/1/6 291/1/6
f 290/1/6 288/1/6 291/1/6
f 285/2/6 286/2/6 292/2/6
f 291/1/6 285/1/6 292/1/6
f 251/3/6 255/3/6 293/3/6
f 255/3/6 289/3/6 293/3/6
f 289/1/6 290/1/6 294/1/6
f 293/3/6 289/3/6 294/3/6
f 290/1/6 291/1/6 294/1/6
f 294/1/6 291/1/6 295/1/6
f 291/2/6 292/2/6 296/2/6
f 295/1/6 291/1/6 296/1/6
f 247/3/6 251/3/6 297/3/6
f 251/3/6 293/3/6 297/3/6
f 294/1/6 295/1/6 298/1/6
f 297/3/6 293/3/6 298/3/6
f 293/1/6 294/1/6 298/1/6
f 297/1/6 298/1/6 299/1/6
f 298/1/6 295/1/6 299/1/6
f 295/2/6 296/2/6 300/2/6
f 299/1/6 295/1/6 300/1/6
f 243/3/6 247/3/6 301/3/6
f 247/3/6 297/3/6 301/3/6
f 297/1/6 299/1/6 302/1/6
f 301/3/6 297/3/6 302/3/6
f 302/1/6 299/1/6 303/1/6
f 299/2/6 300/2/6 304/2/6
f 303/1/6 299/1/6 304/1/6
f 302/1/6 303/1/6 305/1/6
f 301/1/6 302/1/6 305/1/6
f 303/2/6 304/2/6 306/2/6
f 305/1/6 303/1/6 306/1/6
f 237/3/6 243/3/6 307/3/6
f 243/3/6 301/3/6 307/3/6
f 301/1/6 305/1/6 308/1/6
f 307/3/6 301/3/6 308/3/6
f 307/1/6 308/1/6 309/1/6
f 308/1/6 305/1/6 309/1/6
f 305/2/6 306/2/6 310/2/6
f 309/1/6 305/1/6 310/1/6
f 235/3/6 237/3/6 311/3/6
f 237/3/6 307/3/6 311/3/6
f 307/1/6 309/1/6 312/1/6
f 311/3/6 307/3/6 312/3/6
f 233/3/6 235/3/6 313/3/6
f 235/3/6 311/3/6 313/3/6
f 311/1/6 312/1/6 314/1/6
f 313/3/6 311/3/6 314/3/6
f 227/3/6 233/3/6 315/3/6
f 233/3/6 313/3/6 315/3/6
f 313/1/6 314/1/6 316/1/6
f 315/3/6 313/3/6 316/3/6
f 314/1/6 312/1/6 317/1/6
f 316/1/6 314/1/6 317/1/6
f 312/1/6 309/1/6 318/1/6
f 317/1/6 312/1/6 318/1/6
f 309/2/6 310/2/6 318/2/6
f 223/3/6 227/3/6 319/3/6
f 227/3/6 315/3/6 319/3/6
f 315/1/6 316/1/6 320/1/6
f 319/3/6 315/3/6 320/3/6
f 316/1/6 317/1/6 320/1/6
f 219/3/6 223/3/6 321/3/6
f 223/3/6 319/3/6 321/3/6
f 319/1/6 320/1/6 322/1/6
f 321/3/6 319/3/6 322/3/6
f 320/1/6 317/1/6 323/1/6
f 322/1/6 320/1/6 323/1/6
f 317/2/6 318/2/6 324/2/6
f 323/1/6 317/1/6 324/1/6
f 217/3/6 219/3/6 325/3/6
f 219/3/6 321/3/6 325/3/6
f 321/1/6 322/1/6 326/1/6
f 325/3/6 321/3/6 326/3/6
f 322/1/6 323/1/6 326/1/6
f 326/1/6 323/1/6 327/1/6
f 323/2/6 324/2/6 328/2/6
f 327/1/6 323/1/6 328/1/6
f 326/1/6 327/1/6 329/1/6
f 325/1/6 326/1/6 329/1/6
f 327/2/6 328/2/6 330/2/6
f 329/1/6 327/1/6 330/1/6
f 207/3/6 217/3/6 331/3/6
f 217/3/6 325/3/6 331/3/6
f 325/1/6 329/1/6 332/1/6
f 331/3/6 325/3/6 332/3/6
f 332/1/6 329/1/6 333/1/6
f 329/2/6 330/2/6 334/2/6
f 333/1/6 329/1/6 334/1/6
f 201/3/6 207/3/6 335/3/6
f 207/3/6 331/3/6 335/3/6
f 332/1/6 333/1/6 336/1/6
f 335/3/6 331/3/6 336/3/6
f 331/1/6 332/1/6 336/1/6
f 336/1/6 333/1/6 337/1/6
f 333/2/6 334/2/6 338/2/6
f 337/1/6 333/1/6 338/1/6
f 197/3/6 201/3/6 339/3/6
f 201/3/6 335/3/6 339/3/6
f 336/1/6 337/1/6 340/1/6
f 339/3/6 335/3/6 340/3/6
f 335/1/6 336/1/6 340/1/6
f 340/1/6 337/1/6 341/1/6
f 337/2/6 338/2/6 342/2/6
f 341/1/6 337/1/6 342/1/6
f 193/3/6 197/3/6 343/3/6
f 197/3/6 339/3/6 343/3/6
f 340/1/6 341/1/6 344/1/6
f 343/3/6 339/3/6 344/3/6
f 339/1/6 340/1/6 344/1/6
f 343/1/6 344/1/6 345/1/6
f 344/1/6 341/1/6 345/1/6
f 341/2/6 342/2/6 346/2/6
f 345/1/6 341/1/6 346/1/6
f 189/3/6 193/3/6 347/3/6
f 193/3/6 343/3/6 347/3/6
f 343/1/6 345/1/6 348/1/6
f 347/3/6 343/3/6 348/3/6
f 348/1/6 345/1/6 349/1/6
f 345/2/6 346/2/6 350/2/6
f 349/1/6 345/1/6 350/1/6
f 189/3/6 347/3/6 351/3/6
f 348/1/6 349/1/6 352/1/6
f 351/3/6 347/3/6 352/3/6
f 347/1/6 348/1/6 352/1/6
f 349/2/6 350/2/6 353/2/6
f 352/1/6 349/1/6 353/1/6
f 101/3/6 107/3/6 354/3/6
f 115/3/6 127/3/6 354/3/6
f 107/3/6 115/3/6 354/3/6
f 127/3/6 133/3/6 354/3/6
f 133/3/6 139/3/6 354/3/6
f 139/3/6 145/3/6 354/3/6
f 145/3/6 151/3/6 354/3/6
f 151/3/6 155/3/6 354/3/6
f 155/3/6 159/3/6 354/3/6
f 159/3/6 161/3/6 354/3/6
f 161/3/6 167/3/6 354/3/6
f 167/3/6 169/3/6 354/3/6
f 169/3/6 173/3/6 354/3/6
f 173/3/6 179/3/6 354/3/6
f 179/3/6 185/3/6 354/3/6
f 185/3/6 189/3/6 354/3/6
f 189/3/6 351/3/6 354/3/6
f 351/1/6 352/1/6 355/1/6
f 354/3/6 351/3/6 355/3/6
f 352/2/6 353/2/6 356/2/6
f 355/1/6 352/1/6 356/1/6
f 353/2/6 350/2/6 357/2/6
f 356/2/6 353/2/6 357/2/6
f 350/2/6 346/2/6 357/2/6
f 330/2/6 328/2/6 357/2/6
f 334/2/6 330/2/6 357/2/6
f 338/2/6 334/2/6 357/2/6
f 342/2/6 338/2/6 357/2/6
f 346/2/6 342/2/6 357/2/6
f 324/2/6 318/2/6 357/2/6
f 318/2/6 310/2/6 357/2/6
f 328/2/6 324/2/6 357/2/6
f 304/2/6 300/2/6 357/2/6
f 310/2/6 306/2/6 357/2/6
f 306/2/6 304/2/6 357/2/6
f 296/2/6 292/2/6 357/2/6
f 300/2/6 296/2/6 357/2/6
f 292/2/6 286/2/6 357/2/6
f 284/2/6 280/2/6 357/2/6
f 286/2/6 284/2/6 357/2/6
