# MagicaVoxel @ Ephtracy

# group
g map-37

# material
mtllib map-37.mtl
usemtl palette

# normals
vn -1 0 0
vn 1 0 0
vn 0 0 1
vn 0 0 -1
vn 0 -1 0
vn 0 1 0

# texcoords
vt 0.201172 0.5
vt 0.205078 0.5
vt 0.912109 0.5
vt 0.962891 0.5

# verts
v -63 0 63
v -63 0 -10
v -63 0 -49
v -63 0 -63
v -63 12 38
v -63 12 31
v -63 12 -10
v -63 12 -49
v -63 12 -63
v -63 13 63
v -63 13 38
v -63 13 31
v -63 13 -63
v 63 0 63
v 63 0 -63
v 63 13 63
v 63 13 -63
v -63 0 63
v -63 13 63
v 63 0 63
v 63 13 63
v -63 0 -63
v -63 12 -63
v -63 13 -63
v -56 0 -63
v -56 12 -63
v -28 12 -63
v -28 13 -63
v -25 0 -63
v -25 12 -63
v -25 13 -63
v 63 0 -63
v 63 13 -63
v -63 0 63
v 63 0 63
v -63 0 -10
v -49 0 -10
v -49 0 -16
v -48 0 -16
v -48 0 -20
v -46 0 -20
v -46 0 -24
v -45 0 -24
v -45 0 -27
v -43 0 -27
v -43 0 -29
v -42 0 -29
v -42 0 -32
v -41 0 -32
v -41 0 -33
v -40 0 -33
v -40 0 -35
v -39 0 -35
v -39 0 -39
v -38 0 -39
v -38 0 -40
v -36 0 -40
v -36 0 -43
v -35 0 -43
v -35 0 -44
v -33 0 -44
v -33 0 -45
v -32 0 -45
v -32 0 -46
v -31 0 -46
v -31 0 -47
v -29 0 -47
v -63 0 -49
v -62 0 -49
v -29 0 -49
v -28 0 -49
v -28 0 -50
v -26 0 -50
v -26 0 -51
v -25 0 -51
v -62 0 -52
v -60 0 -52
v -60 0 -55
v -59 0 -55
v -59 0 -59
v -58 0 -59
v -58 0 -60
v -56 0 -60
v -63 0 -63
v -56 0 -63
v -25 0 -63
v 63 0 -63
v -63 13 63
v 63 13 63
v -63 13 38
v -62 13 38
v -62 13 36
v -61 13 36
v -63 13 31
v -62 13 31
v -61 13 31
v -60 13 31
v -62 13 28
v -61 13 28
v -60 13 28
v -59 13 28
v -61 13 19
v -60 13 19
v -59 13 19
v -58 13 19
v -60 13 17
v -59 13 17
v -58 13 16
v -57 13 16
v -57 13 12
v -56 13 12
v -59 13 11
v -58 13 11
v -56 13 8
v -55 13 8
v -58 13 7
v -57 13 7
v -55 13 5
v -54 13 5
v -57 13 4
v -56 13 4
v -56 13 1
v -55 13 1
v -54 13 1
v -53 13 1
v -55 13 -2
v -54 13 -2
v -53 13 -2
v -52 13 -2
v -54 13 -5
v -53 13 -5
v -52 13 -5
v -51 13 -5
v -53 13 -9
v -52 13 -9
v -51 13 -9
v -50 13 -9
v -50 13 -10
v -49 13 -10
v -52 13 -11
v -51 13 -11
v -51 13 -13
v -50 13 -13
v -49 13 -13
v -48 13 -13
v -50 13 -15
v -49 13 -15
v -48 13 -15
v -47 13 -15
v -47 13 -18
v -46 13 -18
v -49 13 -19
v -48 13 -19
v -48 13 -21
v -47 13 -21
v -48 13 -22
v -47 13 -22
v -48 13 -23
v -47 13 -23
v -46 13 -23
v -45 13 -23
v -47 13 -25
v -46 13 -25
v -45 13 -25
v -44 13 -25
v -46 13 -27
v -45 13 -27
v -44 13 -27
v -43 13 -27
v -45 13 -29
v -44 13 -29
v -43 13 -30
v -42 13 -30
v -44 13 -32
v -43 13 -32
v -42 13 -32
v -41 13 -32
v -42 13 -33
v -41 13 -33
v -42 13 -34
v -40 13 -34
v -43 13 -35
v -42 13 -35
v -40 13 -37
v -39 13 -37
v -42 13 -38
v -41 13 -38
v -41 13 -39
v -40 13 -39
v -39 13 -39
v -38 13 -39
v -38 13 -41
v -37 13 -41
v -40 13 -42
v -39 13 -42
v -37 13 -43
v -36 13 -43
v -39 13 -44
v -38 13 -44
v -36 13 -45
v -35 13 -45
v -38 13 -46
v -37 13 -46
v -35 13 -47
v -34 13 -47
v -37 13 -48
v -36 13 -48
v -34 13 -49
v -33 13 -49
v -36 13 -50
v -35 13 -50
v -33 13 -50
v -32 13 -50
v -35 13 -51
v -34 13 -51
v -34 13 -52
v -33 13 -52
v -32 13 -53
v -31 13 -53
v -31 13 -54
v -30 13 -54
v -33 13 -55
v -32 13 -55
v -32 13 -56
v -31 13 -56
v -30 13 -56
v -29 13 -56
v -29 13 -57
v -28 13 -57
v -31 13 -58
v -30 13 -58
v -30 13 -59
v -29 13 -59
v -28 13 -59
v -27 13 -59
v -29 13 -61
v -28 13 -61
v -27 13 -61
v -26 13 -61
v -26 13 -62
v -25 13 -62
v -63 13 -63
v -28 13 -63
v -25 13 -63
v 63 13 -63

# faces
f 5/3/1 2/3/1 1/3/1
f 6/3/1 2/3/1 5/3/1
f 7/4/1 3/4/1 2/4/1
f 7/3/1 2/3/1 6/3/1
f 8/3/1 4/3/1 3/3/1
f 8/4/1 3/4/1 7/4/1
f 9/3/1 4/3/1 8/3/1
f 10/3/1 5/3/1 1/3/1
f 11/1/1 6/1/1 5/1/1
f 11/3/1 5/3/1 10/3/1
f 12/2/1 7/2/1 6/2/1
f 12/1/1 6/1/1 11/1/1
f 12/2/1 8/2/1 7/2/1
f 12/2/1 9/2/1 8/2/1
f 13/2/1 9/2/1 12/2/1
f 14/3/2 15/3/2 16/3/2
f 16/3/2 15/3/2 17/3/2
f 20/3/3 19/3/3 18/3/3
f 21/3/3 19/3/3 20/3/3
f 22/3/4 23/3/4 25/3/4
f 23/2/4 24/2/4 26/2/4
f 25/3/4 23/3/4 26/3/4
f 25/4/4 26/4/4 27/4/4
f 26/2/4 24/2/4 27/2/4
f 27/2/4 24/2/4 28/2/4
f 25/4/4 27/4/4 29/4/4
f 27/1/4 28/1/4 30/1/4
f 29/4/4 27/4/4 30/4/4
f 30/1/4 28/1/4 31/1/4
f 29/3/4 30/3/4 32/3/4
f 30/3/4 31/3/4 32/3/4
f 32/3/4 31/3/4 33/3/4
f 36/3/5 35/3/5 34/3/5
f 37/3/5 35/3/5 36/3/5
f 38/4/5 37/4/5 36/4/5
f 38/3/5 35/3/5 37/3/5
f 39/3/5 35/3/5 38/3/5
f 40/4/5 39/4/5 38/4/5
f 40/3/5 35/3/5 39/3/5
f 41/3/5 35/3/5 40/3/5
f 42/4/5 41/4/5 40/4/5
f 42/3/5 35/3/5 41/3/5
f 43/3/5 35/3/5 42/3/5
f 44/4/5 43/4/5 42/4/5
f 44/3/5 35/3/5 43/3/5
f 45/3/5 35/3/5 44/3/5
f 46/4/5 45/4/5 44/4/5
f 46/3/5 35/3/5 45/3/5
f 47/3/5 35/3/5 46/3/5
f 48/4/5 47/4/5 46/4/5
f 48/3/5 35/3/5 47/3/5
f 49/3/5 35/3/5 48/3/5
f 50/4/5 49/4/5 48/4/5
f 50/3/5 35/3/5 49/3/5
f 51/3/5 35/3/5 50/3/5
f 52/4/5 51/4/5 50/4/5
f 52/3/5 35/3/5 51/3/5
f 53/3/5 35/3/5 52/3/5
f 54/4/5 53/4/5 52/4/5
f 54/3/5 35/3/5 53/3/5
f 55/3/5 35/3/5 54/3/5
f 56/4/5 55/4/5 54/4/5
f 56/3/5 35/3/5 55/3/5
f 57/3/5 35/3/5 56/3/5
f 58/4/5 57/4/5 56/4/5
f 58/3/5 35/3/5 57/3/5
f 59/3/5 35/3/5 58/3/5
f 60/4/5 59/4/5 58/4/5
f 60/3/5 35/3/5 59/3/5
f 61/3/5 35/3/5 60/3/5
f 62/4/5 61/4/5 60/4/5
f 62/3/5 35/3/5 61/3/5
f 63/3/5 35/3/5 62/3/5
f 64/4/5 63/4/5 62/4/5
f 64/3/5 35/3/5 63/3/5
f 65/3/5 35/3/5 64/3/5
f 66/4/5 65/4/5 64/4/5
f 66/3/5 35/3/5 65/3/5
f 67/3/5 35/3/5 66/3/5
f 68/4/5 38/4/5 36/4/5
f 68/4/5 40/4/5 38/4/5
f 68/4/5 67/4/5 66/4/5
f 68/4/5 66/4/5 64/4/5
f 68/4/5 64/4/5 62/4/5
f 68/4/5 62/4/5 60/4/5
f 68/4/5 60/4/5 58/4/5
f 68/4/5 58/4/5 56/4/5
f 68/4/5 56/4/5 54/4/5
f 68/4/5 54/4/5 52/4/5
f 68/4/5 52/4/5 50/4/5
f 68/4/5 50/4/5 48/4/5
f 68/4/5 48/4/5 46/4/5
f 68/4/5 46/4/5 44/4/5
f 68/4/5 44/4/5 42/4/5
f 68/4/5 42/4/5 40/4/5
f 69/4/5 67/4/5 68/4/5
f 70/3/5 35/3/5 67/3/5
f 70/4/5 67/4/5 69/4/5
f 71/3/5 35/3/5 70/3/5
f 72/4/5 70/4/5 69/4/5
f 72/3/5 35/3/5 71/3/5
f 72/4/5 71/4/5 70/4/5
f 73/3/5 35/3/5 72/3/5
f 74/4/5 73/4/5 72/4/5
f 74/3/5 35/3/5 73/3/5
f 75/3/5 35/3/5 74/3/5
f 76/3/5 69/3/5 68/3/5
f 76/4/5 72/4/5 69/4/5
f 76/4/5 75/4/5 74/4/5
f 76/4/5 74/4/5 72/4/5
f 77/4/5 75/4/5 76/4/5
f 78/3/5 77/3/5 76/3/5
f 78/4/5 75/4/5 77/4/5
f 79/4/5 75/4/5 78/4/5
f 80/3/5 79/3/5 78/3/5
f 80/4/5 75/4/5 79/4/5
f 81/4/5 75/4/5 80/4/5
f 82/3/5 81/3/5 80/3/5
f 82/4/5 75/4/5 81/4/5
f 83/4/5 75/4/5 82/4/5
f 84/3/5 76/3/5 68/3/5
f 84/3/5 78/3/5 76/3/5
f 84/3/5 83/3/5 82/3/5
f 84/3/5 82/3/5 80/3/5
f 84/3/5 80/3/5 78/3/5
f 85/4/5 75/4/5 83/4/5
f 85/3/5 83/3/5 84/3/5
f 86/3/5 35/3/5 75/3/5
f 86/4/5 75/4/5 85/4/5
f 87/3/5 35/3/5 86/3/5
f 88/3/6 89/3/6 90/3/6
f 90/3/6 89/3/6 91/3/6
f 90/1/6 91/1/6 92/1/6
f 91/3/6 89/3/6 92/3/6
f 92/3/6 89/3/6 93/3/6
f 90/1/6 92/1/6 94/1/6
f 92/1/6 93/1/6 94/1/6
f 94/1/6 93/1/6 95/1/6
f 93/3/6 89/3/6 96/3/6
f 95/1/6 93/1/6 96/1/6
f 96/3/6 89/3/6 97/3/6
f 94/2/6 95/2/6 98/2/6
f 95/1/6 96/1/6 98/1/6
f 96/1/6 97/1/6 98/1/6
f 98/1/6 97/1/6 99/1/6
f 97/3/6 89/3/6 100/3/6
f 99/1/6 97/1/6 100/1/6
f 100/3/6 89/3/6 101/3/6
f 98/2/6 99/2/6 102/2/6
f 99/1/6 100/1/6 102/1/6
f 100/1/6 101/1/6 102/1/6
f 102/1/6 101/1/6 103/1/6
f 101/3/6 89/3/6 104/3/6
f 103/1/6 101/1/6 104/1/6
f 104/3/6 89/3/6 105/3/6
f 102/2/6 103/2/6 106/2/6
f 103/1/6 104/1/6 106/1/6
f 104/1/6 105/1/6 106/1/6
f 106/1/6 105/1/6 107/1/6
f 105/3/6 89/3/6 108/3/6
f 107/1/6 105/1/6 108/1/6
f 108/3/6 89/3/6 109/3/6
f 108/1/6 109/1/6 110/1/6
f 109/3/6 89/3/6 110/3/6
f 110/3/6 89/3/6 111/3/6
f 106/2/6 107/2/6 112/2/6
f 107/1/6 108/1/6 112/1/6
f 110/1/6 111/1/6 112/1/6
f 108/1/6 110/1/6 112/1/6
f 112/1/6 111/1/6 113/1/6
f 111/3/6 89/3/6 114/3/6
f 113/1/6 111/1/6 114/1/6
f 114/3/6 89/3/6 115/3/6
f 112/2/6 113/2/6 116/2/6
f 113/1/6 114/1/6 116/1/6
f 114/1/6 115/1/6 116/1/6
f 116/1/6 115/1/6 117/1/6
f 115/3/6 89/3/6 118/3/6
f 117/1/6 115/1/6 118/1/6
f 118/3/6 89/3/6 119/3/6
f 116/2/6 117/2/6 120/2/6
f 117/1/6 118/1/6 120/1/6
f 118/1/6 119/1/6 120/1/6
f 120/1/6 119/1/6 121/1/6
f 120/2/6 121/2/6 122/2/6
f 121/1/6 119/1/6 122/1/6
f 122/1/6 119/1/6 123/1/6
f 119/3/6 89/3/6 124/3/6
f 123/1/6 119/1/6 124/1/6
f 124/3/6 89/3/6 125/3/6
f 122/2/6 123/2/6 126/2/6
f 123/1/6 124/1/6 126/1/6
f 124/1/6 125/1/6 126/1/6
f 126/1/6 125/1/6 127/1/6
f 125/3/6 89/3/6 128/3/6
f 127/1/6 125/1/6 128/1/6
f 128/3/6 89/3/6 129/3/6
f 126/2/6 127/2/6 130/2/6
f 127/1/6 128/1/6 130/1/6
f 128/1/6 129/1/6 130/1/6
f 130/1/6 129/1/6 131/1/6
f 129/3/6 89/3/6 132/3/6
f 131/1/6 129/1/6 132/1/6
f 132/3/6 89/3/6 133/3/6
f 130/2/6 131/2/6 134/2/6
f 131/1/6 132/1/6 134/1/6
f 132/1/6 133/1/6 134/1/6
f 134/1/6 133/1/6 135/1/6
f 133/3/6 89/3/6 136/3/6
f 135/1/6 133/1/6 136/1/6
f 136/3/6 89/3/6 137/3/6
f 135/1/6 136/1/6 138/1/6
f 137/3/6 89/3/6 138/3/6
f 136/1/6 137/1/6 138/1/6
f 138/3/6 89/3/6 139/3/6
f 134/2/6 135/2/6 140/2/6
f 135/1/6 138/1/6 140/1/6
f 138/1/6 139/1/6 140/1/6
f 140/1/6 139/1/6 141/1/6
f 140/2/6 141/2/6 142/2/6
f 141/1/6 139/1/6 142/1/6
f 142/1/6 139/1/6 143/1/6
f 139/3/6 89/3/6 144/3/6
f 143/1/6 139/1/6 144/1/6
f 144/3/6 89/3/6 145/3/6
f 142/2/6 143/2/6 146/2/6
f 143/1/6 144/1/6 146/1/6
f 144/1/6 145/1/6 146/1/6
f 146/1/6 145/1/6 147/1/6
f 145/3/6 89/3/6 148/3/6
f 147/1/6 145/1/6 148/1/6
f 148/3/6 89/3/6 149/3/6
f 147/1/6 148/1/6 150/1/6
f 149/3/6 89/3/6 150/3/6
f 148/1/6 149/1/6 150/1/6
f 150/3/6 89/3/6 151/3/6
f 146/2/6 147/2/6 152/2/6
f 147/1/6 150/1/6 152/1/6
f 150/1/6 151/1/6 152/1/6
f 152/1/6 151/1/6 153/1/6
f 152/2/6 153/2/6 154/2/6
f 153/1/6 151/1/6 154/1/6
f 154/1/6 151/1/6 155/1/6
f 152/2/6 154/2/6 156/2/6
f 154/2/6 155/2/6 156/2/6
f 155/1/6 151/1/6 157/1/6
f 156/2/6 155/2/6 157/2/6
f 152/2/6 156/2/6 158/2/6
f 156/1/6 157/1/6 158/1/6
f 157/1/6 151/1/6 159/1/6
f 158/1/6 157/1/6 159/1/6
f 151/3/6 89/3/6 160/3/6
f 159/1/6 151/1/6 160/1/6
f 160/3/6 89/3/6 161/3/6
f 158/2/6 159/2/6 162/2/6
f 159/1/6 160/1/6 162/1/6
f 160/1/6 161/1/6 162/1/6
f 162/1/6 161/1/6 163/1/6
f 161/3/6 89/3/6 164/3/6
f 163/1/6 161/1/6 164/1/6
f 164/3/6 89/3/6 165/3/6
f 162/2/6 163/2/6 166/2/6
f 163/1/6 164/1/6 166/1/6
f 164/1/6 165/1/6 166/1/6
f 166/1/6 165/1/6 167/1/6
f 165/3/6 89/3/6 168/3/6
f 167/1/6 165/1/6 168/1/6
f 168/3/6 89/3/6 169/3/6
f 166/2/6 167/2/6 170/2/6
f 167/1/6 168/1/6 170/1/6
f 168/1/6 169/1/6 170/1/6
f 170/1/6 169/1/6 171/1/6
f 169/3/6 89/3/6 172/3/6
f 171/1/6 169/1/6 172/1/6
f 172/3/6 89/3/6 173/3/6
f 170/2/6 171/2/6 174/2/6
f 171/1/6 172/1/6 174/1/6
f 172/1/6 173/1/6 174/1/6
f 174/1/6 173/1/6 175/1/6
f 173/3/6 89/3/6 176/3/6
f 175/1/6 173/1/6 176/1/6
f 176/3/6 89/3/6 177/3/6
f 175/1/6 176/1/6 178/1/6
f 176/1/6 177/1/6 178/1/6
f 177/3/6 89/3/6 179/3/6
f 178/1/6 177/1/6 179/1/6
f 175/1/6 178/1/6 180/1/6
f 178/3/6 179/3/6 180/3/6
f 179/3/6 89/3/6 181/3/6
f 180/3/6 179/3/6 181/3/6
f 174/2/6 175/2/6 182/2/6
f 175/1/6 180/1/6 182/1/6
f 180/1/6 181/1/6 182/1/6
f 182/1/6 181/1/6 183/1/6
f 181/3/6 89/3/6 184/3/6
f 183/1/6 181/1/6 184/1/6
f 184/3/6 89/3/6 185/3/6
f 182/2/6 183/2/6 186/2/6
f 183/1/6 184/1/6 186/1/6
f 184/1/6 185/1/6 186/1/6
f 186/1/6 185/1/6 187/1/6
f 186/2/6 187/2/6 188/2/6
f 187/1/6 185/1/6 188/1/6
f 188/1/6 185/1/6 189/1/6
f 185/3/6 89/3/6 190/3/6
f 189/1/6 185/1/6 190/1/6
f 190/3/6 89/3/6 191/3/6
f 189/1/6 190/1/6 192/1/6
f 191/3/6 89/3/6 192/3/6
f 190/1/6 191/1/6 192/1/6
f 192/3/6 89/3/6 193/3/6
f 188/2/6 189/2/6 194/2/6
f 189/1/6 192/1/6 194/1/6
f 192/1/6 193/1/6 194/1/6
f 194/1/6 193/1/6 195/1/6
f 193/3/6 89/3/6 196/3/6
f 195/1/6 193/1/6 196/1/6
f 196/3/6 89/3/6 197/3/6
f 194/2/6 195/2/6 198/2/6
f 195/1/6 196/1/6 198/1/6
f 196/1/6 197/1/6 198/1/6
f 198/1/6 197/1/6 199/1/6
f 197/3/6 89/3/6 200/3/6
f 199/1/6 197/1/6 200/1/6
f 200/3/6 89/3/6 201/3/6
f 198/2/6 199/2/6 202/2/6
f 199/1/6 200/1/6 202/1/6
f 200/1/6 201/1/6 202/1/6
f 202/1/6 201/1/6 203/1/6
f 201/3/6 89/3/6 204/3/6
f 203/1/6 201/1/6 204/1/6
f 204/3/6 89/3/6 205/3/6
f 202/2/6 203/2/6 206/2/6
f 203/1/6 204/1/6 206/1/6
f 204/1/6 205/1/6 206/1/6
f 206/1/6 205/1/6 207/1/6
f 205/3/6 89/3/6 208/3/6
f 207/1/6 205/1/6 208/1/6
f 208/3/6 89/3/6 209/3/6
f 206/2/6 207/2/6 210/2/6
f 207/1/6 208/1/6 210/1/6
f 208/1/6 209/1/6 210/1/6
f 210/1/6 209/1/6 211/1/6
f 209/3/6 89/3/6 212/3/6
f 211/1/6 209/1/6 212/1/6
f 212/3/6 89/3/6 213/3/6
f 210/2/6 211/2/6 214/2/6
f 211/1/6 212/1/6 214/1/6
f 212/1/6 213/1/6 214/1/6
f 214/1/6 213/1/6 215/1/6
f 214/2/6 215/2/6 216/2/6
f 215/1/6 213/1/6 216/1/6
f 216/1/6 213/1/6 217/1/6
f 213/3/6 89/3/6 218/3/6
f 217/1/6 213/1/6 218/1/6
f 218/3/6 89/3/6 219/3/6
f 218/1/6 219/1/6 220/1/6
f 219/3/6 89/3/6 220/3/6
f 220/3/6 89/3/6 221/3/6
f 216/2/6 217/2/6 222/2/6
f 217/1/6 218/1/6 222/1/6
f 220/1/6 221/1/6 222/1/6
f 218/1/6 220/1/6 222/1/6
f 222/1/6 221/1/6 223/1/6
f 222/2/6 223/2/6 224/2/6
f 223/1/6 221/1/6 224/1/6
f 224/1/6 221/1/6 225/1/6
f 221/3/6 89/3/6 226/3/6
f 225/1/6 221/1/6 226/1/6
f 226/3/6 89/3/6 227/3/6
f 225/1/6 226/1/6 228/1/6
f 227/3/6 89/3/6 228/3/6
f 226/1/6 227/1/6 228/1/6
f 228/3/6 89/3/6 229/3/6
f 224/2/6 225/2/6 230/2/6
f 225/1/6 228/1/6 230/1/6
f 228/1/6 229/1/6 230/1/6
f 230/1/6 229/1/6 231/1/6
f 230/2/6 231/2/6 232/2/6
f 231/1/6 229/1/6 232/1/6
f 232/1/6 229/1/6 233/1/6
f 229/3/6 89/3/6 234/3/6
f 233/1/6 229/1/6 234/1/6
f 234/3/6 89/3/6 235/3/6
f 232/2/6 233/2/6 236/2/6
f 233/1/6 234/1/6 236/1/6
f 234/1/6 235/1/6 236/1/6
f 236/1/6 235/1/6 237/1/6
f 235/3/6 89/3/6 238/3/6
f 237/1/6 235/1/6 238/1/6
f 238/3/6 89/3/6 239/3/6
f 237/1/6 238/1/6 240/1/6
f 239/3/6 89/3/6 240/3/6
f 238/1/6 239/1/6 240/1/6
f 240/3/6 89/3/6 241/3/6
f 236/2/6 237/2/6 242/2/6
f 94/2/6 98/2/6 242/2/6
f 98/2/6 102/2/6 242/2/6
f 102/2/6 106/2/6 242/2/6
f 232/2/6 236/2/6 242/2/6
f 230/2/6 232/2/6 242/2/6
f 224/2/6 230/2/6 242/2/6
f 222/2/6 224/2/6 242/2/6
f 216/2/6 222/2/6 242/2/6
f 214/2/6 216/2/6 242/2/6
f 210/2/6 214/2/6 242/2/6
f 206/2/6 210/2/6 242/2/6
f 202/2/6 206/2/6 242/2/6
f 198/2/6 202/2/6 242/2/6
f 194/2/6 198/2/6 242/2/6
f 188/2/6 194/2/6 242/2/6
f 186/2/6 188/2/6 242/2/6
f 182/2/6 186/2/6 242/2/6
f 174/2/6 182/2/6 242/2/6
f 170/2/6 174/2/6 242/2/6
f 166/2/6 170/2/6 242/2/6
f 162/2/6 166/2/6 242/2/6
f 158/2/6 162/2/6 242/2/6
f 152/2/6 158/2/6 242/2/6
f 146/2/6 152/2/6 242/2/6
f 142/2/6 146/2/6 242/2/6
f 140/2/6 142/2/6 242/2/6
f 134/2/6 140/2/6 242/2/6
f 130/2/6 134/2/6 242/2/6
f 126/2/6 130/2/6 242/2/6
f 122/2/6 126/2/6 242/2/6
f 120/2/6 122/2/6 242/2/6
f 116/2/6 120/2/6 242/2/6
f 112/2/6 116/2/6 242/2/6
f 106/2/6 112/2/6 242/2/6
f 240/1/6 241/1/6 243/1/6
f 242/2/6 237/2/6 243/2/6
f 237/1/6 240/1/6 243/1/6
f 241/3/6 89/3/6 244/3/6
f 243/1/6 241/1/6 244/1/6
f 244/3/6 89/3/6 245/3/6
