# MagicaVoxel @ Ephtracy

# group
g map-39

# material
mtllib map-39.mtl
usemtl palette

# normals
vn -1 0 0
vn 1 0 0
vn 0 0 1
vn 0 0 -1
vn 0 -1 0
vn 0 1 0

# texcoords
vt 0.201172 0.5
vt 0.205078 0.5
vt 0.912109 0.5
vt 0.962891 0.5

# verts
v -63 0 63
v -63 0 32
v -63 0 -8
v -63 0 -21
v -63 0 -59
v -63 0 -63
v -63 12 57
v -63 12 54
v -63 12 32
v -63 12 -8
v -63 12 -21
v -63 12 -59
v -63 12 -63
v -63 13 63
v -63 13 57
v -63 13 54
v -63 13 -63
v 63 0 63
v 63 0 -63
v 63 13 63
v 63 13 -63
v -63 0 63
v -63 13 63
v 63 0 63
v 63 13 63
v -63 0 -63
v -63 12 -63
v -63 13 -63
v -51 12 -63
v -51 13 -63
v -50 12 -63
v -50 13 -63
v 63 0 -63
v 63 13 -63
v -63 0 63
v 63 0 63
v -63 0 32
v -52 0 32
v -52 0 31
v -50 0 31
v -50 0 28
v -49 0 28
v -49 0 25
v -47 0 25
v -47 0 21
v -46 0 21
v -46 0 18
v -44 0 18
v -44 0 16
v -43 0 16
v -43 0 12
v -42 0 12
v -42 0 11
v -41 0 11
v -63 0 -8
v -61 0 -8
v -62 0 -13
v -61 0 -13
v -63 0 -21
v -62 0 -21
v -42 0 -33
v -41 0 -33
v -43 0 -41
v -42 0 -41
v -44 0 -51
v -43 0 -51
v -46 0 -57
v -44 0 -57
v -63 0 -59
v -46 0 -59
v -63 0 -63
v 63 0 -63
v -63 13 63
v 63 13 63
v -63 13 57
v -62 13 57
v -62 13 56
v -61 13 56
v -61 13 55
v -60 13 55
v -63 13 54
v -62 13 54
v -62 13 53
v -61 13 53
v -60 13 53
v -59 13 53
v -59 13 52
v -58 13 52
v -61 13 51
v -60 13 51
v -58 13 51
v -57 13 51
v -60 13 49
v -59 13 49
v -57 13 49
v -56 13 49
v -59 13 48
v -57 13 48
v -56 13 48
v -55 13 48
v -57 13 47
v -56 13 47
v -56 13 45
v -55 13 45
v -54 13 45
v -54 13 44
v -53 13 44
v -55 13 42
v -54 13 42
v -53 13 41
v -52 13 41
v -54 13 39
v -53 13 39
v -52 13 39
v -51 13 39
v -51 13 38
v -50 13 38
v -53 13 36
v -52 13 36
v -50 13 35
v -49 13 35
v -52 13 34
v -51 13 34
v -51 13 31
v -50 13 31
v -49 13 31
v -48 13 31
v -48 13 29
v -47 13 29
v -50 13 28
v -49 13 28
v -47 13 27
v -46 13 27
v -46 13 26
v -45 13 26
v -49 13 25
v -47 13 25
v -45 13 24
v -44 13 24
v -44 13 23
v -43 13 23
v -47 13 21
v -46 13 21
v -43 13 21
v -42 13 21
v -46 13 18
v -44 13 18
v -42 13 18
v -41 13 18
v -44 13 16
v -43 13 16
v -41 13 15
v -40 13 15
v -43 13 12
v -42 13 12
v -40 13 12
v -39 13 12
v -42 13 11
v -41 13 11
v -39 13 11
v -38 13 11
v -38 13 2
v -37 13 2
v -38 13 -2
v -37 13 -2
v -38 13 -6
v -37 13 -6
v -38 13 -11
v -37 13 -11
v -38 13 -15
v -37 13 -15
v -38 13 -18
v -37 13 -18
v -41 13 -19
v -40 13 -19
v -41 13 -29
v -40 13 -29
v -42 13 -30
v -41 13 -30
v -39 13 -31
v -38 13 -31
v -40 13 -33
v -39 13 -33
v -43 13 -37
v -42 13 -37
v -41 13 -39
v -40 13 -39
v -44 13 -42
v -43 13 -42
v -42 13 -42
v -41 13 -42
v -45 13 -45
v -44 13 -45
v -43 13 -45
v -42 13 -45
v -45 13 -46
v -44 13 -46
v -45 13 -48
v -44 13 -48
v -46 13 -51
v -45 13 -51
v -44 13 -51
v -43 13 -51
v -47 13 -53
v -46 13 -53
v -45 13 -53
v -44 13 -53
v -48 13 -55
v -47 13 -55
v -46 13 -56
v -45 13 -56
v -49 13 -57
v -48 13 -57
v -47 13 -57
v -46 13 -57
v -50 13 -58
v -49 13 -58
v -48 13 -58
v -47 13 -58
v -49 13 -59
v -48 13 -59
v -51 13 -60
v -50 13 -60
v -50 13 -62
v -49 13 -62
v -63 13 -63
v -51 13 -63
v -50 13 -63
v 63 13 -63

# faces
f 7/3/1 2/3/1 1/3/1
f 8/3/1 2/3/1 7/3/1
f 9/4/1 3/4/1 2/4/1
f 9/3/1 2/3/1 8/3/1
f 10/3/1 4/3/1 3/3/1
f 10/4/1 3/4/1 9/4/1
f 11/4/1 5/4/1 4/4/1
f 11/3/1 4/3/1 10/3/1
f 12/3/1 6/3/1 5/3/1
f 12/4/1 5/4/1 11/4/1
f 13/3/1 6/3/1 12/3/1
f 14/3/1 7/3/1 1/3/1
f 15/1/1 8/1/1 7/1/1
f 15/3/1 7/3/1 14/3/1
f 16/2/1 11/2/1 10/2/1
f 16/1/1 8/1/1 15/1/1
f 16/2/1 9/2/1 8/2/1
f 16/2/1 13/2/1 12/2/1
f 16/2/1 12/2/1 11/2/1
f 16/2/1 10/2/1 9/2/1
f 17/2/1 13/2/1 16/2/1
f 18/3/2 19/3/2 20/3/2
f 20/3/2 19/3/2 21/3/2
f 24/3/3 23/3/3 22/3/3
f 25/3/3 23/3/3 24/3/3
f 26/3/4 27/3/4 29/3/4
f 27/2/4 28/2/4 29/2/4
f 29/2/4 28/2/4 30/2/4
f 26/3/4 29/3/4 31/3/4
f 29/1/4 30/1/4 31/1/4
f 31/1/4 30/1/4 32/1/4
f 26/3/4 31/3/4 33/3/4
f 31/3/4 32/3/4 33/3/4
f 33/3/4 32/3/4 34/3/4
f 37/3/5 36/3/5 35/3/5
f 38/3/5 36/3/5 37/3/5
f 39/4/5 38/4/5 37/4/5
f 39/3/5 36/3/5 38/3/5
f 40/3/5 36/3/5 39/3/5
f 41/4/5 40/4/5 39/4/5
f 41/3/5 36/3/5 40/3/5
f 42/3/5 36/3/5 41/3/5
f 43/4/5 42/4/5 41/4/5
f 43/3/5 36/3/5 42/3/5
f 44/3/5 36/3/5 43/3/5
f 45/4/5 44/4/5 43/4/5
f 45/3/5 36/3/5 44/3/5
f 46/3/5 36/3/5 45/3/5
f 47/4/5 46/4/5 45/4/5
f 47/3/5 36/3/5 46/3/5
f 48/3/5 36/3/5 47/3/5
f 49/4/5 48/4/5 47/4/5
f 49/3/5 36/3/5 48/3/5
f 50/3/5 36/3/5 49/3/5
f 51/4/5 50/4/5 49/4/5
f 51/3/5 36/3/5 50/3/5
f 52/3/5 36/3/5 51/3/5
f 53/4/5 52/4/5 51/4/5
f 53/3/5 36/3/5 52/3/5
f 54/3/5 36/3/5 53/3/5
f 55/4/5 39/4/5 37/4/5
f 55/4/5 41/4/5 39/4/5
f 55/4/5 54/4/5 53/4/5
f 55/4/5 53/4/5 51/4/5
f 55/4/5 51/4/5 49/4/5
f 55/4/5 49/4/5 47/4/5
f 55/4/5 47/4/5 45/4/5
f 55/4/5 45/4/5 43/4/5
f 55/4/5 43/4/5 41/4/5
f 56/4/5 54/4/5 55/4/5
f 57/3/5 56/3/5 55/3/5
f 58/4/5 54/4/5 56/4/5
f 58/3/5 56/3/5 57/3/5
f 59/3/5 57/3/5 55/3/5
f 60/4/5 58/4/5 57/4/5
f 60/3/5 57/3/5 59/3/5
f 61/4/5 54/4/5 58/4/5
f 61/4/5 58/4/5 60/4/5
f 61/4/5 60/4/5 59/4/5
f 62/3/5 36/3/5 54/3/5
f 62/4/5 54/4/5 61/4/5
f 63/4/5 61/4/5 59/4/5
f 64/3/5 62/3/5 61/3/5
f 64/4/5 61/4/5 63/4/5
f 65/4/5 63/4/5 59/4/5
f 66/3/5 64/3/5 63/3/5
f 66/4/5 63/4/5 65/4/5
f 67/4/5 65/4/5 59/4/5
f 68/3/5 66/3/5 65/3/5
f 68/4/5 65/4/5 67/4/5
f 69/4/5 67/4/5 59/4/5
f 70/3/5 68/3/5 67/3/5
f 70/4/5 67/4/5 69/4/5
f 71/3/5 70/3/5 69/3/5
f 72/3/5 36/3/5 62/3/5
f 72/3/5 70/3/5 71/3/5
f 72/3/5 62/3/5 64/3/5
f 72/3/5 68/3/5 70/3/5
f 72/3/5 64/3/5 66/3/5
f 72/3/5 66/3/5 68/3/5
f 73/3/6 74/3/6 75/3/6
f 75/3/6 74/3/6 76/3/6
f 75/1/6 76/1/6 77/1/6
f 76/3/6 74/3/6 77/3/6
f 77/3/6 74/3/6 78/3/6
f 77/1/6 78/1/6 79/1/6
f 78/3/6 74/3/6 79/3/6
f 79/3/6 74/3/6 80/3/6
f 75/1/6 77/1/6 81/1/6
f 77/1/6 79/1/6 81/1/6
f 79/1/6 80/1/6 81/1/6
f 81/1/6 80/1/6 82/1/6
f 81/2/6 82/2/6 83/2/6
f 82/1/6 80/1/6 83/1/6
f 83/1/6 80/1/6 84/1/6
f 80/3/6 74/3/6 85/3/6
f 84/1/6 80/1/6 85/1/6
f 85/3/6 74/3/6 86/3/6
f 84/1/6 85/1/6 87/1/6
f 86/3/6 74/3/6 87/3/6
f 85/1/6 86/1/6 87/1/6
f 87/3/6 74/3/6 88/3/6
f 83/2/6 84/2/6 89/2/6
f 84/1/6 87/1/6 89/1/6
f 87/1/6 88/1/6 89/1/6
f 89/1/6 88/1/6 90/1/6
f 88/3/6 74/3/6 91/3/6
f 90/1/6 88/1/6 91/1/6
f 91/3/6 74/3/6 92/3/6
f 89/2/6 90/2/6 93/2/6
f 90/1/6 91/1/6 93/1/6
f 91/1/6 92/1/6 93/1/6
f 93/1/6 92/1/6 94/1/6
f 92/3/6 74/3/6 95/3/6
f 94/1/6 92/1/6 95/1/6
f 95/3/6 74/3/6 96/3/6
f 93/2/6 94/2/6 97/2/6
f 94/1/6 95/1/6 97/1/6
f 95/1/6 96/1/6 97/1/6
f 97/1/6 96/1/6 98/1/6
f 96/3/6 74/3/6 99/3/6
f 98/1/6 96/1/6 99/1/6
f 99/3/6 74/3/6 100/3/6
f 97/2/6 98/2/6 101/2/6
f 98/1/6 99/1/6 101/1/6
f 99/1/6 100/1/6 101/1/6
f 101/1/6 100/1/6 102/1/6
f 101/2/6 102/2/6 103/2/6
f 102/1/6 100/1/6 103/1/6
f 100/3/6 74/3/6 104/3/6
f 103/1/6 100/1/6 104/1/6
f 104/3/6 74/3/6 105/3/6
f 104/1/6 105/1/6 106/1/6
f 105/3/6 74/3/6 106/3/6
f 106/3/6 74/3/6 107/3/6
f 103/2/6 104/2/6 108/2/6
f 104/1/6 106/1/6 108/1/6
f 106/1/6 107/1/6 108/1/6
f 108/1/6 107/1/6 109/1/6
f 107/3/6 74/3/6 110/3/6
f 109/1/6 107/1/6 110/1/6
f 110/3/6 74/3/6 111/3/6
f 108/2/6 109/2/6 112/2/6
f 109/1/6 110/1/6 112/1/6
f 110/1/6 111/1/6 112/1/6
f 112/1/6 111/1/6 113/1/6
f 111/3/6 74/3/6 114/3/6
f 113/1/6 111/1/6 114/1/6
f 114/3/6 74/3/6 115/3/6
f 113/1/6 114/1/6 116/1/6
f 115/3/6 74/3/6 116/3/6
f 114/1/6 115/1/6 116/1/6
f 116/3/6 74/3/6 117/3/6
f 112/2/6 113/2/6 118/2/6
f 113/1/6 116/1/6 118/1/6
f 116/1/6 117/1/6 118/1/6
f 118/1/6 117/1/6 119/1/6
f 117/3/6 74/3/6 120/3/6
f 119/1/6 117/1/6 120/1/6
f 120/3/6 74/3/6 121/3/6
f 118/2/6 119/2/6 122/2/6
f 119/1/6 120/1/6 122/1/6
f 120/1/6 121/1/6 122/1/6
f 122/1/6 121/1/6 123/1/6
f 122/2/6 123/2/6 124/2/6
f 123/1/6 121/1/6 124/1/6
f 124/1/6 121/1/6 125/1/6
f 121/3/6 74/3/6 126/3/6
f 125/1/6 121/1/6 126/1/6
f 126/3/6 74/3/6 127/3/6
f 125/1/6 126/1/6 128/1/6
f 127/3/6 74/3/6 128/3/6
f 126/1/6 127/1/6 128/1/6
f 128/3/6 74/3/6 129/3/6
f 124/2/6 125/2/6 130/2/6
f 125/1/6 128/1/6 130/1/6
f 128/1/6 129/1/6 130/1/6
f 130/1/6 129/1/6 131/1/6
f 129/3/6 74/3/6 132/3/6
f 131/1/6 129/1/6 132/1/6
f 132/3/6 74/3/6 133/3/6
f 132/1/6 133/1/6 134/1/6
f 133/3/6 74/3/6 134/3/6
f 134/3/6 74/3/6 135/3/6
f 130/2/6 131/2/6 136/2/6
f 131/1/6 132/1/6 136/1/6
f 134/1/6 135/1/6 136/1/6
f 132/1/6 134/1/6 136/1/6
f 136/1/6 135/1/6 137/1/6
f 135/3/6 74/3/6 138/3/6
f 137/1/6 135/1/6 138/1/6
f 138/3/6 74/3/6 139/3/6
f 138/1/6 139/1/6 140/1/6
f 139/3/6 74/3/6 140/3/6
f 140/3/6 74/3/6 141/3/6
f 136/2/6 137/2/6 142/2/6
f 137/1/6 138/1/6 142/1/6
f 140/1/6 141/1/6 142/1/6
f 138/1/6 140/1/6 142/1/6
f 142/1/6 141/1/6 143/1/6
f 141/3/6 74/3/6 144/3/6
f 143/1/6 141/1/6 144/1/6
f 144/3/6 74/3/6 145/3/6
f 142/2/6 143/2/6 146/2/6
f 143/1/6 144/1/6 146/1/6
f 144/1/6 145/1/6 146/1/6
f 146/1/6 145/1/6 147/1/6
f 145/3/6 74/3/6 148/3/6
f 147/1/6 145/1/6 148/1/6
f 148/3/6 74/3/6 149/3/6
f 146/2/6 147/2/6 150/2/6
f 147/1/6 148/1/6 150/1/6
f 148/1/6 149/1/6 150/1/6
f 150/1/6 149/1/6 151/1/6
f 149/3/6 74/3/6 152/3/6
f 151/1/6 149/1/6 152/1/6
f 152/3/6 74/3/6 153/3/6
f 150/2/6 151/2/6 154/2/6
f 151/1/6 152/1/6 154/1/6
f 152/1/6 153/1/6 154/1/6
f 154/1/6 153/1/6 155/1/6
f 153/3/6 74/3/6 156/3/6
f 155/1/6 153/1/6 156/1/6
f 156/3/6 74/3/6 157/3/6
f 154/2/6 155/2/6 158/2/6
f 155/1/6 156/1/6 158/1/6
f 156/1/6 157/1/6 158/1/6
f 158/1/6 157/1/6 159/1/6
f 157/3/6 74/3/6 160/3/6
f 159/1/6 157/1/6 160/1/6
f 160/3/6 74/3/6 161/3/6
f 159/1/6 160/1/6 162/1/6
f 161/3/6 74/3/6 162/3/6
f 160/1/6 161/1/6 162/1/6
f 162/3/6 74/3/6 163/3/6
f 159/1/6 162/1/6 164/1/6
f 162/1/6 163/1/6 164/1/6
f 163/3/6 74/3/6 165/3/6
f 164/1/6 163/1/6 165/1/6
f 159/1/6 164/1/6 166/1/6
f 164/3/6 165/3/6 166/3/6
f 165/3/6 74/3/6 167/3/6
f 166/3/6 165/3/6 167/3/6
f 159/1/6 166/1/6 168/1/6
f 166/1/6 167/1/6 168/1/6
f 167/3/6 74/3/6 169/3/6
f 168/1/6 167/1/6 169/1/6
f 159/1/6 168/1/6 170/1/6
f 168/3/6 169/3/6 170/3/6
f 169/3/6 74/3/6 171/3/6
f 170/3/6 169/3/6 171/3/6
f 159/1/6 170/1/6 172/1/6
f 170/1/6 171/1/6 172/1/6
f 171/3/6 74/3/6 173/3/6
f 172/1/6 171/1/6 173/1/6
f 158/2/6 159/2/6 174/2/6
f 159/1/6 172/1/6 174/1/6
f 174/1/6 172/1/6 175/1/6
f 158/2/6 174/2/6 176/2/6
f 174/2/6 175/2/6 176/2/6
f 175/1/6 172/1/6 177/1/6
f 176/2/6 175/2/6 177/2/6
f 154/2/6 158/2/6 178/2/6
f 158/2/6 176/2/6 178/2/6
f 176/1/6 177/1/6 179/1/6
f 178/2/6 176/2/6 179/2/6
f 177/1/6 172/1/6 180/1/6
f 179/1/6 177/1/6 180/1/6
f 178/1/6 179/1/6 180/1/6
f 172/3/6 173/3/6 181/3/6
f 180/1/6 172/1/6 181/1/6
f 178/1/6 180/1/6 182/1/6
f 180/3/6 181/3/6 183/3/6
f 182/1/6 180/1/6 183/1/6
f 150/2/6 154/2/6 184/2/6
f 154/2/6 178/2/6 184/2/6
f 178/1/6 182/1/6 185/1/6
f 184/2/6 178/2/6 185/2/6
f 184/1/6 185/1/6 186/1/6
f 185/1/6 182/1/6 186/1/6
f 182/3/6 183/3/6 187/3/6
f 186/1/6 182/1/6 187/1/6
f 146/2/6 150/2/6 188/2/6
f 150/2/6 184/2/6 188/2/6
f 184/1/6 186/1/6 189/1/6
f 188/2/6 184/2/6 189/2/6
f 189/1/6 186/1/6 190/1/6
f 186/3/6 187/3/6 191/3/6
f 190/1/6 186/1/6 191/1/6
f 146/2/6 188/2/6 192/2/6
f 189/1/6 190/1/6 193/1/6
f 192/2/6 188/2/6 193/2/6
f 188/1/6 189/1/6 193/1/6
f 193/1/6 190/1/6 194/1/6
f 190/3/6 191/3/6 195/3/6
f 194/1/6 190/1/6 195/1/6
f 146/2/6 192/2/6 196/2/6
f 193/1/6 194/1/6 196/1/6
f 192/1/6 193/1/6 196/1/6
f 196/1/6 194/1/6 197/1/6
f 146/2/6 196/2/6 198/2/6
f 196/2/6 197/2/6 198/2/6
f 197/1/6 194/1/6 199/1/6
f 198/2/6 197/2/6 199/2/6
f 142/2/6 146/2/6 200/2/6
f 146/2/6 198/2/6 200/2/6
f 198/1/6 199/1/6 201/1/6
f 200/2/6 198/2/6 201/2/6
f 199/1/6 194/1/6 202/1/6
f 201/1/6 199/1/6 202/1/6
f 194/3/6 195/3/6 203/3/6
f 202/1/6 194/1/6 203/1/6
f 136/2/6 142/2/6 204/2/6
f 142/2/6 200/2/6 204/2/6
f 200/1/6 201/1/6 205/1/6
f 204/2/6 200/2/6 205/2/6
f 201/1/6 202/1/6 205/1/6
f 205/1/6 202/1/6 206/1/6
f 202/3/6 203/3/6 207/3/6
f 206/1/6 202/1/6 207/1/6
f 136/2/6 204/2/6 208/2/6
f 205/1/6 206/1/6 209/1/6
f 208/2/6 204/2/6 209/2/6
f 204/1/6 205/1/6 209/1/6
f 208/1/6 209/1/6 210/1/6
f 209/1/6 206/1/6 210/1/6
f 206/3/6 207/3/6 211/3/6
f 210/1/6 206/1/6 211/1/6
f 130/2/6 136/2/6 212/2/6
f 136/2/6 208/2/6 212/2/6
f 208/1/6 210/1/6 213/1/6
f 212/2/6 208/2/6 213/2/6
f 213/1/6 210/1/6 214/1/6
f 210/3/6 211/3/6 215/3/6
f 214/1/6 210/1/6 215/1/6
f 124/2/6 130/2/6 216/2/6
f 130/2/6 212/2/6 216/2/6
f 213/1/6 214/1/6 217/1/6
f 216/2/6 212/2/6 217/2/6
f 212/1/6 213/1/6 217/1/6
f 217/1/6 214/1/6 218/1/6
f 214/3/6 215/3/6 219/3/6
f 218/1/6 214/1/6 219/1/6
f 217/1/6 218/1/6 220/1/6
f 216/1/6 217/1/6 220/1/6
f 218/3/6 219/3/6 221/3/6
f 220/1/6 218/1/6 221/1/6
f 122/2/6 124/2/6 222/2/6
f 124/2/6 216/2/6 222/2/6
f 216/1/6 220/1/6 223/1/6
f 222/2/6 216/2/6 223/2/6
f 222/1/6 223/1/6 224/1/6
f 223/1/6 220/1/6 224/1/6
f 220/3/6 221/3/6 225/3/6
f 224/1/6 220/1/6 225/1/6
f 101/2/6 103/2/6 226/2/6
f 81/2/6 83/2/6 226/2/6
f 83/2/6 89/2/6 226/2/6
f 122/2/6 222/2/6 226/2/6
f 89/2/6 93/2/6 226/2/6
f 93/2/6 97/2/6 226/2/6
f 97/2/6 101/2/6 226/2/6
f 103/2/6 108/2/6 226/2/6
f 108/2/6 112/2/6 226/2/6
f 112/2/6 118/2/6 226/2/6
f 118/2/6 122/2/6 226/2/6
f 222/1/6 224/1/6 227/1/6
f 226/2/6 222/2/6 227/2/6
f 224/3/6 225/3/6 228/3/6
f 227/1/6 224/1/6 228/1/6
f 225/3/6 221/3/6 229/3/6
f 228/3/6 225/3/6 229/3/6
f 219/3/6 215/3/6 229/3/6
f 203/3/6 195/3/6 229/3/6
f 211/3/6 207/3/6 229/3/6
f 215/3/6 211/3/6 229/3/6
f 221/3/6 219/3/6 229/3/6
f 207/3/6 203/3/6 229/3/6
f 187/3/6 183/3/6 229/3/6
f 183/3/6 181/3/6 229/3/6
f 191/3/6 187/3/6 229/3/6
f 173/3/6 74/3/6 229/3/6
f 181/3/6 173/3/6 229/3/6
f 195/3/6 191/3/6 229/3/6
