# MagicaVoxel @ Ephtracy

# group
g map-1

# material
mtllib map-1.mtl
usemtl palette

# normals
vn -1 0 0
vn 1 0 0
vn 0 0 1
vn 0 0 -1
vn 0 -1 0
vn 0 1 0

# texcoords
vt 0.201172 0.5
vt 0.205078 0.5
vt 0.912109 0.5
vt 0.962891 0.5

# verts
v -63 0 63
v -63 0 -63
v -63 13 63
v -63 13 -63
v 63 0 63
v 63 0 -63
v 63 13 63
v 63 13 -63
v -63 0 63
v -63 13 63
v -15 2 63
v -15 4 63
v -14 2 63
v -14 3 63
v -14 4 63
v -14 10 63
v -13 3 63
v -13 9 63
v -13 10 63
v -13 13 63
v -12 0 63
v -12 9 63
v -12 12 63
v -11 12 63
v -11 13 63
v 8 0 63
v 8 12 63
v 9 11 63
v 9 12 63
v 9 13 63
v 10 11 63
v 10 12 63
v 11 12 63
v 11 13 63
v 63 0 63
v 63 13 63
v -63 0 -63
v -63 13 -63
v 13 0 -63
v 13 12 -63
v 13 13 -63
v 15 12 -63
v 15 13 -63
v 35 0 -63
v 35 12 -63
v 39 12 -63
v 39 13 -63
v 41 12 -63
v 41 13 -63
v 63 0 -63
v 63 13 -63
v -63 0 63
v -12 0 63
v 8 0 63
v 63 0 63
v 8 0 51
v 9 0 51
v 9 0 45
v 10 0 45
v 10 0 40
v 11 0 40
v -12 0 32
v -11 0 32
v 11 0 30
v 13 0 30
v -11 0 26
v -10 0 26
v 13 0 22
v 14 0 22
v -10 0 20
v -9 0 20
v 14 0 15
v 16 0 15
v -9 0 10
v -7 0 10
v 16 0 7
v 17 0 7
v -7 0 2
v -6 0 2
v 17 0 2
v 19 0 2
v 19 0 -4
v 20 0 -4
v -6 0 -5
v -4 0 -5
v 20 0 -8
v 22 0 -8
v -4 0 -13
v -3 0 -13
v 22 0 -13
v 23 0 -13
v -3 0 -18
v -1 0 -18
v 23 0 -18
v 24 0 -18
v 24 0 -20
v 25 0 -20
v -1 0 -24
v 0 0 -24
v 25 0 -24
v 26 0 -24
v 0 0 -28
v 2 0 -28
v 26 0 -28
v 27 0 -28
v 27 0 -31
v 29 0 -31
v 2 0 -32
v 3 0 -32
v 29 0 -34
v 30 0 -34
v 3 0 -37
v 4 0 -37
v 30 0 -37
v 31 0 -37
v 31 0 -38
v 32 0 -38
v 4 0 -39
v 5 0 -39
v 32 0 -41
v 33 0 -41
v 5 0 -44
v 6 0 -44
v 33 0 -44
v 34 0 -44
v 34 0 -45
v 35 0 -45
v 6 0 -48
v 7 0 -48
v 7 0 -51
v 9 0 -51
v 9 0 -54
v 10 0 -54
v 10 0 -56
v 11 0 -56
v 11 0 -57
v 12 0 -57
v 12 0 -61
v 13 0 -61
v -63 0 -63
v 13 0 -63
v 35 0 -63
v 63 0 -63
v -63 13 63
v -13 13 63
v -11 13 63
v 9 13 63
v 11 13 63
v 63 13 63
v 8 13 60
v 9 13 60
v 10 13 57
v 11 13 57
v 8 13 56
v 9 13 56
v 10 13 52
v 11 13 52
v -12 13 45
v -11 13 45
v 9 13 44
v 10 13 44
v -12 13 43
v -11 13 43
v 11 13 43
v 12 13 43
v 10 13 39
v 11 13 39
v 12 13 38
v 13 13 38
v -11 13 37
v -10 13 37
v -13 13 34
v -12 13 34
v -11 13 34
v -10 13 34
v -13 13 33
v -12 13 33
v 11 13 33
v 12 13 33
v -13 13 32
v -12 13 32
v 13 13 31
v 14 13 31
v -11 13 30
v -10 13 30
v -12 13 28
v -11 13 28
v 12 13 28
v 13 13 28
v -10 13 27
v -9 13 27
v 14 13 26
v 15 13 26
v -12 13 25
v -11 13 25
v -12 13 23
v -11 13 23
v -11 13 21
v -10 13 21
v 13 13 21
v 14 13 21
v 15 13 21
v 16 13 21
v -11 13 20
v -10 13 20
v -9 13 20
v -8 13 20
v -11 13 19
v -10 13 19
v 14 13 17
v 15 13 17
v 16 13 17
v 17 13 17
v -8 13 14
v -7 13 14
v -10 13 12
v -9 13 12
v 15 13 12
v 16 13 12
v 17 13 12
v 18 13 12
v -7 13 10
v -6 13 10
v -9 13 9
v -8 13 9
v 18 13 9
v 19 13 9
v 16 13 8
v 17 13 8
v 17 13 5
v 18 13 5
v 19 13 5
v 20 13 5
v -8 13 3
v -7 13 3
v 18 13 2
v 19 13 2
v -6 13 1
v -5 13 1
v 20 13 1
v 21 13 1
v 19 13 -1
v 20 13 -1
v 21 13 -1
v 22 13 -1
v 20 13 -3
v 21 13 -3
v 22 13 -3
v 23 13 -3
v -7 13 -4
v -6 13 -4
v -5 13 -5
v -4 13 -5
v 21 13 -6
v 22 13 -6
v 23 13 -6
v 24 13 -6
v -6 13 -7
v -5 13 -7
v 22 13 -8
v 23 13 -8
v 24 13 -8
v 25 13 -8
v -4 13 -9
v -3 13 -9
v 25 13 -10
v 26 13 -10
v 23 13 -11
v 24 13 -11
v -3 13 -12
v -2 13 -12
v -5 13 -15
v -4 13 -15
v -5 13 -16
v -4 13 -16
v -2 13 -16
v -1 13 -16
v 24 13 -16
v 25 13 -16
v -5 13 -17
v -4 13 -17
v -4 13 -18
v -3 13 -18
v 26 13 -18
v 27 13 -18
v 25 13 -20
v 26 13 -20
v -3 13 -21
v -2 13 -21
v -1 13 -22
v 0 13 -22
v 27 13 -23
v 28 13 -23
v -2 13 -24
v -1 13 -24
v 0 13 -24
v 1 13 -24
v 26 13 -24
v 27 13 -24
v 28 13 -25
v 29 13 -25
v -1 13 -26
v 0 13 -26
v 29 13 -26
v 30 13 -26
v 1 13 -27
v 2 13 -27
v 0 13 -28
v 1 13 -28
v 27 13 -28
v 28 13 -28
v 2 13 -29
v 3 13 -29
v 30 13 -29
v 31 13 -29
v 28 13 -30
v 29 13 -30
v 1 13 -31
v 2 13 -31
v 3 13 -31
v 4 13 -31
v 29 13 -32
v 30 13 -32
v 31 13 -32
v 32 13 -32
v 2 13 -34
v 3 13 -34
v 4 13 -34
v 5 13 -34
v 30 13 -34
v 31 13 -34
v 32 13 -35
v 33 13 -35
v 3 13 -37
v 4 13 -37
v 5 13 -37
v 6 13 -37
v 31 13 -39
v 32 13 -39
v 33 13 -39
v 34 13 -39
v 6 13 -40
v 7 13 -40
v 4 13 -41
v 5 13 -41
v 32 13 -41
v 33 13 -41
v 34 13 -41
v 35 13 -41
v 7 13 -43
v 8 13 -43
v 33 13 -43
v 34 13 -43
v 35 13 -43
v 36 13 -43
v 5 13 -44
v 6 13 -44
v 5 13 -45
v 6 13 -45
v 36 13 -46
v 37 13 -46
v 5 13 -47
v 6 13 -47
v 34 13 -47
v 35 13 -47
v 8 13 -48
v 9 13 -48
v 6 13 -49
v 7 13 -49
v 35 13 -49
v 36 13 -49
v 9 13 -50
v 10 13 -50
v 7 13 -51
v 8 13 -51
v 7 13 -52
v 8 13 -52
v 37 13 -52
v 38 13 -52
v 7 13 -53
v 9 13 -53
v 10 13 -53
v 12 13 -53
v 36 13 -53
v 37 13 -53
v 9 13 -54
v 10 13 -54
v 12 13 -55
v 13 13 -55
v 10 13 -56
v 11 13 -56
v 13 13 -56
v 14 13 -56
v 38 13 -56
v 39 13 -56
v 11 13 -58
v 12 13 -58
v 14 13 -59
v 15 13 -59
v 37 13 -59
v 38 13 -59
v 39 13 -60
v 40 13 -60
v 12 13 -61
v 13 13 -61
v 38 13 -62
v 39 13 -62
v 40 13 -62
v 41 13 -62
v -63 13 -63
v 13 13 -63
v 15 13 -63
v 39 13 -63
v 41 13 -63
v 63 13 -63

# faces
f 3/3/1 2/3/1 1/3/1
f 4/3/1 2/3/1 3/3/1
f 5/3/2 6/3/2 7/3/2
f 7/3/2 6/3/2 8/3/2
f 11/3/3 10/3/3 9/3/3
f 12/3/3 10/3/3 11/3/3
f 13/3/3 11/3/3 9/3/3
f 13/1/3 12/1/3 11/1/3
f 14/1/3 12/1/3 13/1/3
f 15/3/3 10/3/3 12/3/3
f 15/1/3 12/1/3 14/1/3
f 16/3/3 10/3/3 15/3/3
f 17/3/3 14/3/3 13/3/3
f 17/1/3 15/1/3 14/1/3
f 17/1/3 16/1/3 15/1/3
f 18/1/3 16/1/3 17/1/3
f 19/3/3 10/3/3 16/3/3
f 19/1/3 16/1/3 18/1/3
f 20/3/3 10/3/3 19/3/3
f 21/3/3 18/3/3 17/3/3
f 21/3/3 13/3/3 9/3/3
f 21/3/3 17/3/3 13/3/3
f 22/1/3 20/1/3 19/1/3
f 22/3/3 18/3/3 21/3/3
f 22/1/3 19/1/3 18/1/3
f 23/1/3 20/1/3 22/1/3
f 24/4/3 22/4/3 21/4/3
f 24/1/3 20/1/3 23/1/3
f 24/4/3 23/4/3 22/4/3
f 25/1/3 20/1/3 24/1/3
f 26/4/3 24/4/3 21/4/3
f 27/2/3 25/2/3 24/2/3
f 27/4/3 24/4/3 26/4/3
f 28/3/3 27/3/3 26/3/3
f 29/2/3 25/2/3 27/2/3
f 29/3/3 27/3/3 28/3/3
f 30/2/3 25/2/3 29/2/3
f 31/3/3 28/3/3 26/3/3
f 31/1/3 29/1/3 28/1/3
f 31/1/3 30/1/3 29/1/3
f 32/1/3 30/1/3 31/1/3
f 33/3/3 32/3/3 31/3/3
f 33/1/3 30/1/3 32/1/3
f 34/1/3 30/1/3 33/1/3
f 35/3/3 31/3/3 26/3/3
f 35/3/3 33/3/3 31/3/3
f 35/3/3 34/3/3 33/3/3
f 36/3/3 34/3/3 35/3/3
f 37/3/4 38/3/4 39/3/4
f 39/3/4 38/3/4 40/3/4
f 40/3/4 38/3/4 41/3/4
f 39/4/4 40/4/4 42/4/4
f 40/1/4 41/1/4 42/1/4
f 42/1/4 41/1/4 43/1/4
f 39/4/4 42/4/4 44/4/4
f 42/2/4 43/2/4 45/2/4
f 44/4/4 42/4/4 45/4/4
f 44/3/4 45/3/4 46/3/4
f 45/2/4 43/2/4 46/2/4
f 46/2/4 43/2/4 47/2/4
f 44/3/4 46/3/4 48/3/4
f 46/1/4 47/1/4 48/1/4
f 48/1/4 47/1/4 49/1/4
f 44/3/4 48/3/4 50/3/4
f 48/3/4 49/3/4 50/3/4
f 50/3/4 49/3/4 51/3/4
f 56/4/5 54/4/5 53/4/5
f 56/3/5 55/3/5 54/3/5
f 57/3/5 55/3/5 56/3/5
f 58/4/5 57/4/5 56/4/5
f 58/3/5 55/3/5 57/3/5
f 59/3/5 55/3/5 58/3/5
f 60/4/5 59/4/5 58/4/5
f 60/3/5 55/3/5 59/3/5
f 61/3/5 55/3/5 60/3/5
f 62/3/5 53/3/5 52/3/5
f 62/4/5 56/4/5 53/4/5
f 62/4/5 61/4/5 60/4/5
f 62/4/5 60/4/5 58/4/5
f 62/4/5 58/4/5 56/4/5
f 63/4/5 61/4/5 62/4/5
f 64/3/5 55/3/5 61/3/5
f 64/4/5 61/4/5 63/4/5
f 65/3/5 55/3/5 64/3/5
f 66/3/5 63/3/5 62/3/5
f 66/4/5 64/4/5 63/4/5
f 66/4/5 65/4/5 64/4/5
f 67/4/5 65/4/5 66/4/5
f 68/3/5 55/3/5 65/3/5
f 68/4/5 65/4/5 67/4/5
f 69/3/5 55/3/5 68/3/5
f 70/3/5 67/3/5 66/3/5
f 70/4/5 68/4/5 67/4/5
f 70/4/5 69/4/5 68/4/5
f 71/4/5 69/4/5 70/4/5
f 72/3/5 55/3/5 69/3/5
f 72/4/5 69/4/5 71/4/5
f 73/3/5 55/3/5 72/3/5
f 74/3/5 71/3/5 70/3/5
f 74/4/5 72/4/5 71/4/5
f 74/4/5 73/4/5 72/4/5
f 75/4/5 73/4/5 74/4/5
f 76/3/5 55/3/5 73/3/5
f 76/4/5 73/4/5 75/4/5
f 77/3/5 55/3/5 76/3/5
f 78/3/5 75/3/5 74/3/5
f 78/4/5 76/4/5 75/4/5
f 78/4/5 77/4/5 76/4/5
f 79/4/5 77/4/5 78/4/5
f 80/3/5 55/3/5 77/3/5
f 80/4/5 77/4/5 79/4/5
f 81/3/5 55/3/5 80/3/5
f 82/4/5 80/4/5 79/4/5
f 82/3/5 55/3/5 81/3/5
f 82/4/5 81/4/5 80/4/5
f 83/3/5 55/3/5 82/3/5
f 84/3/5 79/3/5 78/3/5
f 84/4/5 82/4/5 79/4/5
f 84/4/5 83/4/5 82/4/5
f 85/4/5 83/4/5 84/4/5
f 86/3/5 55/3/5 83/3/5
f 86/4/5 83/4/5 85/4/5
f 87/3/5 55/3/5 86/3/5
f 88/3/5 85/3/5 84/3/5
f 88/4/5 86/4/5 85/4/5
f 88/4/5 87/4/5 86/4/5
f 89/4/5 87/4/5 88/4/5
f 90/3/5 55/3/5 87/3/5
f 90/4/5 87/4/5 89/4/5
f 91/3/5 55/3/5 90/3/5
f 92/3/5 89/3/5 88/3/5
f 92/4/5 90/4/5 89/4/5
f 92/4/5 91/4/5 90/4/5
f 93/4/5 91/4/5 92/4/5
f 94/3/5 55/3/5 91/3/5
f 94/4/5 91/4/5 93/4/5
f 95/3/5 55/3/5 94/3/5
f 96/4/5 94/4/5 93/4/5
f 96/3/5 55/3/5 95/3/5
f 96/4/5 95/4/5 94/4/5
f 97/3/5 55/3/5 96/3/5
f 98/3/5 93/3/5 92/3/5
f 98/4/5 96/4/5 93/4/5
f 98/4/5 97/4/5 96/4/5
f 99/4/5 97/4/5 98/4/5
f 100/3/5 55/3/5 97/3/5
f 100/4/5 97/4/5 99/4/5
f 101/3/5 55/3/5 100/3/5
f 102/3/5 99/3/5 98/3/5
f 102/4/5 100/4/5 99/4/5
f 102/4/5 101/4/5 100/4/5
f 103/4/5 101/4/5 102/4/5
f 104/3/5 55/3/5 101/3/5
f 104/4/5 101/4/5 103/4/5
f 105/3/5 55/3/5 104/3/5
f 106/4/5 104/4/5 103/4/5
f 106/3/5 55/3/5 105/3/5
f 106/4/5 105/4/5 104/4/5
f 107/3/5 55/3/5 106/3/5
f 108/3/5 103/3/5 102/3/5
f 108/4/5 106/4/5 103/4/5
f 108/4/5 107/4/5 106/4/5
f 109/4/5 107/4/5 108/4/5
f 110/3/5 55/3/5 107/3/5
f 110/4/5 107/4/5 109/4/5
f 111/3/5 55/3/5 110/3/5
f 112/3/5 109/3/5 108/3/5
f 112/4/5 110/4/5 109/4/5
f 112/4/5 111/4/5 110/4/5
f 113/4/5 111/4/5 112/4/5
f 114/3/5 55/3/5 111/3/5
f 114/4/5 111/4/5 113/4/5
f 115/3/5 55/3/5 114/3/5
f 116/4/5 114/4/5 113/4/5
f 116/3/5 55/3/5 115/3/5
f 116/4/5 115/4/5 114/4/5
f 117/3/5 55/3/5 116/3/5
f 118/3/5 113/3/5 112/3/5
f 118/4/5 116/4/5 113/4/5
f 118/4/5 117/4/5 116/4/5
f 119/4/5 117/4/5 118/4/5
f 120/3/5 55/3/5 117/3/5
f 120/4/5 117/4/5 119/4/5
f 121/3/5 55/3/5 120/3/5
f 122/3/5 119/3/5 118/3/5
f 122/4/5 120/4/5 119/4/5
f 122/4/5 121/4/5 120/4/5
f 123/4/5 121/4/5 122/4/5
f 124/3/5 55/3/5 121/3/5
f 124/4/5 121/4/5 123/4/5
f 125/3/5 55/3/5 124/3/5
f 126/4/5 124/4/5 123/4/5
f 126/3/5 55/3/5 125/3/5
f 126/4/5 125/4/5 124/4/5
f 127/3/5 55/3/5 126/3/5
f 128/3/5 123/3/5 122/3/5
f 128/4/5 126/4/5 123/4/5
f 128/4/5 127/4/5 126/4/5
f 129/4/5 127/4/5 128/4/5
f 130/3/5 129/3/5 128/3/5
f 130/4/5 127/4/5 129/4/5
f 131/4/5 127/4/5 130/4/5
f 132/3/5 131/3/5 130/3/5
f 132/4/5 127/4/5 131/4/5
f 133/4/5 127/4/5 132/4/5
f 134/3/5 133/3/5 132/3/5
f 134/4/5 127/4/5 133/4/5
f 135/4/5 127/4/5 134/4/5
f 136/3/5 135/3/5 134/3/5
f 136/4/5 127/4/5 135/4/5
f 137/4/5 127/4/5 136/4/5
f 138/3/5 137/3/5 136/3/5
f 138/4/5 127/4/5 137/4/5
f 139/4/5 127/4/5 138/4/5
f 140/3/5 62/3/5 52/3/5
f 140/3/5 66/3/5 62/3/5
f 140/3/5 139/3/5 138/3/5
f 140/3/5 138/3/5 136/3/5
f 140/3/5 136/3/5 134/3/5
f 140/3/5 134/3/5 132/3/5
f 140/3/5 132/3/5 130/3/5
f 140/3/5 130/3/5 128/3/5
f 140/3/5 128/3/5 122/3/5
f 140/3/5 122/3/5 118/3/5
f 140/3/5 118/3/5 112/3/5
f 140/3/5 112/3/5 108/3/5
f 140/3/5 108/3/5 102/3/5
f 140/3/5 102/3/5 98/3/5
f 140/3/5 98/3/5 92/3/5
f 140/3/5 92/3/5 88/3/5
f 140/3/5 88/3/5 84/3/5
f 140/3/5 84/3/5 78/3/5
f 140/3/5 78/3/5 74/3/5
f 140/3/5 74/3/5 70/3/5
f 140/3/5 70/3/5 66/3/5
f 141/4/5 127/4/5 139/4/5
f 141/3/5 139/3/5 140/3/5
f 142/3/5 55/3/5 127/3/5
f 142/4/5 127/4/5 141/4/5
f 143/3/5 55/3/5 142/3/5
f 146/2/6 147/2/6 150/2/6
f 147/1/6 148/1/6 151/1/6
f 150/2/6 147/2/6 151/2/6
f 150/1/6 151/1/6 152/1/6
f 151/1/6 148/1/6 152/1/6
f 148/3/6 149/3/6 153/3/6
f 152/1/6 148/1/6 153/1/6
f 150/1/6 152/1/6 154/1/6
f 146/2/6 150/2/6 154/2/6
f 154/1/6 152/1/6 155/1/6
f 152/3/6 153/3/6 156/3/6
f 155/1/6 152/1/6 156/1/6
f 153/3/6 149/3/6 157/3/6
f 156/3/6 153/3/6 157/3/6
f 145/1/6 146/1/6 158/1/6
f 154/2/6 155/2/6 159/2/6
f 158/1/6 146/1/6 159/1/6
f 146/2/6 154/2/6 159/2/6
f 155/1/6 156/1/6 160/1/6
f 159/2/6 155/2/6 160/2/6
f 158/2/6 159/2/6 160/2/6
f 156/1/6 157/1/6 160/1/6
f 160/1/6 157/1/6 161/1/6
f 145/1/6 158/1/6 162/1/6
f 158/2/6 160/2/6 162/2/6
f 160/2/6 161/2/6 162/2/6
f 162/2/6 161/2/6 163/2/6
f 157/3/6 149/3/6 164/3/6
f 161/1/6 157/1/6 164/1/6
f 164/3/6 149/3/6 165/3/6
f 163/2/6 161/2/6 166/2/6
f 161/1/6 164/1/6 166/1/6
f 164/1/6 165/1/6 166/1/6
f 166/1/6 165/1/6 167/1/6
f 165/3/6 149/3/6 168/3/6
f 167/1/6 165/1/6 168/1/6
f 168/3/6 149/3/6 169/3/6
f 166/2/6 167/2/6 170/2/6
f 162/1/6 163/1/6 170/1/6
f 163/2/6 166/2/6 170/2/6
f 170/2/6 167/2/6 171/2/6
f 144/3/6 145/3/6 172/3/6
f 145/1/6 162/1/6 172/1/6
f 170/1/6 171/1/6 172/1/6
f 162/1/6 170/1/6 172/1/6
f 172/1/6 171/1/6 173/1/6
f 173/1/6 171/1/6 174/1/6
f 171/2/6 167/2/6 175/2/6
f 174/1/6 171/1/6 175/1/6
f 144/3/6 172/3/6 176/3/6
f 172/3/6 173/3/6 176/3/6
f 173/1/6 174/1/6 177/1/6
f 176/3/6 173/3/6 177/3/6
f 168/1/6 169/1/6 178/1/6
f 167/1/6 168/1/6 178/1/6
f 175/2/6 167/2/6 178/2/6
f 174/2/6 175/2/6 178/2/6
f 178/1/6 169/1/6 179/1/6
f 144/3/6 176/3/6 180/3/6
f 176/1/6 177/1/6 180/1/6
f 177/1/6 174/1/6 181/1/6
f 180/1/6 177/1/6 181/1/6
f 179/1/6 169/1/6 182/1/6
f 169/3/6 149/3/6 182/3/6
f 182/3/6 149/3/6 183/3/6
f 181/1/6 174/1/6 184/1/6
f 178/2/6 179/2/6 184/2/6
f 174/2/6 178/2/6 184/2/6
f 184/2/6 179/2/6 185/2/6
f 180/3/6 181/3/6 186/3/6
f 181/1/6 184/1/6 186/1/6
f 184/1/6 185/1/6 186/1/6
f 186/1/6 185/1/6 187/1/6
f 185/2/6 179/2/6 188/2/6
f 182/1/6 183/1/6 188/1/6
f 179/1/6 182/1/6 188/1/6
f 188/1/6 183/1/6 189/1/6
f 187/1/6 185/1/6 190/1/6
f 185/2/6 188/2/6 190/2/6
f 188/2/6 189/2/6 190/2/6
f 190/2/6 189/2/6 191/2/6
f 183/3/6 149/3/6 192/3/6
f 189/1/6 183/1/6 192/1/6
f 192/3/6 149/3/6 193/3/6
f 186/3/6 187/3/6 194/3/6
f 180/3/6 186/3/6 194/3/6
f 190/1/6 191/1/6 195/1/6
f 194/3/6 187/3/6 195/3/6
f 187/1/6 190/1/6 195/1/6
f 180/3/6 194/3/6 196/3/6
f 194/1/6 195/1/6 196/1/6
f 195/1/6 191/1/6 197/1/6
f 196/1/6 195/1/6 197/1/6
f 196/3/6 197/3/6 198/3/6
f 197/1/6 191/1/6 198/1/6
f 198/1/6 191/1/6 199/1/6
f 191/2/6 189/2/6 200/2/6
f 192/1/6 193/1/6 200/1/6
f 189/1/6 192/1/6 200/1/6
f 200/1/6 193/1/6 201/1/6
f 193/3/6 149/3/6 202/3/6
f 201/1/6 193/1/6 202/1/6
f 202/3/6 149/3/6 203/3/6
f 198/3/6 199/3/6 204/3/6
f 196/3/6 198/3/6 204/3/6
f 199/1/6 191/1/6 205/1/6
f 204/3/6 199/3/6 205/3/6
f 200/2/6 201/2/6 206/2/6
f 205/1/6 191/1/6 206/1/6
f 191/2/6 200/2/6 206/2/6
f 206/2/6 201/2/6 207/2/6
f 196/3/6 204/3/6 208/3/6
f 204/1/6 205/1/6 208/1/6
f 206/1/6 207/1/6 208/1/6
f 205/1/6 206/1/6 208/1/6
f 208/1/6 207/1/6 209/1/6
f 207/2/6 201/2/6 210/2/6
f 201/1/6 202/1/6 210/1/6
f 202/1/6 203/1/6 210/1/6
f 210/1/6 203/1/6 211/1/6
f 203/3/6 149/3/6 212/3/6
f 211/1/6 203/1/6 212/1/6
f 212/3/6 149/3/6 213/3/6
f 209/1/6 207/1/6 214/1/6
f 210/2/6 211/2/6 214/2/6
f 207/2/6 210/2/6 214/2/6
f 214/2/6 211/2/6 215/2/6
f 208/3/6 209/3/6 216/3/6
f 209/1/6 214/1/6 216/1/6
f 214/1/6 215/1/6 216/1/6
f 216/1/6 215/1/6 217/1/6
f 215/2/6 211/2/6 218/2/6
f 212/1/6 213/1/6 218/1/6
f 211/1/6 212/1/6 218/1/6
f 218/1/6 213/1/6 219/1/6
f 213/3/6 149/3/6 220/3/6
f 219/1/6 213/1/6 220/1/6
f 220/3/6 149/3/6 221/3/6
f 218/2/6 219/2/6 222/2/6
f 217/1/6 215/1/6 222/1/6
f 215/2/6 218/2/6 222/2/6
f 222/2/6 219/2/6 223/2/6
f 216/3/6 217/3/6 224/3/6
f 217/1/6 222/1/6 224/1/6
f 222/1/6 223/1/6 224/1/6
f 224/1/6 223/1/6 225/1/6
f 221/3/6 149/3/6 226/3/6
f 220/1/6 221/1/6 226/1/6
f 219/1/6 220/1/6 226/1/6
f 226/3/6 149/3/6 227/3/6
f 223/2/6 219/2/6 228/2/6
f 219/1/6 226/1/6 228/1/6
f 226/1/6 227/1/6 228/1/6
f 228/1/6 227/1/6 229/1/6
f 228/2/6 229/2/6 230/2/6
f 229/1/6 227/1/6 230/1/6
f 230/1/6 227/1/6 231/1/6
f 227/3/6 149/3/6 232/3/6
f 231/1/6 227/1/6 232/1/6
f 232/3/6 149/3/6 233/3/6
f 225/1/6 223/1/6 234/1/6
f 224/3/6 225/3/6 234/3/6
f 234/1/6 223/1/6 235/1/6
f 232/1/6 233/1/6 236/1/6
f 230/2/6 231/2/6 236/2/6
f 231/1/6 232/1/6 236/1/6
f 236/1/6 233/1/6 237/1/6
f 235/1/6 223/1/6 238/1/6
f 223/2/6 228/2/6 238/2/6
f 236/2/6 237/2/6 238/2/6
f 230/2/6 236/2/6 238/2/6
f 228/2/6 230/2/6 238/2/6
f 238/2/6 237/2/6 239/2/6
f 233/3/6 149/3/6 240/3/6
f 237/1/6 233/1/6 240/1/6
f 240/3/6 149/3/6 241/3/6
f 239/2/6 237/2/6 242/2/6
f 237/1/6 240/1/6 242/1/6
f 240/1/6 241/1/6 242/1/6
f 242/1/6 241/1/6 243/1/6
f 241/3/6 149/3/6 244/3/6
f 243/1/6 241/1/6 244/1/6
f 244/3/6 149/3/6 245/3/6
f 242/2/6 243/2/6 246/2/6
f 243/1/6 244/1/6 246/1/6
f 244/1/6 245/1/6 246/1/6
f 246/1/6 245/1/6 247/1/6
f 245/3/6 149/3/6 248/3/6
f 247/1/6 245/1/6 248/1/6
f 248/3/6 149/3/6 249/3/6
f 238/1/6 239/1/6 250/1/6
f 234/3/6 235/3/6 250/3/6
f 235/1/6 238/1/6 250/1/6
f 250/1/6 239/1/6 251/1/6
f 246/2/6 247/2/6 252/2/6
f 251/1/6 239/1/6 252/1/6
f 239/2/6 242/2/6 252/2/6
f 242/2/6 246/2/6 252/2/6
f 252/2/6 247/2/6 253/2/6
f 248/1/6 249/1/6 254/1/6
f 253/2/6 247/2/6 254/2/6
f 247/1/6 248/1/6 254/1/6
f 254/1/6 249/1/6 255/1/6
f 249/3/6 149/3/6 256/3/6
f 255/1/6 249/1/6 256/1/6
f 256/3/6 149/3/6 257/3/6
f 250/3/6 251/3/6 258/3/6
f 252/1/6 253/1/6 258/1/6
f 251/1/6 252/1/6 258/1/6
f 258/1/6 253/1/6 259/1/6
f 254/2/6 255/2/6 260/2/6
f 256/1/6 257/1/6 260/1/6
f 255/1/6 256/1/6 260/1/6
f 260/1/6 257/1/6 261/1/6
f 257/3/6 149/3/6 262/3/6
f 261/1/6 257/1/6 262/1/6
f 262/3/6 149/3/6 263/3/6
f 260/2/6 261/2/6 264/2/6
f 259/1/6 253/1/6 264/1/6
f 253/2/6 254/2/6 264/2/6
f 254/2/6 260/2/6 264/2/6
f 264/2/6 261/2/6 265/2/6
f 263/3/6 149/3/6 266/3/6
f 262/1/6 263/1/6 266/1/6
f 261/1/6 262/1/6 266/1/6
f 266/3/6 149/3/6 267/3/6
f 265/2/6 261/2/6 268/2/6
f 261/1/6 266/1/6 268/1/6
f 266/1/6 267/1/6 268/1/6
f 268/1/6 267/1/6 269/1/6
f 264/1/6 265/1/6 270/1/6
f 265/2/6 268/2/6 270/2/6
f 268/2/6 269/2/6 270/2/6
f 270/2/6 269/2/6 271/2/6
f 258/3/6 259/3/6 272/3/6
f 259/1/6 264/1/6 272/1/6
f 270/1/6 271/1/6 272/1/6
f 264/1/6 270/1/6 272/1/6
f 272/1/6 271/1/6 273/1/6
f 258/3/6 272/3/6 274/3/6
f 272/3/6 273/3/6 274/3/6
f 273/1/6 271/1/6 275/1/6
f 274/3/6 273/3/6 275/3/6
f 271/2/6 269/2/6 276/2/6
f 275/1/6 271/1/6 276/1/6
f 276/2/6 269/2/6 277/2/6
f 269/1/6 267/1/6 278/1/6
f 277/2/6 269/2/6 278/2/6
f 278/1/6 267/1/6 279/1/6
f 276/1/6 277/1/6 280/1/6
f 274/1/6 275/1/6 280/1/6
f 258/3/6 274/3/6 280/3/6
f 275/1/6 276/1/6 280/1/6
f 280/1/6 277/1/6 281/1/6
f 280/3/6 281/3/6 282/3/6
f 281/1/6 277/1/6 282/1/6
f 282/1/6 277/1/6 283/1/6
f 267/3/6 149/3/6 284/3/6
f 279/1/6 267/1/6 284/1/6
f 284/3/6 149/3/6 285/3/6
f 278/2/6 279/2/6 286/2/6
f 277/2/6 278/2/6 286/2/6
f 284/1/6 285/1/6 286/1/6
f 279/1/6 284/1/6 286/1/6
f 286/1/6 285/1/6 287/1/6
f 283/1/6 277/1/6 288/1/6
f 282/3/6 283/3/6 288/3/6
f 288/1/6 277/1/6 289/1/6
f 286/2/6 287/2/6 290/2/6
f 289/1/6 277/1/6 290/1/6
f 277/2/6 286/2/6 290/2/6
f 290/2/6 287/2/6 291/2/6
f 287/1/6 285/1/6 292/1/6
f 285/3/6 149/3/6 292/3/6
f 292/3/6 149/3/6 293/3/6
f 288/3/6 289/3/6 294/3/6
f 290/1/6 291/1/6 294/1/6
f 289/1/6 290/1/6 294/1/6
f 294/1/6 291/1/6 295/1/6
f 291/2/6 287/2/6 296/2/6
f 295/1/6 291/1/6 296/1/6
f 296/2/6 287/2/6 297/2/6
f 292/1/6 293/1/6 298/1/6
f 297/2/6 287/2/6 298/2/6
f 287/1/6 292/1/6 298/1/6
f 298/1/6 293/1/6 299/1/6
f 293/3/6 149/3/6 300/3/6
f 299/1/6 293/1/6 300/1/6
f 300/3/6 149/3/6 301/3/6
f 294/3/6 295/3/6 302/3/6
f 296/1/6 297/1/6 302/1/6
f 295/1/6 296/1/6 302/1/6
f 302/1/6 297/1/6 303/1/6
f 301/3/6 149/3/6 304/3/6
f 300/1/6 301/1/6 304/1/6
f 304/3/6 149/3/6 305/3/6
f 303/1/6 297/1/6 306/1/6
f 298/2/6 299/2/6 306/2/6
f 297/2/6 298/2/6 306/2/6
f 306/2/6 299/2/6 307/2/6
f 302/3/6 303/3/6 308/3/6
f 303/1/6 306/1/6 308/1/6
f 306/1/6 307/1/6 308/1/6
f 308/1/6 307/1/6 309/1/6
f 304/1/6 305/1/6 310/1/6
f 307/2/6 299/2/6 310/2/6
f 299/1/6 300/1/6 310/1/6
f 300/1/6 304/1/6 310/1/6
f 310/1/6 305/1/6 311/1/6
f 309/1/6 307/1/6 312/1/6
f 307/2/6 310/2/6 312/2/6
f 310/2/6 311/2/6 312/2/6
f 312/2/6 311/2/6 313/2/6
f 305/3/6 149/3/6 314/3/6
f 311/1/6 305/1/6 314/1/6
f 314/3/6 149/3/6 315/3/6
f 313/2/6 311/2/6 316/2/6
f 311/1/6 314/1/6 316/1/6
f 314/1/6 315/1/6 316/1/6
f 316/1/6 315/1/6 317/1/6
f 312/1/6 313/1/6 318/1/6
f 308/3/6 309/3/6 318/3/6
f 309/1/6 312/1/6 318/1/6
f 318/1/6 313/1/6 319/1/6
f 316/2/6 317/2/6 320/2/6
f 319/1/6 313/1/6 320/1/6
f 313/2/6 316/2/6 320/2/6
f 320/2/6 317/2/6 321/2/6
f 317/1/6 315/1/6 322/1/6
f 321/2/6 317/2/6 322/2/6
f 322/1/6 315/1/6 323/1/6
f 315/3/6 149/3/6 324/3/6
f 323/1/6 315/1/6 324/1/6
f 324/3/6 149/3/6 325/3/6
f 320/1/6 321/1/6 326/1/6
f 318/3/6 319/3/6 326/3/6
f 319/1/6 320/1/6 326/1/6
f 326/1/6 321/1/6 327/1/6
f 322/2/6 323/2/6 328/2/6
f 327/1/6 321/1/6 328/1/6
f 321/2/6 322/2/6 328/2/6
f 328/2/6 323/2/6 329/2/6
f 324/1/6 325/1/6 330/1/6
f 329/2/6 323/2/6 330/2/6
f 323/1/6 324/1/6 330/1/6
f 330/1/6 325/1/6 331/1/6
f 325/3/6 149/3/6 332/3/6
f 331/1/6 325/1/6 332/1/6
f 332/3/6 149/3/6 333/3/6
f 326/3/6 327/3/6 334/3/6
f 328/1/6 329/1/6 334/1/6
f 327/1/6 328/1/6 334/1/6
f 334/1/6 329/1/6 335/1/6
f 330/2/6 331/2/6 336/2/6
f 335/1/6 329/1/6 336/1/6
f 329/2/6 330/2/6 336/2/6
f 336/2/6 331/2/6 337/2/6
f 332/1/6 333/1/6 338/1/6
f 337/2/6 331/2/6 338/2/6
f 331/1/6 332/1/6 338/1/6
f 338/1/6 333/1/6 339/1/6
f 333/3/6 149/3/6 340/3/6
f 339/1/6 333/1/6 340/1/6
f 340/3/6 149/3/6 341/3/6
f 338/2/6 339/2/6 342/2/6
f 336/1/6 337/1/6 342/1/6
f 335/1/6 336/1/6 342/1/6
f 337/2/6 338/2/6 342/2/6
f 342/2/6 339/2/6 343/2/6
f 334/3/6 335/3/6 344/3/6
f 335/1/6 342/1/6 344/1/6
f 342/1/6 343/1/6 344/1/6
f 344/1/6 343/1/6 345/1/6
f 343/2/6 339/2/6 346/2/6
f 340/1/6 341/1/6 346/1/6
f 339/1/6 340/1/6 346/1/6
f 346/1/6 341/1/6 347/1/6
f 341/3/6 149/3/6 348/3/6
f 347/1/6 341/1/6 348/1/6
f 348/3/6 149/3/6 349/3/6
f 346/2/6 347/2/6 350/2/6
f 345/1/6 343/1/6 350/1/6
f 343/2/6 346/2/6 350/2/6
f 350/2/6 347/2/6 351/2/6
f 348/1/6 349/1/6 352/1/6
f 351/2/6 347/2/6 352/2/6
f 347/1/6 348/1/6 352/1/6
f 352/1/6 349/1/6 353/1/6
f 349/3/6 149/3/6 354/3/6
f 353/1/6 349/1/6 354/1/6
f 354/3/6 149/3/6 355/3/6
f 350/1/6 351/1/6 356/1/6
f 344/3/6 345/3/6 356/3/6
f 345/1/6 350/1/6 356/1/6
f 356/1/6 351/1/6 357/1/6
f 344/3/6 356/3/6 358/3/6
f 356/3/6 357/3/6 358/3/6
f 357/1/6 351/1/6 359/1/6
f 358/3/6 357/3/6 359/3/6
f 355/3/6 149/3/6 360/3/6
f 354/1/6 355/1/6 360/1/6
f 353/1/6 354/1/6 360/1/6
f 360/3/6 149/3/6 361/3/6
f 358/1/6 359/1/6 362/1/6
f 344/3/6 358/3/6 362/3/6
f 359/1/6 351/1/6 363/1/6
f 362/1/6 359/1/6 363/1/6
f 352/2/6 353/2/6 364/2/6
f 360/1/6 361/1/6 364/1/6
f 351/2/6 352/2/6 364/2/6
f 353/1/6 360/1/6 364/1/6
f 364/1/6 361/1/6 365/1/6
f 363/1/6 351/1/6 366/1/6
f 351/2/6 364/2/6 366/2/6
f 364/2/6 365/2/6 366/2/6
f 366/2/6 365/2/6 367/2/6
f 362/3/6 363/3/6 368/3/6
f 363/1/6 366/1/6 368/1/6
f 366/1/6 367/1/6 368/1/6
f 368/1/6 367/1/6 369/1/6
f 365/1/6 361/1/6 370/1/6
f 367/2/6 365/2/6 370/2/6
f 370/1/6 361/1/6 371/1/6
f 369/1/6 367/1/6 372/1/6
f 367/2/6 370/2/6 372/2/6
f 370/2/6 371/2/6 372/2/6
f 372/2/6 371/2/6 373/2/6
f 368/3/6 369/3/6 374/3/6
f 369/1/6 372/1/6 374/1/6
f 372/1/6 373/1/6 374/1/6
f 374/1/6 373/1/6 375/1/6
f 368/3/6 374/3/6 376/3/6
f 374/3/6 375/3/6 376/3/6
f 375/1/6 373/1/6 377/1/6
f 376/3/6 375/3/6 377/3/6
f 371/1/6 361/1/6 378/1/6
f 361/3/6 149/3/6 378/3/6
f 378/3/6 149/3/6 379/3/6
f 376/1/6 377/1/6 380/1/6
f 368/3/6 376/3/6 380/3/6
f 377/1/6 373/1/6 381/1/6
f 380/1/6 377/1/6 381/1/6
f 373/2/6 371/2/6 382/2/6
f 381/1/6 373/1/6 382/1/6
f 382/2/6 371/2/6 383/2/6
f 378/1/6 379/1/6 384/1/6
f 383/2/6 371/2/6 384/2/6
f 371/1/6 378/1/6 384/1/6
f 384/1/6 379/1/6 385/1/6
f 380/3/6 381/3/6 386/3/6
f 382/1/6 383/1/6 386/1/6
f 381/1/6 382/1/6 386/1/6
f 386/1/6 383/1/6 387/1/6
f 384/2/6 385/2/6 388/2/6
f 387/1/6 383/1/6 388/1/6
f 383/2/6 384/2/6 388/2/6
f 388/2/6 385/2/6 389/2/6
f 386/3/6 387/3/6 390/3/6
f 387/1/6 388/1/6 390/1/6
f 388/1/6 389/1/6 390/1/6
f 390/1/6 389/1/6 391/1/6
f 389/2/6 385/2/6 392/2/6
f 391/1/6 389/1/6 392/1/6
f 392/2/6 385/2/6 393/2/6
f 379/3/6 149/3/6 394/3/6
f 385/1/6 379/1/6 394/1/6
f 394/3/6 149/3/6 395/3/6
f 392/1/6 393/1/6 396/1/6
f 390/3/6 391/3/6 396/3/6
f 391/1/6 392/1/6 396/1/6
f 396/1/6 393/1/6 397/1/6
f 393/2/6 385/2/6 398/2/6
f 397/1/6 393/1/6 398/1/6
f 398/2/6 385/2/6 399/2/6
f 394/1/6 395/1/6 400/1/6
f 399/2/6 385/2/6 400/2/6
f 385/1/6 394/1/6 400/1/6
f 400/1/6 395/1/6 401/1/6
f 395/3/6 149/3/6 402/3/6
f 401/1/6 395/1/6 402/1/6
f 402/3/6 149/3/6 403/3/6
f 396/3/6 397/3/6 404/3/6
f 398/1/6 399/1/6 404/1/6
f 397/1/6 398/1/6 404/1/6
f 404/1/6 399/1/6 405/1/6
f 400/2/6 401/2/6 406/2/6
f 402/1/6 403/1/6 406/1/6
f 401/1/6 402/1/6 406/1/6
f 399/2/6 400/2/6 406/2/6
f 406/1/6 403/1/6 407/1/6
f 403/3/6 149/3/6 408/3/6
f 407/1/6 403/1/6 408/1/6
f 408/3/6 149/3/6 409/3/6
f 368/3/6 380/3/6 410/3/6
f 180/3/6 196/3/6 410/3/6
f 144/3/6 180/3/6 410/3/6
f 344/3/6 362/3/6 410/3/6
f 196/3/6 208/3/6 410/3/6
f 390/3/6 396/3/6 410/3/6
f 396/3/6 404/3/6 410/3/6
f 386/3/6 390/3/6 410/3/6
f 380/3/6 386/3/6 410/3/6
f 404/3/6 405/3/6 410/3/6
f 362/3/6 368/3/6 410/3/6
f 208/3/6 216/3/6 410/3/6
f 326/3/6 334/3/6 410/3/6
f 318/3/6 326/3/6 410/3/6
f 334/3/6 344/3/6 410/3/6
f 308/3/6 318/3/6 410/3/6
f 294/3/6 302/3/6 410/3/6
f 288/3/6 294/3/6 410/3/6
f 302/3/6 308/3/6 410/3/6
f 282/3/6 288/3/6 410/3/6
f 258/3/6 280/3/6 410/3/6
f 280/3/6 282/3/6 410/3/6
f 234/3/6 250/3/6 410/3/6
f 250/3/6 258/3/6 410/3/6
f 224/3/6 234/3/6 410/3/6
f 216/3/6 224/3/6 410/3/6
f 405/1/6 399/1/6 411/1/6
f 410/3/6 405/3/6 411/3/6
f 399/2/6 406/2/6 412/2/6
f 411/1/6 399/1/6 412/1/6
f 406/2/6 407/2/6 412/2/6
f 408/1/6 409/1/6 413/1/6
f 412/2/6 407/2/6 413/2/6
f 407/1/6 408/1/6 413/1/6
f 409/3/6 149/3/6 414/3/6
f 413/1/6 409/1/6 414/1/6
f 414/3/6 149/3/6 415/3/6
